<svg width="592" height="130" viewBox="0 0 592 130" fill="none" xmlns="http://www.w3.org/2000/svg">
<g clip-path="url(#clip0)">
<rect width="592" height="130" fill="white"/>
<circle cx="-54.5" cy="-30.5" r="436.5" fill="#1B3051"/>
<path fill-rule="evenodd" clip-rule="evenodd" d="M251.327 53.9844C253.681 52.6786 256.497 50.941 258.797 48.0227C256.519 45.2021 253.358 43.5472 251.023 42.2701C256.664 41.0297 261.579 46.594 261.579 46.594L262.899 48.0434L261.596 49.5111C256.445 55.0525 251.327 53.9844 251.327 53.9844" fill="#FB7C32"/>
<path fill-rule="evenodd" clip-rule="evenodd" d="M251.762 48.1221C251.762 49.5783 250.58 50.7578 249.123 50.7578C247.665 50.7578 246.483 49.5783 246.483 48.1221C246.483 46.6658 247.665 45.4863 249.123 45.4863C250.58 45.4863 251.762 46.6658 251.762 48.1221" fill="white"/>
<path fill-rule="evenodd" clip-rule="evenodd" d="M239.923 48.0222C241.675 50.3352 246.558 55.9363 252.758 55.9363C257.028 55.9363 261.287 53.2753 265.428 48.0234C261.29 42.9012 257.031 40.3057 252.758 40.3057C246.563 40.3057 241.685 45.754 239.923 48.0222M252.758 59.5528C242.978 59.5528 236.439 49.4084 236.164 48.9755L235.546 47.9981L236.175 47.0265C236.449 46.605 242.992 36.6903 252.758 36.6903C258.519 36.6903 264.038 40.1323 269.159 46.9208L269.97 47.997L269.17 49.0811C264.049 56.0293 258.527 59.5528 252.758 59.5528" fill="#FB7C32"/>
<path fill-rule="evenodd" clip-rule="evenodd" d="M245.308 59.5451C235.772 59.251 229.622 49.326 229.353 48.8999L228.845 47.9111L229.438 46.951C229.707 46.5364 235.749 37.0374 245.23 36.6986C237.867 40.074 232.747 48.096 232.747 48.096C232.747 48.096 237.042 55.2923 245.308 59.5451" fill="#FB7C32"/>
<path fill-rule="evenodd" clip-rule="evenodd" d="M218.788 55.2613C219.215 55.2613 220.465 56.1812 222.01 56.1812C223.391 56.1812 224.015 55.6885 224.015 54.7031C224.015 51.8136 217.44 53.5213 217.44 47.6435C217.44 44.3589 219.775 42.3226 223.49 42.3226C224.574 42.3226 228.354 42.5523 228.354 44.3922C228.354 44.8182 227.599 46.8223 226.941 46.8223C226.612 46.8223 225.626 46.1321 224.146 46.1321C223.029 46.1321 222.372 46.4939 222.372 47.3139C222.372 49.7119 228.946 48.4635 228.946 54.3092C228.946 57.758 226.481 60.0239 222.799 60.0239C219.939 60.0239 217.045 59.2683 217.045 57.6914C217.045 57.0345 218.097 55.2613 218.788 55.2613" fill="#FB7C32"/>
<path fill-rule="evenodd" clip-rule="evenodd" d="M170.103 38.0864C170.103 37.1665 170.498 36.7726 171.419 36.7726H183.452C184.141 36.7726 184.437 37.2653 184.437 38.4149V39.4324C184.437 40.582 184.141 41.0747 183.452 41.0747H175.167V45.8363H182.564C183.254 45.8363 183.55 46.329 183.55 47.4786V48.4961C183.55 49.6457 183.254 50.1384 182.564 50.1384H175.167V55.4581H183.484C184.175 55.4581 184.471 55.9508 184.471 57.1004V58.118C184.471 59.2676 184.175 59.7603 183.484 59.7603H171.419C170.498 59.7603 170.103 59.3664 170.103 58.4464V38.0864Z" fill="#FB7C32"/>
<path fill-rule="evenodd" clip-rule="evenodd" d="M185.587 43.8333C185.521 43.6036 185.454 43.406 185.454 43.2418C185.454 42.7824 186.079 42.5194 187.46 42.5194H188.513C189.466 42.5194 190.189 42.6836 190.354 43.2096L192.293 49.285C192.523 50.0396 192.918 51.8461 193.214 53.2576H193.345C193.642 51.8461 194.036 50.0074 194.266 49.285L196.205 43.2096C196.37 42.6836 197.093 42.5194 198.047 42.5194H198.835C200.216 42.5194 200.808 42.7824 200.808 43.2418C200.808 43.406 200.775 43.6036 200.709 43.8333L193.181 65.8356C192.983 66.3616 192.293 66.5247 191.34 66.5247H190.781C189.434 66.5247 188.808 66.2628 188.808 65.8356C188.808 65.6713 188.842 65.475 188.939 65.2441L191.011 59.7602L185.587 43.8333Z" fill="#FB7C32"/>
<path fill-rule="evenodd" clip-rule="evenodd" d="M211.36 49.4819C211.36 47.5778 210.637 46.1652 208.993 46.1652C207.612 46.1652 206.429 46.953 206.035 49.4819H211.36ZM208.993 42.3224C214.154 42.3224 216.095 46.2306 216.095 50.7958C216.095 51.3539 214.845 52.7332 214.418 52.7332H206.035C206.263 55.3598 207.679 56.1809 209.815 56.1809C211.887 56.1809 213.332 55.1634 213.793 55.1634C214.516 55.1634 215.503 57.0021 215.503 57.659C215.503 59.3002 211.426 60.0237 209.585 60.0237C203.634 60.0237 201.005 56.5749 201.005 51.2885C201.005 44.8192 204.292 42.3224 208.993 42.3224V42.3224Z" fill="#FB7C32"/>
<path fill-rule="evenodd" clip-rule="evenodd" d="M161.591 54.1124V46.7897C161.065 46.4934 160.309 46.165 159.289 46.165C157.218 46.165 156.232 47.8727 156.232 51.1574C156.232 54.3421 157.086 56.0498 158.894 56.0498C160.144 56.0498 160.998 55.1299 161.591 54.1124M151.3 51.1574C151.3 45.8044 153.799 42.3234 158.237 42.3234C159.782 42.3234 160.9 42.8482 161.591 43.3409V36.0504C161.591 35.3614 162.182 35.0007 163.562 35.0007H164.483C165.864 35.0007 166.456 35.3614 166.456 36.0504V53.9803C166.456 57.3637 166.851 58.0528 166.851 58.743C166.851 59.5308 163.99 59.7938 163.168 59.7938C162.116 59.7938 162.05 58.4145 161.853 57.5601C161.097 58.9727 159.486 60.0235 157.448 60.0235C153.898 60.0235 151.3 56.871 151.3 51.1574" fill="white"/>
<path fill-rule="evenodd" clip-rule="evenodd" d="M134.961 48.365C134.961 45.0815 134.567 44.3913 134.567 43.7355C134.567 42.9465 137.428 42.6835 138.249 42.6835C139.301 42.6835 139.367 43.9973 139.564 44.8185C140.518 43.5713 142.326 42.3229 144.463 42.3229C147.75 42.3229 149.295 43.9973 149.295 47.6426V58.7758C149.295 59.4649 148.703 59.8267 147.322 59.8267H146.403C145.022 59.8267 144.43 59.4649 144.43 58.7758V48.365C144.43 47.0844 143.904 46.3287 142.458 46.3287C141.109 46.3287 140.222 47.4783 139.827 48.234V58.7758C139.827 59.4649 139.235 59.8267 137.854 59.8267H136.934C135.554 59.8267 134.961 59.4649 134.961 58.7758V48.365Z" fill="white"/>
<path fill-rule="evenodd" clip-rule="evenodd" d="M123.522 56.1809C124.77 56.1809 125.955 55.2943 126.48 54.1125V52.306C123.357 52.306 121.878 53.1593 121.878 54.7362C121.878 55.5573 122.437 56.1809 123.522 56.1809M126.48 49.1213V48.0372C126.48 46.7888 125.725 46.1652 123.916 46.1652C121.517 46.1652 120.102 47.216 119.708 47.216C119.018 47.216 117.998 45.2785 117.998 44.5883C117.998 43.472 120.629 42.3224 124.278 42.3224C129.473 42.3224 131.346 44.6216 131.346 47.8075V53.9805C131.346 57.3627 131.741 58.0529 131.741 58.742C131.741 59.5299 128.881 59.7929 128.059 59.7929C127.007 59.7929 126.941 58.4136 126.743 57.5269C126.513 57.9542 124.935 60.0237 121.911 60.0237C118.36 60.0237 117.045 57.9209 117.045 55.2289C117.045 52.5357 118.13 49.1213 126.48 49.1213" fill="white"/>
<path fill-rule="evenodd" clip-rule="evenodd" d="M104.85 55.2613C105.278 55.2613 106.526 56.1812 108.071 56.1812C109.452 56.1812 110.077 55.6885 110.077 54.7031C110.077 51.8136 103.502 53.5213 103.502 47.6435C103.502 44.3589 105.836 42.3226 109.551 42.3226C110.635 42.3226 114.417 42.5523 114.417 44.3922C114.417 44.8182 113.66 46.8223 113.003 46.8223C112.674 46.8223 111.687 46.1321 110.209 46.1321C109.09 46.1321 108.434 46.4939 108.434 47.3139C108.434 49.7119 115.008 48.4635 115.008 54.3092C115.008 57.758 112.543 60.0239 108.86 60.0239C106.001 60.0239 103.107 59.2683 103.107 57.6914C103.107 57.0345 104.159 55.2613 104.85 55.2613" fill="white"/>
<path fill-rule="evenodd" clip-rule="evenodd" d="M86.3746 43.5707C86.3746 42.8805 86.9667 42.5199 88.3476 42.5199H89.2674C90.6483 42.5199 91.2404 42.8805 91.2404 43.5707V53.9804C91.2404 55.261 91.7658 56.0167 93.2134 56.0167C94.5609 56.0167 95.4485 54.8671 95.8429 54.1125V43.5707C95.8429 42.8805 96.435 42.5199 97.8158 42.5199H98.7357C100.117 42.5199 100.709 42.8805 100.709 43.5707V53.9804C100.709 57.3627 101.103 58.0529 101.103 58.742C101.103 59.5298 98.2436 59.7928 97.4203 59.7928C96.3695 59.7928 96.3028 58.4135 96.1062 57.5269C95.153 58.7753 93.3444 60.0237 91.207 60.0237C87.9199 60.0237 86.3746 58.3481 86.3746 54.7028V43.5707Z" fill="white"/>
<path fill-rule="evenodd" clip-rule="evenodd" d="M78.7822 51.157C78.7822 47.8735 77.8612 46.1658 75.7572 46.1658C73.6531 46.1658 72.7 47.8735 72.7 51.157C72.7 54.4405 73.6531 56.1815 75.7572 56.1815C77.8612 56.1815 78.7822 54.4405 78.7822 51.157M75.7572 42.323C80.9851 42.323 83.7135 45.4422 83.7135 51.157C83.7135 56.8706 80.9851 60.0243 75.7572 60.0243C70.5304 60.0243 67.7686 56.8706 67.7686 51.157C67.7686 45.4422 70.5304 42.323 75.7572 42.323" fill="white"/>
<path fill-rule="evenodd" clip-rule="evenodd" d="M51.2991 36.0508C51.2991 35.3618 51.8913 35 53.2721 35H54.1919C55.5728 35 56.1649 35.3618 56.1649 36.0508V44.5564C57.1836 43.3413 58.8278 42.3226 60.8008 42.3226C64.0879 42.3226 65.7643 43.9982 65.7643 47.6435V58.7756C65.7643 59.4646 65.1721 59.8264 63.7924 59.8264H62.8715C61.4906 59.8264 60.8985 59.4646 60.8985 58.7756V48.3647C60.8985 47.0842 60.242 46.3296 58.7944 46.3296C57.4469 46.3296 56.5593 47.4792 56.1649 48.2338V58.7756C56.1649 59.4646 55.5728 59.8264 54.1919 59.8264H53.2721C51.8913 59.8264 51.2991 59.4646 51.2991 58.7756V36.0508Z" fill="white"/>
<path fill-rule="evenodd" clip-rule="evenodd" d="M38.2133 41.0749H32.9865C32.2955 41.0749 32 40.5822 32 39.4326V38.415C32 37.2654 32.2955 36.7727 32.9865 36.7727H48.5358C49.2268 36.7727 49.5223 37.2654 49.5223 38.415V39.4326C49.5223 40.5822 49.2268 41.0749 48.5358 41.0749H43.309V58.775C43.309 59.4641 42.718 59.8259 41.3372 59.8259H40.1863C38.8054 59.8259 38.2133 59.4641 38.2133 58.775V41.0749Z" fill="white"/>
<path d="M36.1221 88V79.1611H32.8203V77.9785H40.7637V79.1611H37.4482V88H36.1221ZM41.9736 88V77.9785H43.2041V81.5742C43.7783 80.9089 44.5029 80.5762 45.3779 80.5762C45.9157 80.5762 46.3828 80.6833 46.7793 80.8975C47.1758 81.1071 47.4583 81.3988 47.627 81.7725C47.8001 82.1462 47.8867 82.6885 47.8867 83.3994V88H46.6562V83.3994C46.6562 82.7842 46.5218 82.3376 46.2529 82.0596C45.9886 81.777 45.6126 81.6357 45.125 81.6357C44.7604 81.6357 44.4163 81.7314 44.0928 81.9229C43.7738 82.1097 43.5459 82.3649 43.4092 82.6885C43.2725 83.012 43.2041 83.4587 43.2041 84.0283V88H41.9736ZM49.3086 84.3701C49.3086 83.0257 49.6823 82.0299 50.4297 81.3828C51.054 80.8451 51.8151 80.5762 52.7129 80.5762C53.7109 80.5762 54.5267 80.9043 55.1602 81.5605C55.7936 82.2122 56.1104 83.1146 56.1104 84.2676C56.1104 85.2018 55.9691 85.9378 55.6865 86.4756C55.4085 87.0088 55.0007 87.4235 54.4629 87.7197C53.9297 88.016 53.3464 88.1641 52.7129 88.1641C51.6966 88.1641 50.874 87.8382 50.2451 87.1865C49.6208 86.5348 49.3086 85.596 49.3086 84.3701ZM50.5732 84.3701C50.5732 85.2998 50.776 85.9971 51.1816 86.4619C51.5872 86.9222 52.0977 87.1523 52.7129 87.1523C53.3236 87.1523 53.8317 86.9199 54.2373 86.4551C54.6429 85.9902 54.8457 85.2816 54.8457 84.3291C54.8457 83.4313 54.6406 82.7523 54.2305 82.292C53.8249 81.8271 53.319 81.5947 52.7129 81.5947C52.0977 81.5947 51.5872 81.8249 51.1816 82.2852C50.776 82.7454 50.5732 83.4404 50.5732 84.3701ZM62.3174 88V86.9336C61.7523 87.7539 60.9844 88.1641 60.0137 88.1641C59.5853 88.1641 59.1842 88.082 58.8105 87.918C58.4414 87.7539 58.1657 87.5488 57.9834 87.3027C57.8057 87.0521 57.6803 86.7467 57.6074 86.3867C57.5573 86.1452 57.5322 85.7624 57.5322 85.2383V80.7402H58.7627V84.7666C58.7627 85.4092 58.7878 85.8421 58.8379 86.0654C58.9154 86.389 59.0794 86.6442 59.3301 86.8311C59.5807 87.0133 59.8906 87.1045 60.2598 87.1045C60.6289 87.1045 60.9753 87.0111 61.2988 86.8242C61.6224 86.6328 61.8503 86.3753 61.9824 86.0518C62.1191 85.7236 62.1875 85.2497 62.1875 84.6299V80.7402H63.418V88H62.3174ZM64.8604 85.833L66.0771 85.6416C66.1455 86.1292 66.3346 86.5029 66.6445 86.7627C66.959 87.0225 67.3965 87.1523 67.957 87.1523C68.5221 87.1523 68.9414 87.0384 69.2148 86.8105C69.4883 86.5781 69.625 86.307 69.625 85.9971C69.625 85.7191 69.5042 85.5003 69.2627 85.3408C69.0941 85.2314 68.6748 85.0924 68.0049 84.9238C67.1025 84.696 66.4759 84.5 66.125 84.3359C65.7786 84.1673 65.5143 83.9372 65.332 83.6455C65.1543 83.3493 65.0654 83.0234 65.0654 82.668C65.0654 82.3444 65.1383 82.0459 65.2842 81.7725C65.4346 81.4945 65.6374 81.2643 65.8926 81.082C66.084 80.9408 66.3438 80.8223 66.6719 80.7266C67.0046 80.6263 67.36 80.5762 67.7383 80.5762C68.3079 80.5762 68.807 80.6582 69.2354 80.8223C69.6683 80.9863 69.9873 81.2096 70.1924 81.4922C70.3975 81.7702 70.5387 82.1439 70.6162 82.6133L69.4131 82.7773C69.3584 82.4036 69.1989 82.112 68.9346 81.9023C68.6748 81.6927 68.3057 81.5879 67.8271 81.5879C67.262 81.5879 66.8587 81.6813 66.6172 81.8682C66.3757 82.055 66.2549 82.2738 66.2549 82.5244C66.2549 82.6839 66.305 82.8275 66.4053 82.9551C66.5055 83.0872 66.6628 83.1966 66.877 83.2832C67 83.3288 67.3623 83.4336 67.9639 83.5977C68.8343 83.8301 69.4404 84.0215 69.7822 84.1719C70.1286 84.3177 70.3997 84.5319 70.5957 84.8145C70.7917 85.097 70.8896 85.4479 70.8896 85.8672C70.8896 86.2773 70.7689 86.6647 70.5273 87.0293C70.2904 87.3893 69.9463 87.6696 69.4951 87.8701C69.0439 88.0661 68.5335 88.1641 67.9639 88.1641C67.0205 88.1641 66.3005 87.9681 65.8037 87.5762C65.3115 87.1842 64.9971 86.6032 64.8604 85.833ZM77.0898 87.1045C76.6341 87.4919 76.1943 87.7653 75.7705 87.9248C75.3512 88.0843 74.9001 88.1641 74.417 88.1641C73.6195 88.1641 73.0065 87.9704 72.5781 87.583C72.1497 87.1911 71.9355 86.6921 71.9355 86.0859C71.9355 85.7305 72.0153 85.4069 72.1748 85.1152C72.3389 84.819 72.5508 84.582 72.8105 84.4043C73.0749 84.2266 73.3711 84.0921 73.6992 84.001C73.9408 83.9372 74.3053 83.8757 74.793 83.8164C75.7865 83.6979 76.5179 83.5566 76.9873 83.3926C76.9919 83.224 76.9941 83.1169 76.9941 83.0713C76.9941 82.57 76.8779 82.2168 76.6455 82.0117C76.3311 81.7337 75.8639 81.5947 75.2441 81.5947C74.6654 81.5947 74.237 81.6973 73.959 81.9023C73.6855 82.1029 73.4827 82.4606 73.3506 82.9756L72.1475 82.8115C72.2568 82.2965 72.4368 81.8818 72.6875 81.5674C72.9382 81.2484 73.3005 81.0046 73.7744 80.8359C74.2484 80.6628 74.7975 80.5762 75.4219 80.5762C76.0417 80.5762 76.5452 80.6491 76.9326 80.7949C77.32 80.9408 77.6048 81.1253 77.7871 81.3486C77.9694 81.5674 78.097 81.8454 78.1699 82.1826C78.2109 82.3923 78.2314 82.7705 78.2314 83.3174V84.958C78.2314 86.1019 78.2565 86.8265 78.3066 87.1318C78.3613 87.4326 78.4661 87.722 78.6211 88H77.3359C77.2083 87.7448 77.1263 87.4463 77.0898 87.1045ZM76.9873 84.3564C76.5407 84.5387 75.8708 84.6937 74.9775 84.8213C74.4717 84.8942 74.1139 84.9762 73.9043 85.0674C73.6947 85.1585 73.5329 85.293 73.4189 85.4707C73.305 85.6439 73.248 85.8376 73.248 86.0518C73.248 86.3799 73.3711 86.6533 73.6172 86.8721C73.8678 87.0908 74.2324 87.2002 74.7109 87.2002C75.1849 87.2002 75.6064 87.0977 75.9756 86.8926C76.3447 86.6829 76.6159 86.3981 76.7891 86.0381C76.9212 85.7601 76.9873 85.3499 76.9873 84.8076V84.3564ZM80.1455 88V80.7402H81.2529V81.7725C81.7861 80.9749 82.5563 80.5762 83.5635 80.5762C84.001 80.5762 84.402 80.6559 84.7666 80.8154C85.1357 80.9704 85.4115 81.1755 85.5938 81.4307C85.776 81.6859 85.9036 81.9889 85.9766 82.3398C86.0221 82.5677 86.0449 82.9665 86.0449 83.5361V88H84.8145V83.584C84.8145 83.0827 84.7666 82.709 84.6709 82.4629C84.5752 82.2122 84.4043 82.014 84.1582 81.8682C83.9167 81.7178 83.6318 81.6426 83.3037 81.6426C82.7796 81.6426 82.3262 81.8089 81.9434 82.1416C81.5651 82.4743 81.376 83.1055 81.376 84.0352V88H80.1455ZM92.6484 88V87.084C92.1882 87.804 91.5114 88.1641 90.6182 88.1641C90.0394 88.1641 89.5062 88.0046 89.0186 87.6855C88.5355 87.3665 88.1595 86.9222 87.8906 86.3525C87.6263 85.7783 87.4941 85.1198 87.4941 84.377C87.4941 83.6523 87.6149 82.9961 87.8564 82.4082C88.098 81.8158 88.4603 81.3623 88.9434 81.0479C89.4264 80.7334 89.9665 80.5762 90.5635 80.5762C91.001 80.5762 91.3906 80.6696 91.7324 80.8564C92.0742 81.0387 92.3522 81.278 92.5664 81.5742V77.9785H93.79V88H92.6484ZM88.7588 84.377C88.7588 85.3066 88.9548 86.0016 89.3467 86.4619C89.7386 86.9222 90.2012 87.1523 90.7344 87.1523C91.2721 87.1523 91.7279 86.9336 92.1016 86.4961C92.4798 86.054 92.6689 85.3818 92.6689 84.4795C92.6689 83.486 92.4775 82.7568 92.0947 82.292C91.7119 81.8271 91.2402 81.5947 90.6797 81.5947C90.1328 81.5947 89.6748 81.818 89.3057 82.2646C88.9411 82.7113 88.7588 83.4154 88.7588 84.377ZM95.916 88V77.9785H103.162V79.1611H97.2422V82.2305H102.786V83.4062H97.2422V86.8174H103.395V88H95.916ZM105.015 90.7959L104.878 89.6406C105.147 89.7135 105.382 89.75 105.582 89.75C105.855 89.75 106.074 89.7044 106.238 89.6133C106.402 89.5221 106.537 89.3945 106.642 89.2305C106.719 89.1074 106.844 88.8021 107.018 88.3145C107.04 88.2461 107.077 88.1458 107.127 88.0137L104.372 80.7402H105.698L107.209 84.9443C107.405 85.4775 107.58 86.0381 107.735 86.626C107.877 86.0609 108.045 85.5094 108.241 84.9717L109.793 80.7402H111.023L108.262 88.123C107.965 88.9206 107.735 89.4697 107.571 89.7705C107.353 90.1761 107.102 90.4723 106.819 90.6592C106.537 90.8506 106.2 90.9463 105.808 90.9463C105.571 90.9463 105.306 90.8962 105.015 90.7959ZM117.039 85.6621L118.311 85.8193C118.11 86.5622 117.739 87.1387 117.196 87.5488C116.654 87.959 115.961 88.1641 115.118 88.1641C114.056 88.1641 113.213 87.8382 112.589 87.1865C111.969 86.5303 111.659 85.612 111.659 84.4316C111.659 83.2103 111.974 82.2624 112.603 81.5879C113.231 80.9134 114.047 80.5762 115.05 80.5762C116.021 80.5762 116.813 80.9066 117.429 81.5674C118.044 82.2282 118.352 83.1579 118.352 84.3564C118.352 84.4294 118.349 84.5387 118.345 84.6846H112.931C112.976 85.4821 113.202 86.0928 113.607 86.5166C114.013 86.9404 114.519 87.1523 115.125 87.1523C115.576 87.1523 115.961 87.0339 116.28 86.7969C116.599 86.5599 116.852 86.1816 117.039 85.6621ZM112.999 83.6729H117.053C116.998 83.0622 116.843 82.6042 116.588 82.2988C116.196 81.8249 115.688 81.5879 115.063 81.5879C114.498 81.5879 114.022 81.777 113.635 82.1553C113.252 82.5335 113.04 83.0394 112.999 83.6729ZM119.37 85.833L120.587 85.6416C120.655 86.1292 120.844 86.5029 121.154 86.7627C121.469 87.0225 121.906 87.1523 122.467 87.1523C123.032 87.1523 123.451 87.0384 123.725 86.8105C123.998 86.5781 124.135 86.307 124.135 85.9971C124.135 85.7191 124.014 85.5003 123.772 85.3408C123.604 85.2314 123.185 85.0924 122.515 84.9238C121.612 84.696 120.986 84.5 120.635 84.3359C120.288 84.1673 120.024 83.9372 119.842 83.6455C119.664 83.3493 119.575 83.0234 119.575 82.668C119.575 82.3444 119.648 82.0459 119.794 81.7725C119.944 81.4945 120.147 81.2643 120.402 81.082C120.594 80.9408 120.854 80.8223 121.182 80.7266C121.514 80.6263 121.87 80.5762 122.248 80.5762C122.818 80.5762 123.317 80.6582 123.745 80.8223C124.178 80.9863 124.497 81.2096 124.702 81.4922C124.907 81.7702 125.049 82.1439 125.126 82.6133L123.923 82.7773C123.868 82.4036 123.709 82.112 123.444 81.9023C123.185 81.6927 122.815 81.5879 122.337 81.5879C121.772 81.5879 121.368 81.6813 121.127 81.8682C120.885 82.055 120.765 82.2738 120.765 82.5244C120.765 82.6839 120.815 82.8275 120.915 82.9551C121.015 83.0872 121.173 83.1966 121.387 83.2832C121.51 83.3288 121.872 83.4336 122.474 83.5977C123.344 83.8301 123.95 84.0215 124.292 84.1719C124.638 84.3177 124.91 84.5319 125.105 84.8145C125.301 85.097 125.399 85.4479 125.399 85.8672C125.399 86.2773 125.279 86.6647 125.037 87.0293C124.8 87.3893 124.456 87.6696 124.005 87.8701C123.554 88.0661 123.043 88.1641 122.474 88.1641C121.53 88.1641 120.81 87.9681 120.313 87.5762C119.821 87.1842 119.507 86.6032 119.37 85.833ZM130.766 79.3936V77.9785H131.996V79.3936H130.766ZM130.766 88V80.7402H131.996V88H130.766ZM133.384 85.833L134.601 85.6416C134.669 86.1292 134.858 86.5029 135.168 86.7627C135.482 87.0225 135.92 87.1523 136.48 87.1523C137.046 87.1523 137.465 87.0384 137.738 86.8105C138.012 86.5781 138.148 86.307 138.148 85.9971C138.148 85.7191 138.028 85.5003 137.786 85.3408C137.618 85.2314 137.198 85.0924 136.528 84.9238C135.626 84.696 134.999 84.5 134.648 84.3359C134.302 84.1673 134.038 83.9372 133.855 83.6455C133.678 83.3493 133.589 83.0234 133.589 82.668C133.589 82.3444 133.662 82.0459 133.808 81.7725C133.958 81.4945 134.161 81.2643 134.416 81.082C134.607 80.9408 134.867 80.8223 135.195 80.7266C135.528 80.6263 135.883 80.5762 136.262 80.5762C136.831 80.5762 137.33 80.6582 137.759 80.8223C138.192 80.9863 138.511 81.2096 138.716 81.4922C138.921 81.7702 139.062 82.1439 139.14 82.6133L137.937 82.7773C137.882 82.4036 137.722 82.112 137.458 81.9023C137.198 81.6927 136.829 81.5879 136.351 81.5879C135.785 81.5879 135.382 81.6813 135.141 81.8682C134.899 82.055 134.778 82.2738 134.778 82.5244C134.778 82.6839 134.828 82.8275 134.929 82.9551C135.029 83.0872 135.186 83.1966 135.4 83.2832C135.523 83.3288 135.886 83.4336 136.487 83.5977C137.358 83.8301 137.964 84.0215 138.306 84.1719C138.652 84.3177 138.923 84.5319 139.119 84.8145C139.315 85.097 139.413 85.4479 139.413 85.8672C139.413 86.2773 139.292 86.6647 139.051 87.0293C138.814 87.3893 138.47 87.6696 138.019 87.8701C137.567 88.0661 137.057 88.1641 136.487 88.1641C135.544 88.1641 134.824 87.9681 134.327 87.5762C133.835 87.1842 133.521 86.6032 133.384 85.833ZM148.669 88V80.7402H149.776V81.7725C150.31 80.9749 151.08 80.5762 152.087 80.5762C152.524 80.5762 152.925 80.6559 153.29 80.8154C153.659 80.9704 153.935 81.1755 154.117 81.4307C154.299 81.6859 154.427 81.9889 154.5 82.3398C154.546 82.5677 154.568 82.9665 154.568 83.5361V88H153.338V83.584C153.338 83.0827 153.29 82.709 153.194 82.4629C153.099 82.2122 152.928 82.014 152.682 81.8682C152.44 81.7178 152.155 81.6426 151.827 81.6426C151.303 81.6426 150.85 81.8089 150.467 82.1416C150.089 82.4743 149.899 83.1055 149.899 84.0352V88H148.669ZM156.004 84.3701C156.004 83.0257 156.378 82.0299 157.125 81.3828C157.749 80.8451 158.51 80.5762 159.408 80.5762C160.406 80.5762 161.222 80.9043 161.855 81.5605C162.489 82.2122 162.806 83.1146 162.806 84.2676C162.806 85.2018 162.664 85.9378 162.382 86.4756C162.104 87.0088 161.696 87.4235 161.158 87.7197C160.625 88.016 160.042 88.1641 159.408 88.1641C158.392 88.1641 157.569 87.8382 156.94 87.1865C156.316 86.5348 156.004 85.596 156.004 84.3701ZM157.269 84.3701C157.269 85.2998 157.471 85.9971 157.877 86.4619C158.283 86.9222 158.793 87.1523 159.408 87.1523C160.019 87.1523 160.527 86.9199 160.933 86.4551C161.338 85.9902 161.541 85.2816 161.541 84.3291C161.541 83.4313 161.336 82.7523 160.926 82.292C160.52 81.8271 160.014 81.5947 159.408 81.5947C158.793 81.5947 158.283 81.8249 157.877 82.2852C157.471 82.7454 157.269 83.4404 157.269 84.3701ZM165.595 88L163.373 80.7402H164.645L165.8 84.9307L166.23 86.4893C166.249 86.4118 166.374 85.9128 166.606 84.9922L167.762 80.7402H169.026L170.113 84.9512L170.476 86.3389L170.893 84.9375L172.137 80.7402H173.333L171.063 88H169.785L168.63 83.6523L168.35 82.415L166.88 88H165.595ZM178.269 90.7822V80.7402H179.39V81.6836C179.654 81.3145 179.952 81.0387 180.285 80.8564C180.618 80.6696 181.021 80.5762 181.495 80.5762C182.115 80.5762 182.662 80.7357 183.136 81.0547C183.61 81.3737 183.967 81.8249 184.209 82.4082C184.451 82.987 184.571 83.6227 184.571 84.3154C184.571 85.0583 184.437 85.7282 184.168 86.3252C183.904 86.9176 183.516 87.3734 183.006 87.6924C182.5 88.0068 181.967 88.1641 181.406 88.1641C180.996 88.1641 180.627 88.0775 180.299 87.9043C179.975 87.7311 179.709 87.5124 179.499 87.248V90.7822H178.269ZM179.383 84.4111C179.383 85.3454 179.572 86.0358 179.95 86.4824C180.328 86.929 180.786 87.1523 181.324 87.1523C181.871 87.1523 182.338 86.9222 182.726 86.4619C183.118 85.9971 183.313 85.2793 183.313 84.3086C183.313 83.3835 183.122 82.6908 182.739 82.2305C182.361 81.7702 181.908 81.54 181.379 81.54C180.855 81.54 180.39 81.7861 179.984 82.2783C179.583 82.766 179.383 83.4769 179.383 84.4111ZM190.799 87.1045C190.343 87.4919 189.903 87.7653 189.479 87.9248C189.06 88.0843 188.609 88.1641 188.126 88.1641C187.328 88.1641 186.715 87.9704 186.287 87.583C185.859 87.1911 185.645 86.6921 185.645 86.0859C185.645 85.7305 185.724 85.4069 185.884 85.1152C186.048 84.819 186.26 84.582 186.52 84.4043C186.784 84.2266 187.08 84.0921 187.408 84.001C187.65 83.9372 188.014 83.8757 188.502 83.8164C189.495 83.6979 190.227 83.5566 190.696 83.3926C190.701 83.224 190.703 83.1169 190.703 83.0713C190.703 82.57 190.587 82.2168 190.354 82.0117C190.04 81.7337 189.573 81.5947 188.953 81.5947C188.374 81.5947 187.946 81.6973 187.668 81.9023C187.395 82.1029 187.192 82.4606 187.06 82.9756L185.856 82.8115C185.966 82.2965 186.146 81.8818 186.396 81.5674C186.647 81.2484 187.009 81.0046 187.483 80.8359C187.957 80.6628 188.507 80.5762 189.131 80.5762C189.751 80.5762 190.254 80.6491 190.642 80.7949C191.029 80.9408 191.314 81.1253 191.496 81.3486C191.678 81.5674 191.806 81.8454 191.879 82.1826C191.92 82.3923 191.94 82.7705 191.94 83.3174V84.958C191.94 86.1019 191.965 86.8265 192.016 87.1318C192.07 87.4326 192.175 87.722 192.33 88H191.045C190.917 87.7448 190.835 87.4463 190.799 87.1045ZM190.696 84.3564C190.25 84.5387 189.58 84.6937 188.687 84.8213C188.181 84.8942 187.823 84.9762 187.613 85.0674C187.404 85.1585 187.242 85.293 187.128 85.4707C187.014 85.6439 186.957 85.8376 186.957 86.0518C186.957 86.3799 187.08 86.6533 187.326 86.8721C187.577 87.0908 187.941 87.2002 188.42 87.2002C188.894 87.2002 189.315 87.0977 189.685 86.8926C190.054 86.6829 190.325 86.3981 190.498 86.0381C190.63 85.7601 190.696 85.3499 190.696 84.8076V84.3564ZM193.841 88V80.7402H194.948V81.8408C195.231 81.3258 195.491 80.9863 195.728 80.8223C195.969 80.6582 196.233 80.5762 196.521 80.5762C196.935 80.5762 197.357 80.7083 197.785 80.9727L197.361 82.1143C197.061 81.9365 196.76 81.8477 196.459 81.8477C196.19 81.8477 195.949 81.9297 195.734 82.0938C195.52 82.2533 195.368 82.4766 195.276 82.7637C195.14 83.2012 195.071 83.6797 195.071 84.1992V88H193.841ZM201.203 86.8994L201.381 87.9863C201.035 88.0592 200.725 88.0957 200.451 88.0957C200.005 88.0957 199.658 88.0251 199.412 87.8838C199.166 87.7425 198.993 87.5579 198.893 87.3301C198.792 87.0977 198.742 86.6123 198.742 85.874V81.6973H197.84V80.7402H198.742V78.9424L199.966 78.2041V80.7402H201.203V81.6973H199.966V85.9424C199.966 86.2933 199.986 86.5189 200.027 86.6191C200.073 86.7194 200.144 86.7992 200.239 86.8584C200.34 86.9176 200.481 86.9473 200.663 86.9473C200.8 86.9473 200.98 86.9313 201.203 86.8994ZM205.852 84.3701C205.852 83.0257 206.225 82.0299 206.973 81.3828C207.597 80.8451 208.358 80.5762 209.256 80.5762C210.254 80.5762 211.07 80.9043 211.703 81.5605C212.337 82.2122 212.653 83.1146 212.653 84.2676C212.653 85.2018 212.512 85.9378 212.229 86.4756C211.951 87.0088 211.544 87.4235 211.006 87.7197C210.473 88.016 209.889 88.1641 209.256 88.1641C208.24 88.1641 207.417 87.8382 206.788 87.1865C206.164 86.5348 205.852 85.596 205.852 84.3701ZM207.116 84.3701C207.116 85.2998 207.319 85.9971 207.725 86.4619C208.13 86.9222 208.641 87.1523 209.256 87.1523C209.867 87.1523 210.375 86.9199 210.78 86.4551C211.186 85.9902 211.389 85.2816 211.389 84.3291C211.389 83.4313 211.184 82.7523 210.773 82.292C210.368 81.8271 209.862 81.5947 209.256 81.5947C208.641 81.5947 208.13 81.8249 207.725 82.2852C207.319 82.7454 207.116 83.4404 207.116 84.3701ZM214.396 88V81.6973H213.31V80.7402H214.396V79.9678C214.396 79.4801 214.44 79.1178 214.526 78.8809C214.645 78.5618 214.852 78.3044 215.148 78.1084C215.449 77.9079 215.868 77.8076 216.406 77.8076C216.753 77.8076 217.135 77.8486 217.555 77.9307L217.37 79.0039C217.115 78.9583 216.873 78.9355 216.646 78.9355C216.272 78.9355 216.007 79.0153 215.853 79.1748C215.698 79.3343 215.62 79.6328 215.62 80.0703V80.7402H217.035V81.6973H215.62V88H214.396ZM229.203 84.4863L230.529 84.8213C230.251 85.9105 229.75 86.7422 229.025 87.3164C228.305 87.8861 227.424 88.1709 226.38 88.1709C225.3 88.1709 224.42 87.9521 223.741 87.5146C223.067 87.0726 222.552 86.4346 222.196 85.6006C221.845 84.7666 221.67 83.8711 221.67 82.9141C221.67 81.8704 221.868 80.9613 222.265 80.1865C222.666 79.4072 223.233 78.8171 223.967 78.416C224.705 78.0104 225.516 77.8076 226.4 77.8076C227.403 77.8076 228.246 78.0628 228.93 78.5732C229.613 79.0837 230.09 79.8014 230.358 80.7266L229.053 81.0342C228.82 80.305 228.483 79.7741 228.041 79.4414C227.599 79.1087 227.043 78.9424 226.373 78.9424C225.603 78.9424 224.958 79.127 224.438 79.4961C223.924 79.8652 223.561 80.362 223.352 80.9863C223.142 81.6061 223.037 82.2464 223.037 82.9072C223.037 83.7594 223.16 84.5046 223.406 85.1426C223.657 85.776 224.044 86.25 224.568 86.5645C225.092 86.8789 225.66 87.0361 226.271 87.0361C227.013 87.0361 227.642 86.8219 228.157 86.3936C228.672 85.9652 229.021 85.3294 229.203 84.4863ZM232.02 79.3936V77.9785H233.25V79.3936H232.02ZM232.02 88V80.7402H233.25V88H232.02ZM234.638 85.833L235.854 85.6416C235.923 86.1292 236.112 86.5029 236.422 86.7627C236.736 87.0225 237.174 87.1523 237.734 87.1523C238.299 87.1523 238.719 87.0384 238.992 86.8105C239.266 86.5781 239.402 86.307 239.402 85.9971C239.402 85.7191 239.282 85.5003 239.04 85.3408C238.871 85.2314 238.452 85.0924 237.782 84.9238C236.88 84.696 236.253 84.5 235.902 84.3359C235.556 84.1673 235.292 83.9372 235.109 83.6455C234.932 83.3493 234.843 83.0234 234.843 82.668C234.843 82.3444 234.916 82.0459 235.062 81.7725C235.212 81.4945 235.415 81.2643 235.67 81.082C235.861 80.9408 236.121 80.8223 236.449 80.7266C236.782 80.6263 237.137 80.5762 237.516 80.5762C238.085 80.5762 238.584 80.6582 239.013 80.8223C239.446 80.9863 239.765 81.2096 239.97 81.4922C240.175 81.7702 240.316 82.1439 240.394 82.6133L239.19 82.7773C239.136 82.4036 238.976 82.112 238.712 81.9023C238.452 81.6927 238.083 81.5879 237.604 81.5879C237.039 81.5879 236.636 81.6813 236.395 81.8682C236.153 82.055 236.032 82.2738 236.032 82.5244C236.032 82.6839 236.082 82.8275 236.183 82.9551C236.283 83.0872 236.44 83.1966 236.654 83.2832C236.777 83.3288 237.14 83.4336 237.741 83.5977C238.612 83.8301 239.218 84.0215 239.56 84.1719C239.906 84.3177 240.177 84.5319 240.373 84.8145C240.569 85.097 240.667 85.4479 240.667 85.8672C240.667 86.2773 240.546 86.6647 240.305 87.0293C240.068 87.3893 239.724 87.6696 239.272 87.8701C238.821 88.0661 238.311 88.1641 237.741 88.1641C236.798 88.1641 236.078 87.9681 235.581 87.5762C235.089 87.1842 234.774 86.6032 234.638 85.833ZM246.867 85.3408L248.077 85.498C247.945 86.332 247.605 86.986 247.059 87.46C246.516 87.9294 245.849 88.1641 245.056 88.1641C244.062 88.1641 243.262 87.8405 242.656 87.1934C242.055 86.5417 241.754 85.6097 241.754 84.3975C241.754 83.6136 241.884 82.9277 242.144 82.3398C242.403 81.752 242.798 81.3122 243.326 81.0205C243.859 80.7243 244.438 80.5762 245.062 80.5762C245.851 80.5762 246.496 80.7767 246.997 81.1777C247.498 81.5742 247.82 82.1393 247.961 82.873L246.765 83.0576C246.651 82.57 246.448 82.2031 246.156 81.957C245.869 81.7109 245.521 81.5879 245.11 81.5879C244.491 81.5879 243.987 81.8112 243.6 82.2578C243.212 82.6999 243.019 83.4017 243.019 84.3633C243.019 85.3385 243.205 86.0472 243.579 86.4893C243.953 86.9313 244.44 87.1523 245.042 87.1523C245.525 87.1523 245.928 87.0042 246.252 86.708C246.576 86.4118 246.781 85.9561 246.867 85.3408ZM248.672 84.3701C248.672 83.0257 249.046 82.0299 249.793 81.3828C250.417 80.8451 251.178 80.5762 252.076 80.5762C253.074 80.5762 253.89 80.9043 254.523 81.5605C255.157 82.2122 255.474 83.1146 255.474 84.2676C255.474 85.2018 255.332 85.9378 255.05 86.4756C254.772 87.0088 254.364 87.4235 253.826 87.7197C253.293 88.016 252.71 88.1641 252.076 88.1641C251.06 88.1641 250.237 87.8382 249.608 87.1865C248.984 86.5348 248.672 85.596 248.672 84.3701ZM249.937 84.3701C249.937 85.2998 250.139 85.9971 250.545 86.4619C250.951 86.9222 251.461 87.1523 252.076 87.1523C252.687 87.1523 253.195 86.9199 253.601 86.4551C254.006 85.9902 254.209 85.2816 254.209 84.3291C254.209 83.4313 254.004 82.7523 253.594 82.292C253.188 81.8271 252.682 81.5947 252.076 81.5947C251.461 81.5947 250.951 81.8249 250.545 82.2852C250.139 82.7454 249.937 83.4404 249.937 84.3701Z" fill="white"/>
<g clip-path="url(#clip1)">
<path d="M309.795 93.8551V93.9832H309.423V94.9437H309.27V93.9832H308.898V93.8551H309.795Z" fill="white"/>
<path d="M309.875 93.8551H310.113L310.44 94.7474H310.448L310.767 93.8551H311V94.9437H310.843V94.0514H310.839L310.502 94.9437H310.36L310.036 94.0514H310.028V94.9437H309.875V93.8551Z" fill="white"/>
<path d="M278.68 86.6719H276.574V94.9437H278.68V86.6719Z" fill="white"/>
<path d="M295.65 89.0426C295.565 88.9981 294.888 88.5992 293.879 88.5992C292.521 88.5992 291.574 89.5397 291.574 90.8064C291.574 92.0358 292.48 93.0145 293.879 93.0145C294.869 93.0145 295.56 92.6256 295.65 92.5756V94.7965C295.385 94.8692 294.669 95.0909 293.731 95.0909C291.365 95.0909 289.29 93.4716 289.29 90.8064C289.29 88.3356 291.168 86.5255 293.731 86.5255C294.722 86.5255 295.452 86.7627 295.65 86.8217V89.0426Z" fill="white"/>
<path d="M273.684 89.0426C273.598 88.9981 272.922 88.5992 271.913 88.5992C270.551 88.5992 269.607 89.5397 269.607 90.8064C269.607 92.0358 270.511 93.0145 271.913 93.0145C272.904 93.0145 273.59 92.6256 273.684 92.5756V94.7965C273.42 94.8692 272.702 95.0909 271.761 95.0909C269.397 95.0909 267.322 93.4716 267.322 90.8064C267.322 88.3356 269.202 86.5255 271.761 86.5255C272.752 86.5255 273.483 86.7627 273.684 86.8217V89.0426Z" fill="white"/>
<path d="M306.679 90.8064C306.679 93.1726 304.837 95.0909 302.274 95.0909C299.705 95.0909 297.868 93.1726 297.868 90.8064C297.868 88.4438 299.705 86.5255 302.274 86.5255C304.838 86.5255 306.679 88.4438 306.679 90.8064ZM302.274 88.631C301.023 88.631 300.095 89.6051 300.095 90.8064C300.095 92.0086 301.023 92.9836 302.274 92.9836C303.52 92.9836 304.448 92.0095 304.448 90.8064C304.448 89.606 303.52 88.631 302.274 88.631Z" fill="white"/>
<path d="M286.663 88.551C286.632 88.5419 285.744 88.2993 285.019 88.2993C284.171 88.2993 283.714 88.5792 283.714 88.9763C283.714 89.4806 284.332 89.656 284.678 89.7659L285.26 89.9486C286.628 90.3793 287.251 91.3071 287.251 92.313C287.251 94.3921 285.408 95.09 283.794 95.09C282.674 95.09 281.626 94.8864 281.522 94.8637V92.9609C281.71 93.0064 282.593 93.2672 283.512 93.2672C284.557 93.2672 285.041 92.9646 285.041 92.4948C285.041 92.0749 284.624 91.8351 284.1 91.6715C283.974 91.6297 283.781 91.5706 283.652 91.5261C282.477 91.159 281.5 90.4775 281.5 89.1081C281.5 87.5605 282.67 86.521 284.611 86.521C285.637 86.521 286.601 86.7682 286.663 86.7845V88.551Z" fill="white"/>
<path d="M265.089 77.7812C265.089 77.2133 264.62 76.7507 264.045 76.7507C263.47 76.7498 263 77.2124 263 77.7812V79.953C263 80.5264 263.47 80.9898 264.045 80.9898C264.62 80.9898 265.089 80.5264 265.089 79.953V77.7812Z" fill="white"/>
<path d="M270.829 74.9306C270.829 74.3627 270.358 73.8983 269.784 73.8983C269.209 73.8983 268.739 74.3627 268.739 74.9306V79.953C268.739 80.5263 269.209 80.9898 269.784 80.9898C270.358 80.9898 270.829 80.5263 270.829 79.953V74.9306Z" fill="white"/>
<path d="M276.571 71.0323C276.571 70.4625 276.1 70 275.526 70C274.948 70 274.477 70.4625 274.477 71.0323V82.0175C274.477 82.59 274.948 83.0516 275.526 83.0516C276.1 83.0516 276.571 82.59 276.571 82.0175V71.0323Z" fill="white"/>
<path d="M282.306 74.9306C282.306 74.3627 281.84 73.8983 281.262 73.8983C280.688 73.8983 280.217 74.3627 280.217 74.9306V79.953C280.217 80.5263 280.688 80.9898 281.262 80.9898C281.84 80.9898 282.306 80.5263 282.306 79.953V74.9306Z" fill="white"/>
<path d="M288.043 77.7812C288.043 77.2133 287.573 76.7507 287.004 76.7507C286.426 76.7507 285.96 77.2133 285.96 77.7812V79.953C285.96 80.5264 286.426 80.9898 287.004 80.9898C287.573 80.9898 288.043 80.5264 288.043 79.953V77.7812Z" fill="white"/>
<path d="M293.785 74.9306C293.785 74.3627 293.319 73.8983 292.74 73.8983C292.166 73.8983 291.701 74.3627 291.701 74.9306V79.953C291.701 80.5263 292.166 80.9898 292.74 80.9898C293.319 80.9898 293.785 80.5263 293.785 79.953V74.9306Z" fill="white"/>
<path d="M299.527 71.0323C299.527 70.4625 299.06 70 298.487 70C297.909 70 297.443 70.4625 297.443 71.0323V82.0175C297.443 82.59 297.909 83.0516 298.487 83.0516C299.06 83.0516 299.527 82.59 299.527 82.0175V71.0323Z" fill="white"/>
<path d="M305.268 74.9306C305.268 74.3627 304.802 73.8983 304.214 73.8983C303.641 73.8983 303.175 74.3627 303.175 74.9306V79.953C303.175 80.5263 303.641 80.9898 304.214 80.9898C304.802 80.9898 305.268 80.5263 305.268 79.953V74.9306Z" fill="white"/>
<path d="M311 77.7812C311 77.2133 310.534 76.7507 309.961 76.7507C309.383 76.7507 308.916 77.2133 308.916 77.7812V79.953C308.916 80.5264 309.382 80.9898 309.961 80.9898C310.534 80.9898 311 80.5264 311 79.953V77.7812Z" fill="white"/>
</g>
</g>
<defs>
<clipPath id="clip0">
<rect width="592" height="130" fill="white"/>
</clipPath>
<clipPath id="clip1">
<rect width="48" height="25.0909" fill="white" transform="translate(263 70)"/>
</clipPath>
</defs>
</svg>
