<svg width="592" height="102" viewBox="0 0 592 102" fill="none" xmlns="http://www.w3.org/2000/svg">
<g clip-path="url(#clip0)">
<path d="M462 0H-10V102H349.557L462 0Z" fill="#1B3051"/>
<path fill-rule="evenodd" clip-rule="evenodd" d="M251.327 39.9844C253.681 38.6786 256.497 36.9409 258.797 34.0227C256.519 31.2021 253.358 29.5471 251.023 28.27C256.664 27.0297 261.579 32.594 261.579 32.594L262.899 34.0434L261.596 35.5111C256.446 41.0525 251.327 39.9844 251.327 39.9844" fill="#FB7C32"/>
<path fill-rule="evenodd" clip-rule="evenodd" d="M251.762 34.122C251.762 35.5783 250.58 36.7578 249.123 36.7578C247.665 36.7578 246.483 35.5783 246.483 34.122C246.483 32.6658 247.665 31.4863 249.123 31.4863C250.58 31.4863 251.762 32.6658 251.762 34.122" fill="white"/>
<path fill-rule="evenodd" clip-rule="evenodd" d="M239.923 34.0222C241.675 36.3352 246.558 41.9363 252.758 41.9363C257.028 41.9363 261.287 39.2753 265.428 34.0234C261.29 28.9012 257.031 26.3057 252.758 26.3057C246.563 26.3057 241.685 31.754 239.923 34.0222M252.758 45.5528C242.978 45.5528 236.439 35.4084 236.164 34.9755L235.546 33.9981L236.175 33.0265C236.449 32.605 242.992 22.6903 252.758 22.6903C258.519 22.6903 264.038 26.1323 269.159 32.9208L269.97 33.997L269.17 35.0811C264.049 42.0293 258.527 45.5528 252.758 45.5528" fill="#FB7C32"/>
<path fill-rule="evenodd" clip-rule="evenodd" d="M245.308 45.545C235.772 45.251 229.622 35.326 229.353 34.8999L228.845 33.9111L229.438 32.9509C229.707 32.5363 235.749 23.0374 245.23 22.6986C237.867 26.0739 232.747 34.096 232.747 34.096C232.747 34.096 237.042 41.2923 245.308 45.545" fill="#FB7C32"/>
<path fill-rule="evenodd" clip-rule="evenodd" d="M218.788 41.2612C219.215 41.2612 220.465 42.1812 222.01 42.1812C223.391 42.1812 224.015 41.6885 224.015 40.7031C224.015 37.8135 217.44 39.5213 217.44 33.6435C217.44 30.3588 219.775 28.3226 223.49 28.3226C224.574 28.3226 228.354 28.5523 228.354 30.3922C228.354 30.8182 227.599 32.8223 226.941 32.8223C226.612 32.8223 225.626 32.1321 224.146 32.1321C223.029 32.1321 222.372 32.4938 222.372 33.3139C222.372 35.7119 228.946 34.4635 228.946 40.3092C228.946 43.758 226.481 46.0239 222.799 46.0239C219.939 46.0239 217.045 45.2682 217.045 43.6914C217.045 43.0345 218.097 41.2612 218.788 41.2612" fill="#FB7C32"/>
<path fill-rule="evenodd" clip-rule="evenodd" d="M170.103 24.0864C170.103 23.1665 170.498 22.7725 171.419 22.7725H183.452C184.141 22.7725 184.437 23.2652 184.437 24.4148V25.4324C184.437 26.582 184.141 27.0747 183.452 27.0747H175.167V31.8362H182.564C183.254 31.8362 183.55 32.3289 183.55 33.4785V34.4961C183.55 35.6457 183.254 36.1384 182.564 36.1384H175.167V41.4581H183.484C184.175 41.4581 184.471 41.9508 184.471 43.1004V44.1179C184.471 45.2676 184.175 45.7602 183.484 45.7602H171.419C170.498 45.7602 170.103 45.3663 170.103 44.4464V24.0864Z" fill="#FB7C32"/>
<path fill-rule="evenodd" clip-rule="evenodd" d="M185.587 29.8333C185.521 29.6036 185.454 29.4061 185.454 29.2419C185.454 28.7825 186.079 28.5195 187.46 28.5195H188.513C189.466 28.5195 190.189 28.6837 190.354 29.2097L192.293 35.2851C192.523 36.0396 192.918 37.8462 193.214 39.2576H193.345C193.642 37.8462 194.036 36.0075 194.266 35.2851L196.205 29.2097C196.37 28.6837 197.093 28.5195 198.047 28.5195H198.835C200.216 28.5195 200.808 28.7825 200.808 29.2419C200.808 29.4061 200.775 29.6036 200.709 29.8333L193.181 51.8356C192.983 52.3616 192.293 52.5247 191.34 52.5247H190.781C189.434 52.5247 188.808 52.2629 188.808 51.8356C188.808 51.6714 188.842 51.475 188.939 51.2442L191.011 45.7603L185.587 29.8333Z" fill="#FB7C32"/>
<path fill-rule="evenodd" clip-rule="evenodd" d="M211.36 35.4819C211.36 33.5778 210.637 32.1652 208.993 32.1652C207.612 32.1652 206.429 32.953 206.035 35.4819H211.36ZM208.993 28.3224C214.154 28.3224 216.095 32.2306 216.095 36.7958C216.095 37.3539 214.845 38.7332 214.418 38.7332H206.035C206.264 41.3598 207.679 42.1809 209.815 42.1809C211.887 42.1809 213.332 41.1634 213.793 41.1634C214.516 41.1634 215.503 43.0021 215.503 43.659C215.503 45.3002 211.426 46.0237 209.585 46.0237C203.634 46.0237 201.005 42.5749 201.005 37.2885C201.005 30.8192 204.292 28.3224 208.993 28.3224V28.3224Z" fill="#FB7C32"/>
<path fill-rule="evenodd" clip-rule="evenodd" d="M161.591 40.1123V32.7897C161.065 32.4934 160.309 32.1649 159.289 32.1649C157.218 32.1649 156.232 33.8727 156.232 37.1573C156.232 40.342 157.086 42.0498 158.894 42.0498C160.144 42.0498 160.998 41.1299 161.591 40.1123M151.3 37.1573C151.3 31.8043 153.799 28.3233 158.237 28.3233C159.782 28.3233 160.9 28.8482 161.591 29.3409V22.0504C161.591 21.3613 162.182 21.0007 163.562 21.0007H164.483C165.864 21.0007 166.456 21.3613 166.456 22.0504V39.9802C166.456 43.3636 166.851 44.0527 166.851 44.7429C166.851 45.5308 163.99 45.7938 163.168 45.7938C162.116 45.7938 162.05 44.4145 161.853 43.56C161.097 44.9726 159.486 46.0235 157.448 46.0235C153.898 46.0235 151.3 42.8709 151.3 37.1573" fill="white"/>
<path fill-rule="evenodd" clip-rule="evenodd" d="M134.961 34.3649C134.961 31.0815 134.567 30.3912 134.567 29.7355C134.567 28.9465 137.428 28.6835 138.249 28.6835C139.301 28.6835 139.367 29.9973 139.564 30.8185C140.518 29.5712 142.326 28.3228 144.463 28.3228C147.75 28.3228 149.295 29.9973 149.295 33.6425V44.7758C149.295 45.4649 148.703 45.8266 147.322 45.8266H146.403C145.022 45.8266 144.43 45.4649 144.43 44.7758V34.3649C144.43 33.0844 143.904 32.3287 142.458 32.3287C141.109 32.3287 140.222 33.4783 139.827 34.234V44.7758C139.827 45.4649 139.235 45.8266 137.854 45.8266H136.934C135.554 45.8266 134.961 45.4649 134.961 44.7758V34.3649Z" fill="white"/>
<path fill-rule="evenodd" clip-rule="evenodd" d="M123.522 42.1809C124.77 42.1809 125.955 41.2943 126.48 40.1125V38.306C123.357 38.306 121.878 39.1593 121.878 40.7362C121.878 41.5573 122.437 42.1809 123.522 42.1809M126.48 35.1213V34.0372C126.48 32.7888 125.725 32.1652 123.916 32.1652C121.517 32.1652 120.102 33.216 119.708 33.216C119.018 33.216 117.998 31.2785 117.998 30.5883C117.998 29.472 120.629 28.3224 124.278 28.3224C129.473 28.3224 131.346 30.6216 131.346 33.8075V39.9805C131.346 43.3627 131.741 44.0529 131.741 44.742C131.741 45.5299 128.881 45.7929 128.059 45.7929C127.007 45.7929 126.941 44.4136 126.743 43.5269C126.513 43.9542 124.935 46.0237 121.911 46.0237C118.36 46.0237 117.045 43.9209 117.045 41.2289C117.045 38.5357 118.13 35.1213 126.48 35.1213" fill="white"/>
<path fill-rule="evenodd" clip-rule="evenodd" d="M104.85 41.2612C105.278 41.2612 106.526 42.1812 108.071 42.1812C109.452 42.1812 110.077 41.6885 110.077 40.7031C110.077 37.8135 103.502 39.5213 103.502 33.6435C103.502 30.3588 105.836 28.3226 109.551 28.3226C110.635 28.3226 114.417 28.5523 114.417 30.3922C114.417 30.8182 113.66 32.8223 113.003 32.8223C112.674 32.8223 111.687 32.1321 110.209 32.1321C109.09 32.1321 108.434 32.4938 108.434 33.3139C108.434 35.7119 115.008 34.4635 115.008 40.3092C115.008 43.758 112.543 46.0239 108.86 46.0239C106.001 46.0239 103.107 45.2682 103.107 43.6914C103.107 43.0345 104.159 41.2612 104.85 41.2612" fill="white"/>
<path fill-rule="evenodd" clip-rule="evenodd" d="M86.3746 29.5708C86.3746 28.8805 86.9667 28.5199 88.3476 28.5199H89.2674C90.6483 28.5199 91.2404 28.8805 91.2404 29.5708V39.9805C91.2404 41.261 91.7658 42.0167 93.2134 42.0167C94.5609 42.0167 95.4485 40.8671 95.8429 40.1125V29.5708C95.8429 28.8805 96.435 28.5199 97.8158 28.5199H98.7357C100.117 28.5199 100.709 28.8805 100.709 29.5708V39.9805C100.709 43.3627 101.103 44.0529 101.103 44.742C101.103 45.5299 98.2436 45.7929 97.4203 45.7929C96.3695 45.7929 96.3028 44.4136 96.1062 43.5269C95.153 44.7753 93.3444 46.0237 91.207 46.0237C87.9199 46.0237 86.3746 44.3481 86.3746 40.7029V29.5708Z" fill="white"/>
<path fill-rule="evenodd" clip-rule="evenodd" d="M78.7822 37.157C78.7822 33.8735 77.8612 32.1657 75.7572 32.1657C73.6531 32.1657 72.7 33.8735 72.7 37.157C72.7 40.4404 73.6531 42.1815 75.7572 42.1815C77.8612 42.1815 78.7822 40.4404 78.7822 37.157M75.7572 28.323C80.9851 28.323 83.7135 31.4422 83.7135 37.157C83.7135 42.8706 80.9851 46.0243 75.7572 46.0243C70.5304 46.0243 67.7686 42.8706 67.7686 37.157C67.7686 31.4422 70.5304 28.323 75.7572 28.323" fill="white"/>
<path fill-rule="evenodd" clip-rule="evenodd" d="M51.2992 22.0508C51.2992 21.3618 51.8913 21 53.2721 21H54.192C55.5728 21 56.1649 21.3618 56.1649 22.0508V30.5564C57.1836 29.3413 58.8278 28.3226 60.8008 28.3226C64.0879 28.3226 65.7643 29.9982 65.7643 33.6435V44.7756C65.7643 45.4646 65.1721 45.8264 63.7924 45.8264H62.8715C61.4906 45.8264 60.8985 45.4646 60.8985 44.7756V34.3647C60.8985 33.0842 60.242 32.3296 58.7944 32.3296C57.4469 32.3296 56.5593 33.4792 56.1649 34.2338V44.7756C56.1649 45.4646 55.5728 45.8264 54.192 45.8264H53.2721C51.8913 45.8264 51.2992 45.4646 51.2992 44.7756V22.0508Z" fill="white"/>
<path fill-rule="evenodd" clip-rule="evenodd" d="M38.2133 27.0748H32.9865C32.2955 27.0748 32 26.5821 32 25.4325V24.415C32 23.2654 32.2955 22.7727 32.9865 22.7727H48.5358C49.2268 22.7727 49.5223 23.2654 49.5223 24.415V25.4325C49.5223 26.5821 49.2268 27.0748 48.5358 27.0748H43.309V44.775C43.309 45.4641 42.718 45.8258 41.3372 45.8258H40.1863C38.8054 45.8258 38.2133 45.4641 38.2133 44.775V27.0748Z" fill="white"/>
<path d="M36.1221 74V65.1611H32.8203V63.9785H40.7637V65.1611H37.4482V74H36.1221ZM41.9736 74V63.9785H43.2041V67.5742C43.7783 66.9089 44.5029 66.5762 45.3779 66.5762C45.9157 66.5762 46.3828 66.6833 46.7793 66.8975C47.1758 67.1071 47.4583 67.3988 47.627 67.7725C47.8001 68.1462 47.8867 68.6885 47.8867 69.3994V74H46.6562V69.3994C46.6562 68.7842 46.5218 68.3376 46.2529 68.0596C45.9886 67.777 45.6126 67.6357 45.125 67.6357C44.7604 67.6357 44.4163 67.7314 44.0928 67.9229C43.7738 68.1097 43.5459 68.3649 43.4092 68.6885C43.2725 69.012 43.2041 69.4587 43.2041 70.0283V74H41.9736ZM49.3086 70.3701C49.3086 69.0257 49.6823 68.0299 50.4297 67.3828C51.054 66.8451 51.8151 66.5762 52.7129 66.5762C53.7109 66.5762 54.5267 66.9043 55.1602 67.5605C55.7936 68.2122 56.1104 69.1146 56.1104 70.2676C56.1104 71.2018 55.9691 71.9378 55.6865 72.4756C55.4085 73.0088 55.0007 73.4235 54.4629 73.7197C53.9297 74.016 53.3464 74.1641 52.7129 74.1641C51.6966 74.1641 50.874 73.8382 50.2451 73.1865C49.6208 72.5348 49.3086 71.596 49.3086 70.3701ZM50.5732 70.3701C50.5732 71.2998 50.776 71.9971 51.1816 72.4619C51.5872 72.9222 52.0977 73.1523 52.7129 73.1523C53.3236 73.1523 53.8317 72.9199 54.2373 72.4551C54.6429 71.9902 54.8457 71.2816 54.8457 70.3291C54.8457 69.4313 54.6406 68.7523 54.2305 68.292C53.8249 67.8271 53.319 67.5947 52.7129 67.5947C52.0977 67.5947 51.5872 67.8249 51.1816 68.2852C50.776 68.7454 50.5732 69.4404 50.5732 70.3701ZM62.3174 74V72.9336C61.7523 73.7539 60.9844 74.1641 60.0137 74.1641C59.5853 74.1641 59.1842 74.082 58.8105 73.918C58.4414 73.7539 58.1657 73.5488 57.9834 73.3027C57.8057 73.0521 57.6803 72.7467 57.6074 72.3867C57.5573 72.1452 57.5322 71.7624 57.5322 71.2383V66.7402H58.7627V70.7666C58.7627 71.4092 58.7878 71.8421 58.8379 72.0654C58.9154 72.389 59.0794 72.6442 59.3301 72.8311C59.5807 73.0133 59.8906 73.1045 60.2598 73.1045C60.6289 73.1045 60.9753 73.0111 61.2988 72.8242C61.6224 72.6328 61.8503 72.3753 61.9824 72.0518C62.1191 71.7236 62.1875 71.2497 62.1875 70.6299V66.7402H63.418V74H62.3174ZM64.8604 71.833L66.0771 71.6416C66.1455 72.1292 66.3346 72.5029 66.6445 72.7627C66.959 73.0225 67.3965 73.1523 67.957 73.1523C68.5221 73.1523 68.9414 73.0384 69.2148 72.8105C69.4883 72.5781 69.625 72.307 69.625 71.9971C69.625 71.7191 69.5042 71.5003 69.2627 71.3408C69.0941 71.2314 68.6748 71.0924 68.0049 70.9238C67.1025 70.696 66.4759 70.5 66.125 70.3359C65.7786 70.1673 65.5143 69.9372 65.332 69.6455C65.1543 69.3493 65.0654 69.0234 65.0654 68.668C65.0654 68.3444 65.1383 68.0459 65.2842 67.7725C65.4346 67.4945 65.6374 67.2643 65.8926 67.082C66.084 66.9408 66.3438 66.8223 66.6719 66.7266C67.0046 66.6263 67.36 66.5762 67.7383 66.5762C68.3079 66.5762 68.807 66.6582 69.2354 66.8223C69.6683 66.9863 69.9873 67.2096 70.1924 67.4922C70.3975 67.7702 70.5387 68.1439 70.6162 68.6133L69.4131 68.7773C69.3584 68.4036 69.1989 68.112 68.9346 67.9023C68.6748 67.6927 68.3057 67.5879 67.8271 67.5879C67.262 67.5879 66.8587 67.6813 66.6172 67.8682C66.3757 68.055 66.2549 68.2738 66.2549 68.5244C66.2549 68.6839 66.305 68.8275 66.4053 68.9551C66.5055 69.0872 66.6628 69.1966 66.877 69.2832C67 69.3288 67.3623 69.4336 67.9639 69.5977C68.8343 69.8301 69.4404 70.0215 69.7822 70.1719C70.1286 70.3177 70.3997 70.5319 70.5957 70.8145C70.7917 71.097 70.8896 71.4479 70.8896 71.8672C70.8896 72.2773 70.7689 72.6647 70.5273 73.0293C70.2904 73.3893 69.9463 73.6696 69.4951 73.8701C69.0439 74.0661 68.5335 74.1641 67.9639 74.1641C67.0205 74.1641 66.3005 73.9681 65.8037 73.5762C65.3115 73.1842 64.9971 72.6032 64.8604 71.833ZM77.0898 73.1045C76.6341 73.4919 76.1943 73.7653 75.7705 73.9248C75.3512 74.0843 74.9001 74.1641 74.417 74.1641C73.6195 74.1641 73.0065 73.9704 72.5781 73.583C72.1497 73.1911 71.9355 72.6921 71.9355 72.0859C71.9355 71.7305 72.0153 71.4069 72.1748 71.1152C72.3389 70.819 72.5508 70.582 72.8105 70.4043C73.0749 70.2266 73.3711 70.0921 73.6992 70.001C73.9408 69.9372 74.3053 69.8757 74.793 69.8164C75.7865 69.6979 76.5179 69.5566 76.9873 69.3926C76.9919 69.224 76.9941 69.1169 76.9941 69.0713C76.9941 68.57 76.8779 68.2168 76.6455 68.0117C76.3311 67.7337 75.8639 67.5947 75.2441 67.5947C74.6654 67.5947 74.237 67.6973 73.959 67.9023C73.6855 68.1029 73.4827 68.4606 73.3506 68.9756L72.1475 68.8115C72.2568 68.2965 72.4368 67.8818 72.6875 67.5674C72.9382 67.2484 73.3005 67.0046 73.7744 66.8359C74.2484 66.6628 74.7975 66.5762 75.4219 66.5762C76.0417 66.5762 76.5452 66.6491 76.9326 66.7949C77.32 66.9408 77.6048 67.1253 77.7871 67.3486C77.9694 67.5674 78.097 67.8454 78.1699 68.1826C78.2109 68.3923 78.2314 68.7705 78.2314 69.3174V70.958C78.2314 72.1019 78.2565 72.8265 78.3066 73.1318C78.3613 73.4326 78.4661 73.722 78.6211 74H77.3359C77.2083 73.7448 77.1263 73.4463 77.0898 73.1045ZM76.9873 70.3564C76.5407 70.5387 75.8708 70.6937 74.9775 70.8213C74.4717 70.8942 74.1139 70.9762 73.9043 71.0674C73.6947 71.1585 73.5329 71.293 73.4189 71.4707C73.305 71.6439 73.248 71.8376 73.248 72.0518C73.248 72.3799 73.3711 72.6533 73.6172 72.8721C73.8678 73.0908 74.2324 73.2002 74.7109 73.2002C75.1849 73.2002 75.6064 73.0977 75.9756 72.8926C76.3447 72.6829 76.6159 72.3981 76.7891 72.0381C76.9212 71.7601 76.9873 71.3499 76.9873 70.8076V70.3564ZM80.1455 74V66.7402H81.2529V67.7725C81.7861 66.9749 82.5563 66.5762 83.5635 66.5762C84.001 66.5762 84.402 66.6559 84.7666 66.8154C85.1357 66.9704 85.4115 67.1755 85.5938 67.4307C85.776 67.6859 85.9036 67.9889 85.9766 68.3398C86.0221 68.5677 86.0449 68.9665 86.0449 69.5361V74H84.8145V69.584C84.8145 69.0827 84.7666 68.709 84.6709 68.4629C84.5752 68.2122 84.4043 68.014 84.1582 67.8682C83.9167 67.7178 83.6318 67.6426 83.3037 67.6426C82.7796 67.6426 82.3262 67.8089 81.9434 68.1416C81.5651 68.4743 81.376 69.1055 81.376 70.0352V74H80.1455ZM92.6484 74V73.084C92.1882 73.804 91.5114 74.1641 90.6182 74.1641C90.0394 74.1641 89.5062 74.0046 89.0186 73.6855C88.5355 73.3665 88.1595 72.9222 87.8906 72.3525C87.6263 71.7783 87.4941 71.1198 87.4941 70.377C87.4941 69.6523 87.6149 68.9961 87.8564 68.4082C88.098 67.8158 88.4603 67.3623 88.9434 67.0479C89.4264 66.7334 89.9665 66.5762 90.5635 66.5762C91.001 66.5762 91.3906 66.6696 91.7324 66.8564C92.0742 67.0387 92.3522 67.278 92.5664 67.5742V63.9785H93.79V74H92.6484ZM88.7588 70.377C88.7588 71.3066 88.9548 72.0016 89.3467 72.4619C89.7386 72.9222 90.2012 73.1523 90.7344 73.1523C91.2721 73.1523 91.7279 72.9336 92.1016 72.4961C92.4798 72.054 92.6689 71.3818 92.6689 70.4795C92.6689 69.486 92.4775 68.7568 92.0947 68.292C91.7119 67.8271 91.2402 67.5947 90.6797 67.5947C90.1328 67.5947 89.6748 67.818 89.3057 68.2646C88.9411 68.7113 88.7588 69.4154 88.7588 70.377ZM95.916 74V63.9785H103.162V65.1611H97.2422V68.2305H102.786V69.4062H97.2422V72.8174H103.395V74H95.916ZM105.015 76.7959L104.878 75.6406C105.147 75.7135 105.382 75.75 105.582 75.75C105.855 75.75 106.074 75.7044 106.238 75.6133C106.402 75.5221 106.537 75.3945 106.642 75.2305C106.719 75.1074 106.844 74.8021 107.018 74.3145C107.04 74.2461 107.077 74.1458 107.127 74.0137L104.372 66.7402H105.698L107.209 70.9443C107.405 71.4775 107.58 72.0381 107.735 72.626C107.877 72.0609 108.045 71.5094 108.241 70.9717L109.793 66.7402H111.023L108.262 74.123C107.965 74.9206 107.735 75.4697 107.571 75.7705C107.353 76.1761 107.102 76.4723 106.819 76.6592C106.537 76.8506 106.2 76.9463 105.808 76.9463C105.571 76.9463 105.306 76.8962 105.015 76.7959ZM117.039 71.6621L118.311 71.8193C118.11 72.5622 117.739 73.1387 117.196 73.5488C116.654 73.959 115.961 74.1641 115.118 74.1641C114.056 74.1641 113.213 73.8382 112.589 73.1865C111.969 72.5303 111.659 71.612 111.659 70.4316C111.659 69.2103 111.974 68.2624 112.603 67.5879C113.231 66.9134 114.047 66.5762 115.05 66.5762C116.021 66.5762 116.813 66.9066 117.429 67.5674C118.044 68.2282 118.352 69.1579 118.352 70.3564C118.352 70.4294 118.349 70.5387 118.345 70.6846H112.931C112.976 71.4821 113.202 72.0928 113.607 72.5166C114.013 72.9404 114.519 73.1523 115.125 73.1523C115.576 73.1523 115.961 73.0339 116.28 72.7969C116.599 72.5599 116.852 72.1816 117.039 71.6621ZM112.999 69.6729H117.053C116.998 69.0622 116.843 68.6042 116.588 68.2988C116.196 67.8249 115.688 67.5879 115.063 67.5879C114.498 67.5879 114.022 67.777 113.635 68.1553C113.252 68.5335 113.04 69.0394 112.999 69.6729ZM119.37 71.833L120.587 71.6416C120.655 72.1292 120.844 72.5029 121.154 72.7627C121.469 73.0225 121.906 73.1523 122.467 73.1523C123.032 73.1523 123.451 73.0384 123.725 72.8105C123.998 72.5781 124.135 72.307 124.135 71.9971C124.135 71.7191 124.014 71.5003 123.772 71.3408C123.604 71.2314 123.185 71.0924 122.515 70.9238C121.612 70.696 120.986 70.5 120.635 70.3359C120.288 70.1673 120.024 69.9372 119.842 69.6455C119.664 69.3493 119.575 69.0234 119.575 68.668C119.575 68.3444 119.648 68.0459 119.794 67.7725C119.944 67.4945 120.147 67.2643 120.402 67.082C120.594 66.9408 120.854 66.8223 121.182 66.7266C121.514 66.6263 121.87 66.5762 122.248 66.5762C122.818 66.5762 123.317 66.6582 123.745 66.8223C124.178 66.9863 124.497 67.2096 124.702 67.4922C124.907 67.7702 125.049 68.1439 125.126 68.6133L123.923 68.7773C123.868 68.4036 123.709 68.112 123.444 67.9023C123.185 67.6927 122.815 67.5879 122.337 67.5879C121.772 67.5879 121.368 67.6813 121.127 67.8682C120.885 68.055 120.765 68.2738 120.765 68.5244C120.765 68.6839 120.815 68.8275 120.915 68.9551C121.015 69.0872 121.173 69.1966 121.387 69.2832C121.51 69.3288 121.872 69.4336 122.474 69.5977C123.344 69.8301 123.95 70.0215 124.292 70.1719C124.638 70.3177 124.91 70.5319 125.105 70.8145C125.301 71.097 125.399 71.4479 125.399 71.8672C125.399 72.2773 125.279 72.6647 125.037 73.0293C124.8 73.3893 124.456 73.6696 124.005 73.8701C123.554 74.0661 123.043 74.1641 122.474 74.1641C121.53 74.1641 120.81 73.9681 120.313 73.5762C119.821 73.1842 119.507 72.6032 119.37 71.833ZM130.766 65.3936V63.9785H131.996V65.3936H130.766ZM130.766 74V66.7402H131.996V74H130.766ZM133.384 71.833L134.601 71.6416C134.669 72.1292 134.858 72.5029 135.168 72.7627C135.482 73.0225 135.92 73.1523 136.48 73.1523C137.046 73.1523 137.465 73.0384 137.738 72.8105C138.012 72.5781 138.148 72.307 138.148 71.9971C138.148 71.7191 138.028 71.5003 137.786 71.3408C137.618 71.2314 137.198 71.0924 136.528 70.9238C135.626 70.696 134.999 70.5 134.648 70.3359C134.302 70.1673 134.038 69.9372 133.855 69.6455C133.678 69.3493 133.589 69.0234 133.589 68.668C133.589 68.3444 133.662 68.0459 133.808 67.7725C133.958 67.4945 134.161 67.2643 134.416 67.082C134.607 66.9408 134.867 66.8223 135.195 66.7266C135.528 66.6263 135.883 66.5762 136.262 66.5762C136.831 66.5762 137.33 66.6582 137.759 66.8223C138.192 66.9863 138.511 67.2096 138.716 67.4922C138.921 67.7702 139.062 68.1439 139.14 68.6133L137.937 68.7773C137.882 68.4036 137.722 68.112 137.458 67.9023C137.198 67.6927 136.829 67.5879 136.351 67.5879C135.785 67.5879 135.382 67.6813 135.141 67.8682C134.899 68.055 134.778 68.2738 134.778 68.5244C134.778 68.6839 134.828 68.8275 134.929 68.9551C135.029 69.0872 135.186 69.1966 135.4 69.2832C135.523 69.3288 135.886 69.4336 136.487 69.5977C137.358 69.8301 137.964 70.0215 138.306 70.1719C138.652 70.3177 138.923 70.5319 139.119 70.8145C139.315 71.097 139.413 71.4479 139.413 71.8672C139.413 72.2773 139.292 72.6647 139.051 73.0293C138.814 73.3893 138.47 73.6696 138.019 73.8701C137.567 74.0661 137.057 74.1641 136.487 74.1641C135.544 74.1641 134.824 73.9681 134.327 73.5762C133.835 73.1842 133.521 72.6032 133.384 71.833ZM148.669 74V66.7402H149.776V67.7725C150.31 66.9749 151.08 66.5762 152.087 66.5762C152.524 66.5762 152.925 66.6559 153.29 66.8154C153.659 66.9704 153.935 67.1755 154.117 67.4307C154.299 67.6859 154.427 67.9889 154.5 68.3398C154.546 68.5677 154.568 68.9665 154.568 69.5361V74H153.338V69.584C153.338 69.0827 153.29 68.709 153.194 68.4629C153.099 68.2122 152.928 68.014 152.682 67.8682C152.44 67.7178 152.155 67.6426 151.827 67.6426C151.303 67.6426 150.85 67.8089 150.467 68.1416C150.089 68.4743 149.899 69.1055 149.899 70.0352V74H148.669ZM156.004 70.3701C156.004 69.0257 156.378 68.0299 157.125 67.3828C157.749 66.8451 158.51 66.5762 159.408 66.5762C160.406 66.5762 161.222 66.9043 161.855 67.5605C162.489 68.2122 162.806 69.1146 162.806 70.2676C162.806 71.2018 162.664 71.9378 162.382 72.4756C162.104 73.0088 161.696 73.4235 161.158 73.7197C160.625 74.016 160.042 74.1641 159.408 74.1641C158.392 74.1641 157.569 73.8382 156.94 73.1865C156.316 72.5348 156.004 71.596 156.004 70.3701ZM157.269 70.3701C157.269 71.2998 157.471 71.9971 157.877 72.4619C158.283 72.9222 158.793 73.1523 159.408 73.1523C160.019 73.1523 160.527 72.9199 160.933 72.4551C161.338 71.9902 161.541 71.2816 161.541 70.3291C161.541 69.4313 161.336 68.7523 160.926 68.292C160.52 67.8271 160.014 67.5947 159.408 67.5947C158.793 67.5947 158.283 67.8249 157.877 68.2852C157.471 68.7454 157.269 69.4404 157.269 70.3701ZM165.595 74L163.373 66.7402H164.645L165.8 70.9307L166.23 72.4893C166.249 72.4118 166.374 71.9128 166.606 70.9922L167.762 66.7402H169.026L170.113 70.9512L170.476 72.3389L170.893 70.9375L172.137 66.7402H173.333L171.063 74H169.785L168.63 69.6523L168.35 68.415L166.88 74H165.595ZM178.269 76.7822V66.7402H179.39V67.6836C179.654 67.3145 179.952 67.0387 180.285 66.8564C180.618 66.6696 181.021 66.5762 181.495 66.5762C182.115 66.5762 182.662 66.7357 183.136 67.0547C183.61 67.3737 183.967 67.8249 184.209 68.4082C184.451 68.987 184.571 69.6227 184.571 70.3154C184.571 71.0583 184.437 71.7282 184.168 72.3252C183.904 72.9176 183.516 73.3734 183.006 73.6924C182.5 74.0068 181.967 74.1641 181.406 74.1641C180.996 74.1641 180.627 74.0775 180.299 73.9043C179.975 73.7311 179.709 73.5124 179.499 73.248V76.7822H178.269ZM179.383 70.4111C179.383 71.3454 179.572 72.0358 179.95 72.4824C180.328 72.929 180.786 73.1523 181.324 73.1523C181.871 73.1523 182.338 72.9222 182.726 72.4619C183.118 71.9971 183.313 71.2793 183.313 70.3086C183.313 69.3835 183.122 68.6908 182.739 68.2305C182.361 67.7702 181.908 67.54 181.379 67.54C180.855 67.54 180.39 67.7861 179.984 68.2783C179.583 68.766 179.383 69.4769 179.383 70.4111ZM190.799 73.1045C190.343 73.4919 189.903 73.7653 189.479 73.9248C189.06 74.0843 188.609 74.1641 188.126 74.1641C187.328 74.1641 186.715 73.9704 186.287 73.583C185.859 73.1911 185.645 72.6921 185.645 72.0859C185.645 71.7305 185.724 71.4069 185.884 71.1152C186.048 70.819 186.26 70.582 186.52 70.4043C186.784 70.2266 187.08 70.0921 187.408 70.001C187.65 69.9372 188.014 69.8757 188.502 69.8164C189.495 69.6979 190.227 69.5566 190.696 69.3926C190.701 69.224 190.703 69.1169 190.703 69.0713C190.703 68.57 190.587 68.2168 190.354 68.0117C190.04 67.7337 189.573 67.5947 188.953 67.5947C188.374 67.5947 187.946 67.6973 187.668 67.9023C187.395 68.1029 187.192 68.4606 187.06 68.9756L185.856 68.8115C185.966 68.2965 186.146 67.8818 186.396 67.5674C186.647 67.2484 187.009 67.0046 187.483 66.8359C187.957 66.6628 188.507 66.5762 189.131 66.5762C189.751 66.5762 190.254 66.6491 190.642 66.7949C191.029 66.9408 191.314 67.1253 191.496 67.3486C191.678 67.5674 191.806 67.8454 191.879 68.1826C191.92 68.3923 191.94 68.7705 191.94 69.3174V70.958C191.94 72.1019 191.965 72.8265 192.016 73.1318C192.07 73.4326 192.175 73.722 192.33 74H191.045C190.917 73.7448 190.835 73.4463 190.799 73.1045ZM190.696 70.3564C190.25 70.5387 189.58 70.6937 188.687 70.8213C188.181 70.8942 187.823 70.9762 187.613 71.0674C187.404 71.1585 187.242 71.293 187.128 71.4707C187.014 71.6439 186.957 71.8376 186.957 72.0518C186.957 72.3799 187.08 72.6533 187.326 72.8721C187.577 73.0908 187.941 73.2002 188.42 73.2002C188.894 73.2002 189.315 73.0977 189.685 72.8926C190.054 72.6829 190.325 72.3981 190.498 72.0381C190.63 71.7601 190.696 71.3499 190.696 70.8076V70.3564ZM193.841 74V66.7402H194.948V67.8408C195.231 67.3258 195.491 66.9863 195.728 66.8223C195.969 66.6582 196.233 66.5762 196.521 66.5762C196.935 66.5762 197.357 66.7083 197.785 66.9727L197.361 68.1143C197.061 67.9365 196.76 67.8477 196.459 67.8477C196.19 67.8477 195.949 67.9297 195.734 68.0938C195.52 68.2533 195.368 68.4766 195.276 68.7637C195.14 69.2012 195.071 69.6797 195.071 70.1992V74H193.841ZM201.203 72.8994L201.381 73.9863C201.035 74.0592 200.725 74.0957 200.451 74.0957C200.005 74.0957 199.658 74.0251 199.412 73.8838C199.166 73.7425 198.993 73.5579 198.893 73.3301C198.792 73.0977 198.742 72.6123 198.742 71.874V67.6973H197.84V66.7402H198.742V64.9424L199.966 64.2041V66.7402H201.203V67.6973H199.966V71.9424C199.966 72.2933 199.986 72.5189 200.027 72.6191C200.073 72.7194 200.144 72.7992 200.239 72.8584C200.34 72.9176 200.481 72.9473 200.663 72.9473C200.8 72.9473 200.98 72.9313 201.203 72.8994ZM205.852 70.3701C205.852 69.0257 206.225 68.0299 206.973 67.3828C207.597 66.8451 208.358 66.5762 209.256 66.5762C210.254 66.5762 211.07 66.9043 211.703 67.5605C212.337 68.2122 212.653 69.1146 212.653 70.2676C212.653 71.2018 212.512 71.9378 212.229 72.4756C211.951 73.0088 211.544 73.4235 211.006 73.7197C210.473 74.016 209.889 74.1641 209.256 74.1641C208.24 74.1641 207.417 73.8382 206.788 73.1865C206.164 72.5348 205.852 71.596 205.852 70.3701ZM207.116 70.3701C207.116 71.2998 207.319 71.9971 207.725 72.4619C208.13 72.9222 208.641 73.1523 209.256 73.1523C209.867 73.1523 210.375 72.9199 210.78 72.4551C211.186 71.9902 211.389 71.2816 211.389 70.3291C211.389 69.4313 211.184 68.7523 210.773 68.292C210.368 67.8271 209.862 67.5947 209.256 67.5947C208.641 67.5947 208.13 67.8249 207.725 68.2852C207.319 68.7454 207.116 69.4404 207.116 70.3701ZM214.396 74V67.6973H213.31V66.7402H214.396V65.9678C214.396 65.4801 214.44 65.1178 214.526 64.8809C214.645 64.5618 214.852 64.3044 215.148 64.1084C215.449 63.9079 215.868 63.8076 216.406 63.8076C216.753 63.8076 217.135 63.8486 217.555 63.9307L217.37 65.0039C217.115 64.9583 216.873 64.9355 216.646 64.9355C216.272 64.9355 216.007 65.0153 215.853 65.1748C215.698 65.3343 215.62 65.6328 215.62 66.0703V66.7402H217.035V67.6973H215.62V74H214.396ZM229.203 70.4863L230.529 70.8213C230.251 71.9105 229.75 72.7422 229.025 73.3164C228.305 73.8861 227.424 74.1709 226.38 74.1709C225.3 74.1709 224.42 73.9521 223.741 73.5146C223.067 73.0726 222.552 72.4346 222.196 71.6006C221.845 70.7666 221.67 69.8711 221.67 68.9141C221.67 67.8704 221.868 66.9613 222.265 66.1865C222.666 65.4072 223.233 64.8171 223.967 64.416C224.705 64.0104 225.516 63.8076 226.4 63.8076C227.403 63.8076 228.246 64.0628 228.93 64.5732C229.613 65.0837 230.09 65.8014 230.358 66.7266L229.053 67.0342C228.82 66.305 228.483 65.7741 228.041 65.4414C227.599 65.1087 227.043 64.9424 226.373 64.9424C225.603 64.9424 224.958 65.127 224.438 65.4961C223.924 65.8652 223.561 66.362 223.352 66.9863C223.142 67.6061 223.037 68.2464 223.037 68.9072C223.037 69.7594 223.16 70.5046 223.406 71.1426C223.657 71.776 224.044 72.25 224.568 72.5645C225.092 72.8789 225.66 73.0361 226.271 73.0361C227.013 73.0361 227.642 72.8219 228.157 72.3936C228.672 71.9652 229.021 71.3294 229.203 70.4863ZM232.02 65.3936V63.9785H233.25V65.3936H232.02ZM232.02 74V66.7402H233.25V74H232.02ZM234.638 71.833L235.854 71.6416C235.923 72.1292 236.112 72.5029 236.422 72.7627C236.736 73.0225 237.174 73.1523 237.734 73.1523C238.299 73.1523 238.719 73.0384 238.992 72.8105C239.266 72.5781 239.402 72.307 239.402 71.9971C239.402 71.7191 239.282 71.5003 239.04 71.3408C238.871 71.2314 238.452 71.0924 237.782 70.9238C236.88 70.696 236.253 70.5 235.902 70.3359C235.556 70.1673 235.292 69.9372 235.109 69.6455C234.932 69.3493 234.843 69.0234 234.843 68.668C234.843 68.3444 234.916 68.0459 235.062 67.7725C235.212 67.4945 235.415 67.2643 235.67 67.082C235.861 66.9408 236.121 66.8223 236.449 66.7266C236.782 66.6263 237.137 66.5762 237.516 66.5762C238.085 66.5762 238.584 66.6582 239.013 66.8223C239.446 66.9863 239.765 67.2096 239.97 67.4922C240.175 67.7702 240.316 68.1439 240.394 68.6133L239.19 68.7773C239.136 68.4036 238.976 68.112 238.712 67.9023C238.452 67.6927 238.083 67.5879 237.604 67.5879C237.039 67.5879 236.636 67.6813 236.395 67.8682C236.153 68.055 236.032 68.2738 236.032 68.5244C236.032 68.6839 236.082 68.8275 236.183 68.9551C236.283 69.0872 236.44 69.1966 236.654 69.2832C236.777 69.3288 237.14 69.4336 237.741 69.5977C238.612 69.8301 239.218 70.0215 239.56 70.1719C239.906 70.3177 240.177 70.5319 240.373 70.8145C240.569 71.097 240.667 71.4479 240.667 71.8672C240.667 72.2773 240.546 72.6647 240.305 73.0293C240.068 73.3893 239.724 73.6696 239.272 73.8701C238.821 74.0661 238.311 74.1641 237.741 74.1641C236.798 74.1641 236.078 73.9681 235.581 73.5762C235.089 73.1842 234.774 72.6032 234.638 71.833ZM246.867 71.3408L248.077 71.498C247.945 72.332 247.605 72.986 247.059 73.46C246.516 73.9294 245.849 74.1641 245.056 74.1641C244.062 74.1641 243.262 73.8405 242.656 73.1934C242.055 72.5417 241.754 71.6097 241.754 70.3975C241.754 69.6136 241.884 68.9277 242.144 68.3398C242.403 67.752 242.798 67.3122 243.326 67.0205C243.859 66.7243 244.438 66.5762 245.062 66.5762C245.851 66.5762 246.496 66.7767 246.997 67.1777C247.498 67.5742 247.82 68.1393 247.961 68.873L246.765 69.0576C246.651 68.57 246.448 68.2031 246.156 67.957C245.869 67.7109 245.521 67.5879 245.11 67.5879C244.491 67.5879 243.987 67.8112 243.6 68.2578C243.212 68.6999 243.019 69.4017 243.019 70.3633C243.019 71.3385 243.205 72.0472 243.579 72.4893C243.953 72.9313 244.44 73.1523 245.042 73.1523C245.525 73.1523 245.928 73.0042 246.252 72.708C246.576 72.4118 246.781 71.9561 246.867 71.3408ZM248.672 70.3701C248.672 69.0257 249.046 68.0299 249.793 67.3828C250.417 66.8451 251.178 66.5762 252.076 66.5762C253.074 66.5762 253.89 66.9043 254.523 67.5605C255.157 68.2122 255.474 69.1146 255.474 70.2676C255.474 71.2018 255.332 71.9378 255.05 72.4756C254.772 73.0088 254.364 73.4235 253.826 73.7197C253.293 74.016 252.71 74.1641 252.076 74.1641C251.06 74.1641 250.237 73.8382 249.608 73.1865C248.984 72.5348 248.672 71.596 248.672 70.3701ZM249.937 70.3701C249.937 71.2998 250.139 71.9971 250.545 72.4619C250.951 72.9222 251.461 73.1523 252.076 73.1523C252.687 73.1523 253.195 72.9199 253.601 72.4551C254.006 71.9902 254.209 71.2816 254.209 70.3291C254.209 69.4313 254.004 68.7523 253.594 68.292C253.188 67.8271 252.682 67.5947 252.076 67.5947C251.461 67.5947 250.951 67.8249 250.545 68.2852C250.139 68.7454 249.937 69.4404 249.937 70.3701Z" fill="white"/>
<g clip-path="url(#clip1)">
<path d="M309.795 79.8551V79.9832H309.423V80.9437H309.27V79.9832H308.898V79.8551H309.795Z" fill="white"/>
<path d="M309.875 79.8551H310.113L310.44 80.7474H310.448L310.767 79.8551H311V80.9437H310.843V80.0514H310.839L310.502 80.9437H310.36L310.036 80.0514H310.028V80.9437H309.875V79.8551Z" fill="white"/>
<path d="M278.68 72.6718H276.574V80.9437H278.68V72.6718Z" fill="white"/>
<path d="M295.65 75.0426C295.565 74.9981 294.888 74.5992 293.879 74.5992C292.521 74.5992 291.574 75.5397 291.574 76.8064C291.574 78.0359 292.48 79.0145 293.879 79.0145C294.869 79.0145 295.56 78.6256 295.65 78.5756V80.7965C295.385 80.8692 294.669 81.0909 293.731 81.0909C291.365 81.0909 289.29 79.4716 289.29 76.8064C289.29 74.3357 291.168 72.5255 293.731 72.5255C294.722 72.5255 295.452 72.7627 295.65 72.8218V75.0426Z" fill="white"/>
<path d="M273.684 75.0426C273.598 74.9981 272.922 74.5992 271.913 74.5992C270.551 74.5992 269.607 75.5397 269.607 76.8064C269.607 78.0359 270.511 79.0145 271.913 79.0145C272.904 79.0145 273.59 78.6256 273.684 78.5756V80.7965C273.42 80.8692 272.702 81.0909 271.761 81.0909C269.397 81.0909 267.322 79.4716 267.322 76.8064C267.322 74.3357 269.202 72.5255 271.761 72.5255C272.752 72.5255 273.483 72.7627 273.684 72.8218V75.0426Z" fill="white"/>
<path d="M306.679 76.8064C306.679 79.1727 304.837 81.0909 302.274 81.0909C299.705 81.0909 297.868 79.1727 297.868 76.8064C297.868 74.4438 299.705 72.5255 302.274 72.5255C304.838 72.5255 306.679 74.4438 306.679 76.8064ZM302.274 74.631C301.023 74.631 300.095 75.6051 300.095 76.8064C300.095 78.0086 301.023 78.9836 302.274 78.9836C303.52 78.9836 304.448 78.0095 304.448 76.8064C304.448 75.606 303.52 74.631 302.274 74.631Z" fill="white"/>
<path d="M286.663 74.551C286.632 74.5419 285.744 74.2993 285.019 74.2993C284.171 74.2993 283.714 74.5792 283.714 74.9763C283.714 75.4806 284.332 75.656 284.678 75.7659L285.26 75.9486C286.628 76.3793 287.251 77.3071 287.251 78.313C287.251 80.3921 285.408 81.09 283.794 81.09C282.674 81.09 281.626 80.8864 281.522 80.8637V78.9609C281.71 79.0064 282.593 79.2672 283.512 79.2672C284.557 79.2672 285.041 78.9646 285.041 78.4948C285.041 78.0749 284.624 77.8351 284.1 77.6715C283.974 77.6297 283.781 77.5706 283.652 77.5261C282.477 77.159 281.5 76.4775 281.5 75.1081C281.5 73.5605 282.67 72.521 284.611 72.521C285.637 72.521 286.601 72.7682 286.663 72.7845V74.551Z" fill="white"/>
<path d="M265.089 63.7812C265.089 63.2132 264.62 62.7507 264.045 62.7507C263.47 62.7498 263 63.2123 263 63.7812V65.9529C263 66.5263 263.47 66.9898 264.045 66.9898C264.62 66.9898 265.089 66.5263 265.089 65.9529V63.7812Z" fill="white"/>
<path d="M270.829 60.9306C270.829 60.3627 270.358 59.8983 269.784 59.8983C269.209 59.8983 268.739 60.3627 268.739 60.9306V65.953C268.739 66.5263 269.209 66.9898 269.784 66.9898C270.358 66.9898 270.829 66.5263 270.829 65.953V60.9306Z" fill="white"/>
<path d="M276.571 57.0323C276.571 56.4625 276.1 56 275.526 56C274.948 56 274.477 56.4625 274.477 57.0323V68.0175C274.477 68.59 274.948 69.0516 275.526 69.0516C276.1 69.0516 276.571 68.59 276.571 68.0175V57.0323Z" fill="white"/>
<path d="M282.306 60.9306C282.306 60.3627 281.84 59.8983 281.262 59.8983C280.688 59.8983 280.217 60.3627 280.217 60.9306V65.953C280.217 66.5263 280.688 66.9898 281.262 66.9898C281.84 66.9898 282.306 66.5263 282.306 65.953V60.9306Z" fill="white"/>
<path d="M288.043 63.7812C288.043 63.2132 287.573 62.7507 287.004 62.7507C286.426 62.7507 285.96 63.2132 285.96 63.7812V65.9529C285.96 66.5263 286.426 66.9898 287.004 66.9898C287.573 66.9898 288.043 66.5263 288.043 65.9529V63.7812Z" fill="white"/>
<path d="M293.785 60.9306C293.785 60.3627 293.319 59.8983 292.74 59.8983C292.166 59.8983 291.701 60.3627 291.701 60.9306V65.953C291.701 66.5263 292.166 66.9898 292.74 66.9898C293.319 66.9898 293.785 66.5263 293.785 65.953V60.9306Z" fill="white"/>
<path d="M299.527 57.0323C299.527 56.4625 299.06 56 298.487 56C297.909 56 297.443 56.4625 297.443 57.0323V68.0175C297.443 68.59 297.909 69.0516 298.487 69.0516C299.06 69.0516 299.527 68.59 299.527 68.0175V57.0323Z" fill="white"/>
<path d="M305.268 60.9306C305.268 60.3627 304.802 59.8983 304.214 59.8983C303.641 59.8983 303.175 60.3627 303.175 60.9306V65.953C303.175 66.5263 303.641 66.9898 304.214 66.9898C304.802 66.9898 305.268 66.5263 305.268 65.953V60.9306Z" fill="white"/>
<path d="M311 63.7812C311 63.2132 310.534 62.7507 309.961 62.7507C309.383 62.7507 308.916 63.2132 308.916 63.7812V65.9529C308.916 66.5263 309.382 66.9898 309.961 66.9898C310.534 66.9898 311 66.5263 311 65.9529V63.7812Z" fill="white"/>
</g>
</g>
<defs>
<clipPath id="clip0">
<rect width="592" height="102" fill="white"/>
</clipPath>
<clipPath id="clip1">
<rect width="48" height="25.0909" fill="white" transform="translate(263 56)"/>
</clipPath>
</defs>
</svg>
