<svg width="592" height="147" viewBox="0 0 592 147" fill="none" xmlns="http://www.w3.org/2000/svg">
<g clip-path="url(#clip0)">
<path d="M462 0H-10V181H349.557L462 0Z" fill="#1B3051"/>
<path fill-rule="evenodd" clip-rule="evenodd" d="M251.327 62.9844C253.681 61.6786 256.497 59.9409 258.797 57.0227C256.519 54.2021 253.358 52.5471 251.023 51.27C256.664 50.0297 261.579 55.594 261.579 55.594L262.899 57.0434L261.596 58.5111C256.446 64.0525 251.327 62.9844 251.327 62.9844" fill="#FB7C32"/>
<path fill-rule="evenodd" clip-rule="evenodd" d="M251.762 57.122C251.762 58.5783 250.58 59.7578 249.123 59.7578C247.665 59.7578 246.483 58.5783 246.483 57.122C246.483 55.6658 247.665 54.4863 249.123 54.4863C250.58 54.4863 251.762 55.6658 251.762 57.122" fill="white"/>
<path fill-rule="evenodd" clip-rule="evenodd" d="M239.923 57.0222C241.675 59.3352 246.558 64.9363 252.758 64.9363C257.028 64.9363 261.287 62.2753 265.428 57.0234C261.29 51.9012 257.031 49.3057 252.758 49.3057C246.563 49.3057 241.685 54.754 239.923 57.0222M252.758 68.5528C242.978 68.5528 236.439 58.4084 236.164 57.9755L235.546 56.9981L236.175 56.0265C236.449 55.605 242.992 45.6903 252.758 45.6903C258.519 45.6903 264.038 49.1323 269.159 55.9209L269.97 56.997L269.17 58.0811C264.049 65.0293 258.527 68.5528 252.758 68.5528" fill="#FB7C32"/>
<path fill-rule="evenodd" clip-rule="evenodd" d="M245.308 68.545C235.772 68.251 229.622 58.326 229.353 57.8999L228.845 56.9111L229.438 55.9509C229.707 55.5363 235.749 46.0374 245.23 45.6986C237.867 49.0739 232.747 57.096 232.747 57.096C232.747 57.096 237.042 64.2923 245.308 68.545" fill="#FB7C32"/>
<path fill-rule="evenodd" clip-rule="evenodd" d="M218.788 64.2612C219.215 64.2612 220.465 65.1812 222.01 65.1812C223.391 65.1812 224.015 64.6885 224.015 63.7031C224.015 60.8136 217.44 62.5213 217.44 56.6435C217.44 53.3589 219.775 51.3226 223.49 51.3226C224.574 51.3226 228.354 51.5523 228.354 53.3922C228.354 53.8182 227.599 55.8223 226.941 55.8223C226.612 55.8223 225.626 55.1321 224.146 55.1321C223.029 55.1321 222.372 55.4939 222.372 56.3139C222.372 58.7119 228.946 57.4635 228.946 63.3092C228.946 66.758 226.481 69.0239 222.799 69.0239C219.939 69.0239 217.045 68.2682 217.045 66.6914C217.045 66.0345 218.097 64.2612 218.788 64.2612" fill="#FB7C32"/>
<path fill-rule="evenodd" clip-rule="evenodd" d="M170.103 47.0864C170.103 46.1665 170.498 45.7725 171.419 45.7725H183.452C184.141 45.7725 184.437 46.2652 184.437 47.4149V48.4324C184.437 49.582 184.141 50.0747 183.452 50.0747H175.167V54.8362H182.564C183.254 54.8362 183.55 55.3289 183.55 56.4785V57.4961C183.55 58.6457 183.254 59.1384 182.564 59.1384H175.167V64.4581H183.484C184.175 64.4581 184.471 64.9508 184.471 66.1004V67.1179C184.471 68.2676 184.175 68.7603 183.484 68.7603H171.419C170.498 68.7603 170.103 68.3663 170.103 67.4464V47.0864Z" fill="#FB7C32"/>
<path fill-rule="evenodd" clip-rule="evenodd" d="M185.587 52.8333C185.521 52.6036 185.454 52.4061 185.454 52.2419C185.454 51.7825 186.079 51.5195 187.46 51.5195H188.513C189.466 51.5195 190.189 51.6837 190.354 52.2097L192.293 58.2851C192.523 59.0396 192.918 60.8462 193.214 62.2576H193.345C193.642 60.8462 194.036 59.0075 194.266 58.2851L196.205 52.2097C196.37 51.6837 197.093 51.5195 198.047 51.5195H198.835C200.216 51.5195 200.808 51.7825 200.808 52.2419C200.808 52.4061 200.775 52.6036 200.709 52.8333L193.181 74.8356C192.983 75.3616 192.293 75.5247 191.34 75.5247H190.781C189.434 75.5247 188.808 75.2629 188.808 74.8356C188.808 74.6714 188.842 74.475 188.939 74.2442L191.011 68.7603L185.587 52.8333Z" fill="#FB7C32"/>
<path fill-rule="evenodd" clip-rule="evenodd" d="M211.36 58.4819C211.36 56.5778 210.637 55.1652 208.993 55.1652C207.612 55.1652 206.429 55.953 206.035 58.4819H211.36ZM208.993 51.3224C214.154 51.3224 216.095 55.2306 216.095 59.7958C216.095 60.3539 214.845 61.7332 214.418 61.7332H206.035C206.264 64.3598 207.679 65.1809 209.815 65.1809C211.887 65.1809 213.332 64.1634 213.793 64.1634C214.516 64.1634 215.503 66.0021 215.503 66.659C215.503 68.3002 211.426 69.0237 209.585 69.0237C203.634 69.0237 201.005 65.5749 201.005 60.2885C201.005 53.8192 204.292 51.3224 208.993 51.3224V51.3224Z" fill="#FB7C32"/>
<path fill-rule="evenodd" clip-rule="evenodd" d="M161.591 63.1123V55.7897C161.065 55.4934 160.309 55.1649 159.289 55.1649C157.218 55.1649 156.232 56.8727 156.232 60.1573C156.232 63.342 157.086 65.0498 158.894 65.0498C160.144 65.0498 160.998 64.1299 161.591 63.1123M151.3 60.1573C151.3 54.8043 153.799 51.3233 158.237 51.3233C159.782 51.3233 160.9 51.8482 161.591 52.3409V45.0504C161.591 44.3613 162.182 44.0007 163.562 44.0007H164.483C165.864 44.0007 166.456 44.3613 166.456 45.0504V62.9802C166.456 66.3636 166.851 67.0527 166.851 67.7429C166.851 68.5308 163.99 68.7938 163.168 68.7938C162.116 68.7938 162.05 67.4145 161.853 66.56C161.097 67.9726 159.486 69.0235 157.448 69.0235C153.898 69.0235 151.3 65.8709 151.3 60.1573" fill="white"/>
<path fill-rule="evenodd" clip-rule="evenodd" d="M134.961 57.3649C134.961 54.0815 134.567 53.3912 134.567 52.7355C134.567 51.9465 137.428 51.6835 138.249 51.6835C139.301 51.6835 139.367 52.9973 139.564 53.8185C140.518 52.5712 142.326 51.3229 144.463 51.3229C147.75 51.3229 149.295 52.9973 149.295 56.6426V67.7758C149.295 68.4649 148.703 68.8266 147.322 68.8266H146.403C145.022 68.8266 144.43 68.4649 144.43 67.7758V57.3649C144.43 56.0844 143.904 55.3287 142.458 55.3287C141.109 55.3287 140.222 56.4783 139.827 57.234V67.7758C139.827 68.4649 139.235 68.8266 137.854 68.8266H136.934C135.554 68.8266 134.961 68.4649 134.961 67.7758V57.3649Z" fill="white"/>
<path fill-rule="evenodd" clip-rule="evenodd" d="M123.522 65.1809C124.77 65.1809 125.955 64.2943 126.48 63.1126V61.306C123.357 61.306 121.878 62.1593 121.878 63.7362C121.878 64.5573 122.437 65.1809 123.522 65.1809M126.48 58.1213V57.0372C126.48 55.7888 125.725 55.1652 123.916 55.1652C121.517 55.1652 120.102 56.216 119.708 56.216C119.018 56.216 117.998 54.2785 117.998 53.5883C117.998 52.472 120.629 51.3224 124.278 51.3224C129.473 51.3224 131.346 53.6216 131.346 56.8075V62.9805C131.346 66.3627 131.741 67.0529 131.741 67.742C131.741 68.5299 128.881 68.7929 128.059 68.7929C127.007 68.7929 126.941 67.4136 126.743 66.5269C126.513 66.9542 124.935 69.0237 121.911 69.0237C118.36 69.0237 117.045 66.9209 117.045 64.2289C117.045 61.5357 118.13 58.1213 126.48 58.1213" fill="white"/>
<path fill-rule="evenodd" clip-rule="evenodd" d="M104.85 64.2612C105.278 64.2612 106.526 65.1812 108.071 65.1812C109.452 65.1812 110.077 64.6885 110.077 63.7031C110.077 60.8136 103.502 62.5213 103.502 56.6435C103.502 53.3589 105.836 51.3226 109.551 51.3226C110.635 51.3226 114.417 51.5523 114.417 53.3922C114.417 53.8182 113.66 55.8223 113.003 55.8223C112.674 55.8223 111.687 55.1321 110.209 55.1321C109.09 55.1321 108.434 55.4939 108.434 56.3139C108.434 58.7119 115.008 57.4635 115.008 63.3092C115.008 66.758 112.543 69.0239 108.86 69.0239C106.001 69.0239 103.107 68.2682 103.107 66.6914C103.107 66.0345 104.159 64.2612 104.85 64.2612" fill="white"/>
<path fill-rule="evenodd" clip-rule="evenodd" d="M86.3746 52.5708C86.3746 51.8805 86.9667 51.5199 88.3476 51.5199H89.2674C90.6483 51.5199 91.2404 51.8805 91.2404 52.5708V62.9805C91.2404 64.261 91.7658 65.0167 93.2134 65.0167C94.5609 65.0167 95.4485 63.8671 95.8429 63.1125V52.5708C95.8429 51.8805 96.435 51.5199 97.8158 51.5199H98.7357C100.117 51.5199 100.709 51.8805 100.709 52.5708V62.9805C100.709 66.3627 101.103 67.0529 101.103 67.742C101.103 68.5299 98.2436 68.7929 97.4203 68.7929C96.3695 68.7929 96.3028 67.4136 96.1062 66.5269C95.153 67.7753 93.3444 69.0237 91.207 69.0237C87.9199 69.0237 86.3746 67.3481 86.3746 63.7029V52.5708Z" fill="white"/>
<path fill-rule="evenodd" clip-rule="evenodd" d="M78.7822 60.157C78.7822 56.8735 77.8612 55.1657 75.7572 55.1657C73.6531 55.1657 72.7 56.8735 72.7 60.157C72.7 63.4404 73.6531 65.1815 75.7572 65.1815C77.8612 65.1815 78.7822 63.4404 78.7822 60.157M75.7572 51.323C80.9851 51.323 83.7135 54.4422 83.7135 60.157C83.7135 65.8706 80.9851 69.0243 75.7572 69.0243C70.5304 69.0243 67.7686 65.8706 67.7686 60.157C67.7686 54.4422 70.5304 51.323 75.7572 51.323" fill="white"/>
<path fill-rule="evenodd" clip-rule="evenodd" d="M51.2992 45.0508C51.2992 44.3618 51.8913 44 53.2721 44H54.192C55.5728 44 56.1649 44.3618 56.1649 45.0508V53.5564C57.1836 52.3413 58.8278 51.3226 60.8008 51.3226C64.0879 51.3226 65.7643 52.9982 65.7643 56.6435V67.7756C65.7643 68.4646 65.1721 68.8264 63.7924 68.8264H62.8715C61.4906 68.8264 60.8985 68.4646 60.8985 67.7756V57.3647C60.8985 56.0842 60.242 55.3296 58.7944 55.3296C57.4469 55.3296 56.5593 56.4792 56.1649 57.2338V67.7756C56.1649 68.4646 55.5728 68.8264 54.192 68.8264H53.2721C51.8913 68.8264 51.2992 68.4646 51.2992 67.7756V45.0508Z" fill="white"/>
<path fill-rule="evenodd" clip-rule="evenodd" d="M38.2133 50.0748H32.9865C32.2955 50.0748 32 49.5821 32 48.4325V47.415C32 46.2654 32.2955 45.7727 32.9865 45.7727H48.5358C49.2268 45.7727 49.5223 46.2654 49.5223 47.415V48.4325C49.5223 49.5821 49.2268 50.0748 48.5358 50.0748H43.309V67.775C43.309 68.4641 42.718 68.8258 41.3372 68.8258H40.1863C38.8054 68.8258 38.2133 68.4641 38.2133 67.775V50.0748Z" fill="white"/>
<path d="M36.1221 97V88.1611H32.8203V86.9785H40.7637V88.1611H37.4482V97H36.1221ZM41.9736 97V86.9785H43.2041V90.5742C43.7783 89.9089 44.5029 89.5762 45.3779 89.5762C45.9157 89.5762 46.3828 89.6833 46.7793 89.8975C47.1758 90.1071 47.4583 90.3988 47.627 90.7725C47.8001 91.1462 47.8867 91.6885 47.8867 92.3994V97H46.6562V92.3994C46.6562 91.7842 46.5218 91.3376 46.2529 91.0596C45.9886 90.777 45.6126 90.6357 45.125 90.6357C44.7604 90.6357 44.4163 90.7314 44.0928 90.9229C43.7738 91.1097 43.5459 91.3649 43.4092 91.6885C43.2725 92.012 43.2041 92.4587 43.2041 93.0283V97H41.9736ZM49.3086 93.3701C49.3086 92.0257 49.6823 91.0299 50.4297 90.3828C51.054 89.8451 51.8151 89.5762 52.7129 89.5762C53.7109 89.5762 54.5267 89.9043 55.1602 90.5605C55.7936 91.2122 56.1104 92.1146 56.1104 93.2676C56.1104 94.2018 55.9691 94.9378 55.6865 95.4756C55.4085 96.0088 55.0007 96.4235 54.4629 96.7197C53.9297 97.016 53.3464 97.1641 52.7129 97.1641C51.6966 97.1641 50.874 96.8382 50.2451 96.1865C49.6208 95.5348 49.3086 94.596 49.3086 93.3701ZM50.5732 93.3701C50.5732 94.2998 50.776 94.9971 51.1816 95.4619C51.5872 95.9222 52.0977 96.1523 52.7129 96.1523C53.3236 96.1523 53.8317 95.9199 54.2373 95.4551C54.6429 94.9902 54.8457 94.2816 54.8457 93.3291C54.8457 92.4313 54.6406 91.7523 54.2305 91.292C53.8249 90.8271 53.319 90.5947 52.7129 90.5947C52.0977 90.5947 51.5872 90.8249 51.1816 91.2852C50.776 91.7454 50.5732 92.4404 50.5732 93.3701ZM62.3174 97V95.9336C61.7523 96.7539 60.9844 97.1641 60.0137 97.1641C59.5853 97.1641 59.1842 97.082 58.8105 96.918C58.4414 96.7539 58.1657 96.5488 57.9834 96.3027C57.8057 96.0521 57.6803 95.7467 57.6074 95.3867C57.5573 95.1452 57.5322 94.7624 57.5322 94.2383V89.7402H58.7627V93.7666C58.7627 94.4092 58.7878 94.8421 58.8379 95.0654C58.9154 95.389 59.0794 95.6442 59.3301 95.8311C59.5807 96.0133 59.8906 96.1045 60.2598 96.1045C60.6289 96.1045 60.9753 96.0111 61.2988 95.8242C61.6224 95.6328 61.8503 95.3753 61.9824 95.0518C62.1191 94.7236 62.1875 94.2497 62.1875 93.6299V89.7402H63.418V97H62.3174ZM64.8604 94.833L66.0771 94.6416C66.1455 95.1292 66.3346 95.5029 66.6445 95.7627C66.959 96.0225 67.3965 96.1523 67.957 96.1523C68.5221 96.1523 68.9414 96.0384 69.2148 95.8105C69.4883 95.5781 69.625 95.307 69.625 94.9971C69.625 94.7191 69.5042 94.5003 69.2627 94.3408C69.0941 94.2314 68.6748 94.0924 68.0049 93.9238C67.1025 93.696 66.4759 93.5 66.125 93.3359C65.7786 93.1673 65.5143 92.9372 65.332 92.6455C65.1543 92.3493 65.0654 92.0234 65.0654 91.668C65.0654 91.3444 65.1383 91.0459 65.2842 90.7725C65.4346 90.4945 65.6374 90.2643 65.8926 90.082C66.084 89.9408 66.3438 89.8223 66.6719 89.7266C67.0046 89.6263 67.36 89.5762 67.7383 89.5762C68.3079 89.5762 68.807 89.6582 69.2354 89.8223C69.6683 89.9863 69.9873 90.2096 70.1924 90.4922C70.3975 90.7702 70.5387 91.1439 70.6162 91.6133L69.4131 91.7773C69.3584 91.4036 69.1989 91.112 68.9346 90.9023C68.6748 90.6927 68.3057 90.5879 67.8271 90.5879C67.262 90.5879 66.8587 90.6813 66.6172 90.8682C66.3757 91.055 66.2549 91.2738 66.2549 91.5244C66.2549 91.6839 66.305 91.8275 66.4053 91.9551C66.5055 92.0872 66.6628 92.1966 66.877 92.2832C67 92.3288 67.3623 92.4336 67.9639 92.5977C68.8343 92.8301 69.4404 93.0215 69.7822 93.1719C70.1286 93.3177 70.3997 93.5319 70.5957 93.8145C70.7917 94.097 70.8896 94.4479 70.8896 94.8672C70.8896 95.2773 70.7689 95.6647 70.5273 96.0293C70.2904 96.3893 69.9463 96.6696 69.4951 96.8701C69.0439 97.0661 68.5335 97.1641 67.9639 97.1641C67.0205 97.1641 66.3005 96.9681 65.8037 96.5762C65.3115 96.1842 64.9971 95.6032 64.8604 94.833ZM77.0898 96.1045C76.6341 96.4919 76.1943 96.7653 75.7705 96.9248C75.3512 97.0843 74.9001 97.1641 74.417 97.1641C73.6195 97.1641 73.0065 96.9704 72.5781 96.583C72.1497 96.1911 71.9355 95.6921 71.9355 95.0859C71.9355 94.7305 72.0153 94.4069 72.1748 94.1152C72.3389 93.819 72.5508 93.582 72.8105 93.4043C73.0749 93.2266 73.3711 93.0921 73.6992 93.001C73.9408 92.9372 74.3053 92.8757 74.793 92.8164C75.7865 92.6979 76.5179 92.5566 76.9873 92.3926C76.9919 92.224 76.9941 92.1169 76.9941 92.0713C76.9941 91.57 76.8779 91.2168 76.6455 91.0117C76.3311 90.7337 75.8639 90.5947 75.2441 90.5947C74.6654 90.5947 74.237 90.6973 73.959 90.9023C73.6855 91.1029 73.4827 91.4606 73.3506 91.9756L72.1475 91.8115C72.2568 91.2965 72.4368 90.8818 72.6875 90.5674C72.9382 90.2484 73.3005 90.0046 73.7744 89.8359C74.2484 89.6628 74.7975 89.5762 75.4219 89.5762C76.0417 89.5762 76.5452 89.6491 76.9326 89.7949C77.32 89.9408 77.6048 90.1253 77.7871 90.3486C77.9694 90.5674 78.097 90.8454 78.1699 91.1826C78.2109 91.3923 78.2314 91.7705 78.2314 92.3174V93.958C78.2314 95.1019 78.2565 95.8265 78.3066 96.1318C78.3613 96.4326 78.4661 96.722 78.6211 97H77.3359C77.2083 96.7448 77.1263 96.4463 77.0898 96.1045ZM76.9873 93.3564C76.5407 93.5387 75.8708 93.6937 74.9775 93.8213C74.4717 93.8942 74.1139 93.9762 73.9043 94.0674C73.6947 94.1585 73.5329 94.293 73.4189 94.4707C73.305 94.6439 73.248 94.8376 73.248 95.0518C73.248 95.3799 73.3711 95.6533 73.6172 95.8721C73.8678 96.0908 74.2324 96.2002 74.7109 96.2002C75.1849 96.2002 75.6064 96.0977 75.9756 95.8926C76.3447 95.6829 76.6159 95.3981 76.7891 95.0381C76.9212 94.7601 76.9873 94.3499 76.9873 93.8076V93.3564ZM80.1455 97V89.7402H81.2529V90.7725C81.7861 89.9749 82.5563 89.5762 83.5635 89.5762C84.001 89.5762 84.402 89.6559 84.7666 89.8154C85.1357 89.9704 85.4115 90.1755 85.5938 90.4307C85.776 90.6859 85.9036 90.9889 85.9766 91.3398C86.0221 91.5677 86.0449 91.9665 86.0449 92.5361V97H84.8145V92.584C84.8145 92.0827 84.7666 91.709 84.6709 91.4629C84.5752 91.2122 84.4043 91.014 84.1582 90.8682C83.9167 90.7178 83.6318 90.6426 83.3037 90.6426C82.7796 90.6426 82.3262 90.8089 81.9434 91.1416C81.5651 91.4743 81.376 92.1055 81.376 93.0352V97H80.1455ZM92.6484 97V96.084C92.1882 96.804 91.5114 97.1641 90.6182 97.1641C90.0394 97.1641 89.5062 97.0046 89.0186 96.6855C88.5355 96.3665 88.1595 95.9222 87.8906 95.3525C87.6263 94.7783 87.4941 94.1198 87.4941 93.377C87.4941 92.6523 87.6149 91.9961 87.8564 91.4082C88.098 90.8158 88.4603 90.3623 88.9434 90.0479C89.4264 89.7334 89.9665 89.5762 90.5635 89.5762C91.001 89.5762 91.3906 89.6696 91.7324 89.8564C92.0742 90.0387 92.3522 90.278 92.5664 90.5742V86.9785H93.79V97H92.6484ZM88.7588 93.377C88.7588 94.3066 88.9548 95.0016 89.3467 95.4619C89.7386 95.9222 90.2012 96.1523 90.7344 96.1523C91.2721 96.1523 91.7279 95.9336 92.1016 95.4961C92.4798 95.054 92.6689 94.3818 92.6689 93.4795C92.6689 92.486 92.4775 91.7568 92.0947 91.292C91.7119 90.8271 91.2402 90.5947 90.6797 90.5947C90.1328 90.5947 89.6748 90.818 89.3057 91.2646C88.9411 91.7113 88.7588 92.4154 88.7588 93.377ZM95.916 97V86.9785H103.162V88.1611H97.2422V91.2305H102.786V92.4062H97.2422V95.8174H103.395V97H95.916ZM105.015 99.7959L104.878 98.6406C105.147 98.7135 105.382 98.75 105.582 98.75C105.855 98.75 106.074 98.7044 106.238 98.6133C106.402 98.5221 106.537 98.3945 106.642 98.2305C106.719 98.1074 106.844 97.8021 107.018 97.3145C107.04 97.2461 107.077 97.1458 107.127 97.0137L104.372 89.7402H105.698L107.209 93.9443C107.405 94.4775 107.58 95.0381 107.735 95.626C107.877 95.0609 108.045 94.5094 108.241 93.9717L109.793 89.7402H111.023L108.262 97.123C107.965 97.9206 107.735 98.4697 107.571 98.7705C107.353 99.1761 107.102 99.4723 106.819 99.6592C106.537 99.8506 106.2 99.9463 105.808 99.9463C105.571 99.9463 105.306 99.8962 105.015 99.7959ZM117.039 94.6621L118.311 94.8193C118.11 95.5622 117.739 96.1387 117.196 96.5488C116.654 96.959 115.961 97.1641 115.118 97.1641C114.056 97.1641 113.213 96.8382 112.589 96.1865C111.969 95.5303 111.659 94.612 111.659 93.4316C111.659 92.2103 111.974 91.2624 112.603 90.5879C113.231 89.9134 114.047 89.5762 115.05 89.5762C116.021 89.5762 116.813 89.9066 117.429 90.5674C118.044 91.2282 118.352 92.1579 118.352 93.3564C118.352 93.4294 118.349 93.5387 118.345 93.6846H112.931C112.976 94.4821 113.202 95.0928 113.607 95.5166C114.013 95.9404 114.519 96.1523 115.125 96.1523C115.576 96.1523 115.961 96.0339 116.28 95.7969C116.599 95.5599 116.852 95.1816 117.039 94.6621ZM112.999 92.6729H117.053C116.998 92.0622 116.843 91.6042 116.588 91.2988C116.196 90.8249 115.688 90.5879 115.063 90.5879C114.498 90.5879 114.022 90.777 113.635 91.1553C113.252 91.5335 113.04 92.0394 112.999 92.6729ZM119.37 94.833L120.587 94.6416C120.655 95.1292 120.844 95.5029 121.154 95.7627C121.469 96.0225 121.906 96.1523 122.467 96.1523C123.032 96.1523 123.451 96.0384 123.725 95.8105C123.998 95.5781 124.135 95.307 124.135 94.9971C124.135 94.7191 124.014 94.5003 123.772 94.3408C123.604 94.2314 123.185 94.0924 122.515 93.9238C121.612 93.696 120.986 93.5 120.635 93.3359C120.288 93.1673 120.024 92.9372 119.842 92.6455C119.664 92.3493 119.575 92.0234 119.575 91.668C119.575 91.3444 119.648 91.0459 119.794 90.7725C119.944 90.4945 120.147 90.2643 120.402 90.082C120.594 89.9408 120.854 89.8223 121.182 89.7266C121.514 89.6263 121.87 89.5762 122.248 89.5762C122.818 89.5762 123.317 89.6582 123.745 89.8223C124.178 89.9863 124.497 90.2096 124.702 90.4922C124.907 90.7702 125.049 91.1439 125.126 91.6133L123.923 91.7773C123.868 91.4036 123.709 91.112 123.444 90.9023C123.185 90.6927 122.815 90.5879 122.337 90.5879C121.772 90.5879 121.368 90.6813 121.127 90.8682C120.885 91.055 120.765 91.2738 120.765 91.5244C120.765 91.6839 120.815 91.8275 120.915 91.9551C121.015 92.0872 121.173 92.1966 121.387 92.2832C121.51 92.3288 121.872 92.4336 122.474 92.5977C123.344 92.8301 123.95 93.0215 124.292 93.1719C124.638 93.3177 124.91 93.5319 125.105 93.8145C125.301 94.097 125.399 94.4479 125.399 94.8672C125.399 95.2773 125.279 95.6647 125.037 96.0293C124.8 96.3893 124.456 96.6696 124.005 96.8701C123.554 97.0661 123.043 97.1641 122.474 97.1641C121.53 97.1641 120.81 96.9681 120.313 96.5762C119.821 96.1842 119.507 95.6032 119.37 94.833ZM130.766 88.3936V86.9785H131.996V88.3936H130.766ZM130.766 97V89.7402H131.996V97H130.766ZM133.384 94.833L134.601 94.6416C134.669 95.1292 134.858 95.5029 135.168 95.7627C135.482 96.0225 135.92 96.1523 136.48 96.1523C137.046 96.1523 137.465 96.0384 137.738 95.8105C138.012 95.5781 138.148 95.307 138.148 94.9971C138.148 94.7191 138.028 94.5003 137.786 94.3408C137.618 94.2314 137.198 94.0924 136.528 93.9238C135.626 93.696 134.999 93.5 134.648 93.3359C134.302 93.1673 134.038 92.9372 133.855 92.6455C133.678 92.3493 133.589 92.0234 133.589 91.668C133.589 91.3444 133.662 91.0459 133.808 90.7725C133.958 90.4945 134.161 90.2643 134.416 90.082C134.607 89.9408 134.867 89.8223 135.195 89.7266C135.528 89.6263 135.883 89.5762 136.262 89.5762C136.831 89.5762 137.33 89.6582 137.759 89.8223C138.192 89.9863 138.511 90.2096 138.716 90.4922C138.921 90.7702 139.062 91.1439 139.14 91.6133L137.937 91.7773C137.882 91.4036 137.722 91.112 137.458 90.9023C137.198 90.6927 136.829 90.5879 136.351 90.5879C135.785 90.5879 135.382 90.6813 135.141 90.8682C134.899 91.055 134.778 91.2738 134.778 91.5244C134.778 91.6839 134.828 91.8275 134.929 91.9551C135.029 92.0872 135.186 92.1966 135.4 92.2832C135.523 92.3288 135.886 92.4336 136.487 92.5977C137.358 92.8301 137.964 93.0215 138.306 93.1719C138.652 93.3177 138.923 93.5319 139.119 93.8145C139.315 94.097 139.413 94.4479 139.413 94.8672C139.413 95.2773 139.292 95.6647 139.051 96.0293C138.814 96.3893 138.47 96.6696 138.019 96.8701C137.567 97.0661 137.057 97.1641 136.487 97.1641C135.544 97.1641 134.824 96.9681 134.327 96.5762C133.835 96.1842 133.521 95.6032 133.384 94.833ZM148.669 97V89.7402H149.776V90.7725C150.31 89.9749 151.08 89.5762 152.087 89.5762C152.524 89.5762 152.925 89.6559 153.29 89.8154C153.659 89.9704 153.935 90.1755 154.117 90.4307C154.299 90.6859 154.427 90.9889 154.5 91.3398C154.546 91.5677 154.568 91.9665 154.568 92.5361V97H153.338V92.584C153.338 92.0827 153.29 91.709 153.194 91.4629C153.099 91.2122 152.928 91.014 152.682 90.8682C152.44 90.7178 152.155 90.6426 151.827 90.6426C151.303 90.6426 150.85 90.8089 150.467 91.1416C150.089 91.4743 149.899 92.1055 149.899 93.0352V97H148.669ZM156.004 93.3701C156.004 92.0257 156.378 91.0299 157.125 90.3828C157.749 89.8451 158.51 89.5762 159.408 89.5762C160.406 89.5762 161.222 89.9043 161.855 90.5605C162.489 91.2122 162.806 92.1146 162.806 93.2676C162.806 94.2018 162.664 94.9378 162.382 95.4756C162.104 96.0088 161.696 96.4235 161.158 96.7197C160.625 97.016 160.042 97.1641 159.408 97.1641C158.392 97.1641 157.569 96.8382 156.94 96.1865C156.316 95.5348 156.004 94.596 156.004 93.3701ZM157.269 93.3701C157.269 94.2998 157.471 94.9971 157.877 95.4619C158.283 95.9222 158.793 96.1523 159.408 96.1523C160.019 96.1523 160.527 95.9199 160.933 95.4551C161.338 94.9902 161.541 94.2816 161.541 93.3291C161.541 92.4313 161.336 91.7523 160.926 91.292C160.52 90.8271 160.014 90.5947 159.408 90.5947C158.793 90.5947 158.283 90.8249 157.877 91.2852C157.471 91.7454 157.269 92.4404 157.269 93.3701ZM165.595 97L163.373 89.7402H164.645L165.8 93.9307L166.23 95.4893C166.249 95.4118 166.374 94.9128 166.606 93.9922L167.762 89.7402H169.026L170.113 93.9512L170.476 95.3389L170.893 93.9375L172.137 89.7402H173.333L171.063 97H169.785L168.63 92.6523L168.35 91.415L166.88 97H165.595ZM178.269 99.7822V89.7402H179.39V90.6836C179.654 90.3145 179.952 90.0387 180.285 89.8564C180.618 89.6696 181.021 89.5762 181.495 89.5762C182.115 89.5762 182.662 89.7357 183.136 90.0547C183.61 90.3737 183.967 90.8249 184.209 91.4082C184.451 91.987 184.571 92.6227 184.571 93.3154C184.571 94.0583 184.437 94.7282 184.168 95.3252C183.904 95.9176 183.516 96.3734 183.006 96.6924C182.5 97.0068 181.967 97.1641 181.406 97.1641C180.996 97.1641 180.627 97.0775 180.299 96.9043C179.975 96.7311 179.709 96.5124 179.499 96.248V99.7822H178.269ZM179.383 93.4111C179.383 94.3454 179.572 95.0358 179.95 95.4824C180.328 95.929 180.786 96.1523 181.324 96.1523C181.871 96.1523 182.338 95.9222 182.726 95.4619C183.118 94.9971 183.313 94.2793 183.313 93.3086C183.313 92.3835 183.122 91.6908 182.739 91.2305C182.361 90.7702 181.908 90.54 181.379 90.54C180.855 90.54 180.39 90.7861 179.984 91.2783C179.583 91.766 179.383 92.4769 179.383 93.4111ZM190.799 96.1045C190.343 96.4919 189.903 96.7653 189.479 96.9248C189.06 97.0843 188.609 97.1641 188.126 97.1641C187.328 97.1641 186.715 96.9704 186.287 96.583C185.859 96.1911 185.645 95.6921 185.645 95.0859C185.645 94.7305 185.724 94.4069 185.884 94.1152C186.048 93.819 186.26 93.582 186.52 93.4043C186.784 93.2266 187.08 93.0921 187.408 93.001C187.65 92.9372 188.014 92.8757 188.502 92.8164C189.495 92.6979 190.227 92.5566 190.696 92.3926C190.701 92.224 190.703 92.1169 190.703 92.0713C190.703 91.57 190.587 91.2168 190.354 91.0117C190.04 90.7337 189.573 90.5947 188.953 90.5947C188.374 90.5947 187.946 90.6973 187.668 90.9023C187.395 91.1029 187.192 91.4606 187.06 91.9756L185.856 91.8115C185.966 91.2965 186.146 90.8818 186.396 90.5674C186.647 90.2484 187.009 90.0046 187.483 89.8359C187.957 89.6628 188.507 89.5762 189.131 89.5762C189.751 89.5762 190.254 89.6491 190.642 89.7949C191.029 89.9408 191.314 90.1253 191.496 90.3486C191.678 90.5674 191.806 90.8454 191.879 91.1826C191.92 91.3923 191.94 91.7705 191.94 92.3174V93.958C191.94 95.1019 191.965 95.8265 192.016 96.1318C192.07 96.4326 192.175 96.722 192.33 97H191.045C190.917 96.7448 190.835 96.4463 190.799 96.1045ZM190.696 93.3564C190.25 93.5387 189.58 93.6937 188.687 93.8213C188.181 93.8942 187.823 93.9762 187.613 94.0674C187.404 94.1585 187.242 94.293 187.128 94.4707C187.014 94.6439 186.957 94.8376 186.957 95.0518C186.957 95.3799 187.08 95.6533 187.326 95.8721C187.577 96.0908 187.941 96.2002 188.42 96.2002C188.894 96.2002 189.315 96.0977 189.685 95.8926C190.054 95.6829 190.325 95.3981 190.498 95.0381C190.63 94.7601 190.696 94.3499 190.696 93.8076V93.3564ZM193.841 97V89.7402H194.948V90.8408C195.231 90.3258 195.491 89.9863 195.728 89.8223C195.969 89.6582 196.233 89.5762 196.521 89.5762C196.935 89.5762 197.357 89.7083 197.785 89.9727L197.361 91.1143C197.061 90.9365 196.76 90.8477 196.459 90.8477C196.19 90.8477 195.949 90.9297 195.734 91.0938C195.52 91.2533 195.368 91.4766 195.276 91.7637C195.14 92.2012 195.071 92.6797 195.071 93.1992V97H193.841ZM201.203 95.8994L201.381 96.9863C201.035 97.0592 200.725 97.0957 200.451 97.0957C200.005 97.0957 199.658 97.0251 199.412 96.8838C199.166 96.7425 198.993 96.5579 198.893 96.3301C198.792 96.0977 198.742 95.6123 198.742 94.874V90.6973H197.84V89.7402H198.742V87.9424L199.966 87.2041V89.7402H201.203V90.6973H199.966V94.9424C199.966 95.2933 199.986 95.5189 200.027 95.6191C200.073 95.7194 200.144 95.7992 200.239 95.8584C200.34 95.9176 200.481 95.9473 200.663 95.9473C200.8 95.9473 200.98 95.9313 201.203 95.8994ZM205.852 93.3701C205.852 92.0257 206.225 91.0299 206.973 90.3828C207.597 89.8451 208.358 89.5762 209.256 89.5762C210.254 89.5762 211.07 89.9043 211.703 90.5605C212.337 91.2122 212.653 92.1146 212.653 93.2676C212.653 94.2018 212.512 94.9378 212.229 95.4756C211.951 96.0088 211.544 96.4235 211.006 96.7197C210.473 97.016 209.889 97.1641 209.256 97.1641C208.24 97.1641 207.417 96.8382 206.788 96.1865C206.164 95.5348 205.852 94.596 205.852 93.3701ZM207.116 93.3701C207.116 94.2998 207.319 94.9971 207.725 95.4619C208.13 95.9222 208.641 96.1523 209.256 96.1523C209.867 96.1523 210.375 95.9199 210.78 95.4551C211.186 94.9902 211.389 94.2816 211.389 93.3291C211.389 92.4313 211.184 91.7523 210.773 91.292C210.368 90.8271 209.862 90.5947 209.256 90.5947C208.641 90.5947 208.13 90.8249 207.725 91.2852C207.319 91.7454 207.116 92.4404 207.116 93.3701ZM214.396 97V90.6973H213.31V89.7402H214.396V88.9678C214.396 88.4801 214.44 88.1178 214.526 87.8809C214.645 87.5618 214.852 87.3044 215.148 87.1084C215.449 86.9079 215.868 86.8076 216.406 86.8076C216.753 86.8076 217.135 86.8486 217.555 86.9307L217.37 88.0039C217.115 87.9583 216.873 87.9355 216.646 87.9355C216.272 87.9355 216.007 88.0153 215.853 88.1748C215.698 88.3343 215.62 88.6328 215.62 89.0703V89.7402H217.035V90.6973H215.62V97H214.396ZM229.203 93.4863L230.529 93.8213C230.251 94.9105 229.75 95.7422 229.025 96.3164C228.305 96.8861 227.424 97.1709 226.38 97.1709C225.3 97.1709 224.42 96.9521 223.741 96.5146C223.067 96.0726 222.552 95.4346 222.196 94.6006C221.845 93.7666 221.67 92.8711 221.67 91.9141C221.67 90.8704 221.868 89.9613 222.265 89.1865C222.666 88.4072 223.233 87.8171 223.967 87.416C224.705 87.0104 225.516 86.8076 226.4 86.8076C227.403 86.8076 228.246 87.0628 228.93 87.5732C229.613 88.0837 230.09 88.8014 230.358 89.7266L229.053 90.0342C228.82 89.305 228.483 88.7741 228.041 88.4414C227.599 88.1087 227.043 87.9424 226.373 87.9424C225.603 87.9424 224.958 88.127 224.438 88.4961C223.924 88.8652 223.561 89.362 223.352 89.9863C223.142 90.6061 223.037 91.2464 223.037 91.9072C223.037 92.7594 223.16 93.5046 223.406 94.1426C223.657 94.776 224.044 95.25 224.568 95.5645C225.092 95.8789 225.66 96.0361 226.271 96.0361C227.013 96.0361 227.642 95.8219 228.157 95.3936C228.672 94.9652 229.021 94.3294 229.203 93.4863ZM232.02 88.3936V86.9785H233.25V88.3936H232.02ZM232.02 97V89.7402H233.25V97H232.02ZM234.638 94.833L235.854 94.6416C235.923 95.1292 236.112 95.5029 236.422 95.7627C236.736 96.0225 237.174 96.1523 237.734 96.1523C238.299 96.1523 238.719 96.0384 238.992 95.8105C239.266 95.5781 239.402 95.307 239.402 94.9971C239.402 94.7191 239.282 94.5003 239.04 94.3408C238.871 94.2314 238.452 94.0924 237.782 93.9238C236.88 93.696 236.253 93.5 235.902 93.3359C235.556 93.1673 235.292 92.9372 235.109 92.6455C234.932 92.3493 234.843 92.0234 234.843 91.668C234.843 91.3444 234.916 91.0459 235.062 90.7725C235.212 90.4945 235.415 90.2643 235.67 90.082C235.861 89.9408 236.121 89.8223 236.449 89.7266C236.782 89.6263 237.137 89.5762 237.516 89.5762C238.085 89.5762 238.584 89.6582 239.013 89.8223C239.446 89.9863 239.765 90.2096 239.97 90.4922C240.175 90.7702 240.316 91.1439 240.394 91.6133L239.19 91.7773C239.136 91.4036 238.976 91.112 238.712 90.9023C238.452 90.6927 238.083 90.5879 237.604 90.5879C237.039 90.5879 236.636 90.6813 236.395 90.8682C236.153 91.055 236.032 91.2738 236.032 91.5244C236.032 91.6839 236.082 91.8275 236.183 91.9551C236.283 92.0872 236.44 92.1966 236.654 92.2832C236.777 92.3288 237.14 92.4336 237.741 92.5977C238.612 92.8301 239.218 93.0215 239.56 93.1719C239.906 93.3177 240.177 93.5319 240.373 93.8145C240.569 94.097 240.667 94.4479 240.667 94.8672C240.667 95.2773 240.546 95.6647 240.305 96.0293C240.068 96.3893 239.724 96.6696 239.272 96.8701C238.821 97.0661 238.311 97.1641 237.741 97.1641C236.798 97.1641 236.078 96.9681 235.581 96.5762C235.089 96.1842 234.774 95.6032 234.638 94.833ZM246.867 94.3408L248.077 94.498C247.945 95.332 247.605 95.986 247.059 96.46C246.516 96.9294 245.849 97.1641 245.056 97.1641C244.062 97.1641 243.262 96.8405 242.656 96.1934C242.055 95.5417 241.754 94.6097 241.754 93.3975C241.754 92.6136 241.884 91.9277 242.144 91.3398C242.403 90.752 242.798 90.3122 243.326 90.0205C243.859 89.7243 244.438 89.5762 245.062 89.5762C245.851 89.5762 246.496 89.7767 246.997 90.1777C247.498 90.5742 247.82 91.1393 247.961 91.873L246.765 92.0576C246.651 91.57 246.448 91.2031 246.156 90.957C245.869 90.7109 245.521 90.5879 245.11 90.5879C244.491 90.5879 243.987 90.8112 243.6 91.2578C243.212 91.6999 243.019 92.4017 243.019 93.3633C243.019 94.3385 243.205 95.0472 243.579 95.4893C243.953 95.9313 244.44 96.1523 245.042 96.1523C245.525 96.1523 245.928 96.0042 246.252 95.708C246.576 95.4118 246.781 94.9561 246.867 94.3408ZM248.672 93.3701C248.672 92.0257 249.046 91.0299 249.793 90.3828C250.417 89.8451 251.178 89.5762 252.076 89.5762C253.074 89.5762 253.89 89.9043 254.523 90.5605C255.157 91.2122 255.474 92.1146 255.474 93.2676C255.474 94.2018 255.332 94.9378 255.05 95.4756C254.772 96.0088 254.364 96.4235 253.826 96.7197C253.293 97.016 252.71 97.1641 252.076 97.1641C251.06 97.1641 250.237 96.8382 249.608 96.1865C248.984 95.5348 248.672 94.596 248.672 93.3701ZM249.937 93.3701C249.937 94.2998 250.139 94.9971 250.545 95.4619C250.951 95.9222 251.461 96.1523 252.076 96.1523C252.687 96.1523 253.195 95.9199 253.601 95.4551C254.006 94.9902 254.209 94.2816 254.209 93.3291C254.209 92.4313 254.004 91.7523 253.594 91.292C253.188 90.8271 252.682 90.5947 252.076 90.5947C251.461 90.5947 250.951 90.8249 250.545 91.2852C250.139 91.7454 249.937 92.4404 249.937 93.3701Z" fill="white"/>
<g clip-path="url(#clip1)">
<path d="M309.795 102.855V102.983H309.423V103.944H309.27V102.983H308.898V102.855H309.795Z" fill="white"/>
<path d="M309.875 102.855H310.113L310.44 103.747H310.448L310.767 102.855H311V103.944H310.843V103.051H310.839L310.502 103.944H310.36L310.036 103.051H310.028V103.944H309.875V102.855Z" fill="white"/>
<path d="M278.68 95.6718H276.574V103.944H278.68V95.6718Z" fill="white"/>
<path d="M295.65 98.0426C295.565 97.9981 294.888 97.5992 293.879 97.5992C292.521 97.5992 291.574 98.5397 291.574 99.8064C291.574 101.036 292.48 102.015 293.879 102.015C294.869 102.015 295.56 101.626 295.65 101.576V103.796C295.385 103.869 294.669 104.091 293.731 104.091C291.365 104.091 289.29 102.472 289.29 99.8064C289.29 97.3357 291.168 95.5255 293.731 95.5255C294.722 95.5255 295.452 95.7627 295.65 95.8218V98.0426Z" fill="white"/>
<path d="M273.684 98.0426C273.598 97.9981 272.922 97.5992 271.913 97.5992C270.551 97.5992 269.607 98.5397 269.607 99.8064C269.607 101.036 270.511 102.015 271.913 102.015C272.904 102.015 273.59 101.626 273.684 101.576V103.796C273.42 103.869 272.702 104.091 271.761 104.091C269.397 104.091 267.322 102.472 267.322 99.8064C267.322 97.3357 269.202 95.5255 271.761 95.5255C272.752 95.5255 273.483 95.7627 273.684 95.8218V98.0426Z" fill="white"/>
<path d="M306.679 99.8064C306.679 102.173 304.837 104.091 302.274 104.091C299.705 104.091 297.868 102.173 297.868 99.8064C297.868 97.4438 299.705 95.5255 302.274 95.5255C304.838 95.5255 306.679 97.4438 306.679 99.8064ZM302.274 97.631C301.023 97.631 300.095 98.6051 300.095 99.8064C300.095 101.009 301.023 101.984 302.274 101.984C303.52 101.984 304.448 101.01 304.448 99.8064C304.448 98.606 303.52 97.631 302.274 97.631Z" fill="white"/>
<path d="M286.663 97.551C286.632 97.5419 285.744 97.2993 285.019 97.2993C284.171 97.2993 283.714 97.5792 283.714 97.9763C283.714 98.4806 284.332 98.656 284.678 98.7659L285.26 98.9486C286.628 99.3793 287.251 100.307 287.251 101.313C287.251 103.392 285.408 104.09 283.794 104.09C282.674 104.09 281.626 103.886 281.522 103.864V101.961C281.71 102.006 282.593 102.267 283.512 102.267C284.557 102.267 285.041 101.965 285.041 101.495C285.041 101.075 284.624 100.835 284.1 100.671C283.974 100.63 283.781 100.571 283.652 100.526C282.477 100.159 281.5 99.4775 281.5 98.1081C281.5 96.5605 282.67 95.521 284.611 95.521C285.637 95.521 286.601 95.7682 286.663 95.7845V97.551Z" fill="white"/>
<path d="M265.089 86.7812C265.089 86.2132 264.62 85.7507 264.045 85.7507C263.47 85.7498 263 86.2123 263 86.7812V88.9529C263 89.5263 263.47 89.9898 264.045 89.9898C264.62 89.9898 265.089 89.5263 265.089 88.9529V86.7812Z" fill="white"/>
<path d="M270.829 83.9306C270.829 83.3627 270.358 82.8983 269.784 82.8983C269.209 82.8983 268.739 83.3627 268.739 83.9306V88.9529C268.739 89.5263 269.209 89.9898 269.784 89.9898C270.358 89.9898 270.829 89.5263 270.829 88.9529V83.9306Z" fill="white"/>
<path d="M276.571 80.0323C276.571 79.4625 276.1 79 275.526 79C274.948 79 274.477 79.4625 274.477 80.0323V91.0175C274.477 91.59 274.948 92.0516 275.526 92.0516C276.1 92.0516 276.571 91.59 276.571 91.0175V80.0323Z" fill="white"/>
<path d="M282.306 83.9306C282.306 83.3627 281.84 82.8983 281.262 82.8983C280.688 82.8983 280.217 83.3627 280.217 83.9306V88.9529C280.217 89.5263 280.688 89.9898 281.262 89.9898C281.84 89.9898 282.306 89.5263 282.306 88.9529V83.9306Z" fill="white"/>
<path d="M288.043 86.7812C288.043 86.2132 287.573 85.7507 287.004 85.7507C286.426 85.7507 285.96 86.2132 285.96 86.7812V88.9529C285.96 89.5263 286.426 89.9898 287.004 89.9898C287.573 89.9898 288.043 89.5263 288.043 88.9529V86.7812Z" fill="white"/>
<path d="M293.785 83.9306C293.785 83.3627 293.319 82.8983 292.74 82.8983C292.166 82.8983 291.701 83.3627 291.701 83.9306V88.9529C291.701 89.5263 292.166 89.9898 292.74 89.9898C293.319 89.9898 293.785 89.5263 293.785 88.9529V83.9306Z" fill="white"/>
<path d="M299.527 80.0323C299.527 79.4625 299.06 79 298.487 79C297.909 79 297.443 79.4625 297.443 80.0323V91.0175C297.443 91.59 297.909 92.0516 298.487 92.0516C299.06 92.0516 299.527 91.59 299.527 91.0175V80.0323Z" fill="white"/>
<path d="M305.268 83.9306C305.268 83.3627 304.802 82.8983 304.214 82.8983C303.641 82.8983 303.175 83.3627 303.175 83.9306V88.9529C303.175 89.5263 303.641 89.9898 304.214 89.9898C304.802 89.9898 305.268 89.5263 305.268 88.9529V83.9306Z" fill="white"/>
<path d="M311 86.7812C311 86.2132 310.534 85.7507 309.961 85.7507C309.383 85.7507 308.916 86.2132 308.916 86.7812V88.9529C308.916 89.5263 309.382 89.9898 309.961 89.9898C310.534 89.9898 311 89.5263 311 88.9529V86.7812Z" fill="white"/>
</g>
</g>
<defs>
<clipPath id="clip0">
<rect width="592" height="147" fill="white"/>
</clipPath>
<clipPath id="clip1">
<rect width="48" height="25.0909" fill="white" transform="translate(263 79)"/>
</clipPath>
</defs>
</svg>
