<svg width="592" height="147" viewBox="0 0 592 147" fill="none" xmlns="http://www.w3.org/2000/svg">
<g clip-path="url(#clip0)">
<rect width="592" height="147" fill="white"/>
<circle cx="-61.5" cy="-30.5" r="436.5" fill="#1B3051"/>
<path fill-rule="evenodd" clip-rule="evenodd" d="M230.455 62.1778C232.585 60.9963 235.133 59.424 237.214 56.7834C235.153 54.2312 232.293 52.7338 230.18 51.5782C235.284 50.4559 239.732 55.4907 239.732 55.4907L240.926 56.8021L239.747 58.1302C235.086 63.1442 230.455 62.1778 230.455 62.1778" fill="#FB7C32"/>
<path fill-rule="evenodd" clip-rule="evenodd" d="M230.849 56.8733C230.849 58.191 229.78 59.2582 228.46 59.2582C227.141 59.2582 226.072 58.191 226.072 56.8733C226.072 55.5556 227.141 54.4884 228.46 54.4884C229.78 54.4884 230.849 55.5556 230.849 56.8733" fill="white"/>
<path fill-rule="evenodd" clip-rule="evenodd" d="M220.136 56.783C221.722 58.8759 226.14 63.9439 231.75 63.9439C235.613 63.9439 239.467 61.5362 243.214 56.784C239.47 52.1493 235.617 49.8008 231.75 49.8008C226.144 49.8008 221.731 54.7306 220.136 56.783M231.75 67.2163C222.9 67.2163 216.984 58.0372 216.735 57.6455L216.176 56.7611L216.745 55.882C216.993 55.5006 222.913 46.5294 231.75 46.5294C236.963 46.5294 241.956 49.6438 246.59 55.7864L247.324 56.7601L246.601 57.7411C241.967 64.0281 236.97 67.2163 231.75 67.2163" fill="#FB7C32"/>
<path fill-rule="evenodd" clip-rule="evenodd" d="M225.009 67.2093C216.381 66.9433 210.816 57.9627 210.573 57.5772L210.113 56.6824L210.649 55.8137C210.893 55.4386 216.36 46.8435 224.939 46.537C218.276 49.5911 213.644 56.8498 213.644 56.8498C213.644 56.8498 217.529 63.3612 225.009 67.2093" fill="#FB7C32"/>
<path fill-rule="evenodd" clip-rule="evenodd" d="M201.013 63.3331C201.399 63.3331 202.53 64.1655 203.928 64.1655C205.177 64.1655 205.742 63.7196 205.742 62.828C205.742 60.2135 199.793 61.7587 199.793 56.4402C199.793 53.4682 201.905 51.6257 205.267 51.6257C206.248 51.6257 209.668 51.8336 209.668 53.4983C209.668 53.8839 208.985 55.6972 208.39 55.6972C208.092 55.6972 207.2 55.0727 205.861 55.0727C204.85 55.0727 204.256 55.4 204.256 56.142C204.256 58.3118 210.204 57.1822 210.204 62.4716C210.204 65.5922 207.974 67.6425 204.642 67.6425C202.054 67.6425 199.436 66.9588 199.436 65.532C199.436 64.9376 200.388 63.3331 201.013 63.3331" fill="#FB7C32"/>
<path fill-rule="evenodd" clip-rule="evenodd" d="M156.961 47.7927C156.961 46.9603 157.318 46.6039 158.151 46.6039H169.039C169.662 46.6039 169.931 47.0497 169.931 48.0899V49.0106C169.931 50.0508 169.662 50.4966 169.039 50.4966H161.542V54.805H168.236C168.86 54.805 169.128 55.2509 169.128 56.2911V57.2118C169.128 58.252 168.86 58.6978 168.236 58.6978H161.542V63.5113H169.068C169.694 63.5113 169.961 63.9571 169.961 64.9973V65.918C169.961 66.9582 169.694 67.404 169.068 67.404H158.151C157.318 67.404 156.961 67.0476 156.961 66.2152V47.7927Z" fill="#FB7C32"/>
<path fill-rule="evenodd" clip-rule="evenodd" d="M170.971 52.9926C170.912 52.7848 170.851 52.6061 170.851 52.4575C170.851 52.0418 171.416 51.8038 172.666 51.8038H173.619C174.481 51.8038 175.135 51.9524 175.284 52.4284L177.039 57.9256C177.247 58.6083 177.604 60.243 177.872 61.5201H177.991C178.259 60.243 178.616 58.5793 178.824 57.9256L180.578 52.4284C180.728 51.9524 181.383 51.8038 182.245 51.8038H182.959C184.208 51.8038 184.744 52.0418 184.744 52.4575C184.744 52.6061 184.714 52.7848 184.654 52.9926L177.842 72.9012C177.663 73.3771 177.039 73.5247 176.177 73.5247H175.671C174.452 73.5247 173.886 73.2877 173.886 72.9012C173.886 72.7526 173.916 72.5749 174.004 72.366L175.879 67.4039L170.971 52.9926Z" fill="#FB7C32"/>
<path fill-rule="evenodd" clip-rule="evenodd" d="M194.292 58.1038C194.292 56.3808 193.637 55.1026 192.15 55.1026C190.9 55.1026 189.83 55.8155 189.473 58.1038H194.292ZM192.15 51.6256C196.82 51.6256 198.576 55.1619 198.576 59.2926C198.576 59.7977 197.445 61.0457 197.058 61.0457H189.473C189.68 63.4223 190.961 64.1653 192.894 64.1653C194.768 64.1653 196.076 63.2446 196.493 63.2446C197.148 63.2446 198.04 64.9083 198.04 65.5027C198.04 66.9877 194.351 67.6424 192.686 67.6424C187.301 67.6424 184.922 64.5218 184.922 59.7384C184.922 53.8848 187.896 51.6256 192.15 51.6256V51.6256Z" fill="#FB7C32"/>
<path fill-rule="evenodd" clip-rule="evenodd" d="M149.258 62.2935V55.6677C148.783 55.3996 148.098 55.1024 147.175 55.1024C145.302 55.1024 144.409 56.6477 144.409 59.6197C144.409 62.5013 145.182 64.0466 146.819 64.0466C147.949 64.0466 148.722 63.2142 149.258 62.2935M139.947 59.6197C139.947 54.7761 142.208 51.6264 146.224 51.6264C147.622 51.6264 148.633 52.1013 149.258 52.5471V45.9504C149.258 45.3269 149.793 45.0006 151.042 45.0006H151.876C153.125 45.0006 153.661 45.3269 153.661 45.9504V62.174C153.661 65.2354 154.018 65.8589 154.018 66.4835C154.018 67.1963 151.429 67.4343 150.686 67.4343C149.734 67.4343 149.674 66.1863 149.495 65.4131C148.812 66.6913 147.354 67.6421 145.51 67.6421C142.297 67.6421 139.947 64.7896 139.947 59.6197" fill="white"/>
<path fill-rule="evenodd" clip-rule="evenodd" d="M125.163 57.0931C125.163 54.1221 124.806 53.4975 124.806 52.9042C124.806 52.1902 127.395 51.9523 128.138 51.9523C129.089 51.9523 129.15 53.1411 129.328 53.8841C130.191 52.7556 131.827 51.626 133.761 51.626C136.735 51.626 138.133 53.1411 138.133 56.4394V66.5132C138.133 67.1367 137.597 67.464 136.348 67.464H135.516C134.266 67.464 133.73 67.1367 133.73 66.5132V57.0931C133.73 55.9344 133.255 55.2506 131.946 55.2506C130.726 55.2506 129.923 56.2908 129.566 56.9746V66.5132C129.566 67.1367 129.03 67.464 127.781 67.464H126.948C125.699 67.464 125.163 67.1367 125.163 66.5132V57.0931Z" fill="white"/>
<path fill-rule="evenodd" clip-rule="evenodd" d="M114.812 64.1653C115.942 64.1653 117.014 63.3631 117.489 62.2938V60.6591C114.663 60.6591 113.324 61.4312 113.324 62.858C113.324 63.601 113.831 64.1653 114.812 64.1653M117.489 57.7775V56.7965C117.489 55.667 116.805 55.1027 115.169 55.1027C112.998 55.1027 111.718 56.0535 111.361 56.0535C110.737 56.0535 109.814 54.3004 109.814 53.6759C109.814 52.6658 112.195 51.6256 115.497 51.6256C120.197 51.6256 121.892 53.706 121.892 56.5887V62.1743C121.892 65.2346 122.25 65.8592 122.25 66.4827C122.25 67.1956 119.661 67.4335 118.917 67.4335C117.965 67.4335 117.906 66.1855 117.727 65.3832C117.519 65.7698 116.091 67.6424 113.355 67.6424C110.142 67.6424 108.952 65.7397 108.952 63.3039C108.952 60.867 109.934 57.7775 117.489 57.7775" fill="white"/>
<path fill-rule="evenodd" clip-rule="evenodd" d="M97.9172 63.3331C98.3043 63.3331 99.4341 64.1655 100.832 64.1655C102.082 64.1655 102.647 63.7196 102.647 62.828C102.647 60.2135 96.698 61.7587 96.698 56.4402C96.698 53.4682 98.8099 51.6257 102.171 51.6257C103.152 51.6257 106.574 51.8336 106.574 53.4983C106.574 53.8839 105.889 55.6972 105.294 55.6972C104.997 55.6972 104.104 55.0727 102.766 55.0727C101.754 55.0727 101.16 55.4 101.16 56.142C101.16 58.3118 107.109 57.1822 107.109 62.4716C107.109 65.5922 104.878 67.6425 101.546 67.6425C98.9586 67.6425 96.3401 66.9588 96.3401 65.532C96.3401 64.9376 97.292 63.3331 97.9172 63.3331" fill="white"/>
<path fill-rule="evenodd" clip-rule="evenodd" d="M81.2001 52.7552C81.2001 52.1306 81.7359 51.8043 82.9853 51.8043H83.8176C85.067 51.8043 85.6028 52.1306 85.6028 52.7552V62.1742C85.6028 63.3329 86.0782 64.0167 87.388 64.0167C88.6073 64.0167 89.4105 62.9765 89.7673 62.2937V52.7552C89.7673 52.1306 90.3031 51.8043 91.5525 51.8043H92.3848C93.6343 51.8043 94.17 52.1306 94.17 52.7552V62.1742C94.17 65.2346 94.5269 65.8592 94.5269 66.4827C94.5269 67.1955 91.9395 67.4335 91.1947 67.4335C90.2438 67.4335 90.1834 66.1855 90.0055 65.3832C89.1431 66.5128 87.5066 67.6424 85.5726 67.6424C82.5983 67.6424 81.2001 66.1262 81.2001 62.8279V52.7552Z" fill="white"/>
<path fill-rule="evenodd" clip-rule="evenodd" d="M74.3302 59.6195C74.3302 56.6485 73.4969 55.1032 71.5931 55.1032C69.6892 55.1032 68.8268 56.6485 68.8268 59.6195C68.8268 62.5905 69.6892 64.1658 71.5931 64.1658C73.4969 64.1658 74.3302 62.5905 74.3302 59.6195M71.5931 51.6261C76.3235 51.6261 78.7922 54.4485 78.7922 59.6194C78.7922 64.7893 76.3235 67.6429 71.5931 67.6429C66.8637 67.6429 64.3647 64.7893 64.3647 59.6194C64.3647 54.4485 66.8637 51.6261 71.5931 51.6261" fill="white"/>
<path fill-rule="evenodd" clip-rule="evenodd" d="M49.4625 45.9508C49.4625 45.3273 49.9983 45 51.2478 45H52.08C53.3295 45 53.8653 45.3273 53.8653 45.9508V53.647C54.787 52.5475 56.2747 51.6258 58.0599 51.6258C61.0343 51.6258 62.5511 53.1419 62.5511 56.4403V66.513C62.5511 67.1365 62.0153 67.4638 60.7669 67.4638H59.9336C58.6841 67.4638 58.1484 67.1365 58.1484 66.513V57.0929C58.1484 55.9342 57.5543 55.2515 56.2445 55.2515C55.0252 55.2515 54.2221 56.2917 53.8653 56.9744V66.513C53.8653 67.1365 53.3295 67.4638 52.08 67.4638H51.2478C49.9983 67.4638 49.4625 67.1365 49.4625 66.513V45.9508Z" fill="white"/>
<path fill-rule="evenodd" clip-rule="evenodd" d="M37.622 50.4968H32.8926C32.2674 50.4968 32 50.0509 32 49.0107V48.09C32 47.0498 32.2674 46.604 32.8926 46.604H46.9622C47.5875 46.604 47.8548 47.0498 47.8548 48.09V49.0107C47.8548 50.0509 47.5875 50.4968 46.9622 50.4968H42.2328V66.5125C42.2328 67.136 41.6981 67.4634 40.4486 67.4634H39.4072C38.1578 67.4634 37.622 67.136 37.622 66.5125V50.4968Z" fill="white"/>
<path d="M35.6299 95V86.1611H32.3281V84.9785H40.2715V86.1611H36.9561V95H35.6299ZM41.4814 95V84.9785H42.7119V88.5742C43.2861 87.9089 44.0107 87.5762 44.8857 87.5762C45.4235 87.5762 45.8906 87.6833 46.2871 87.8975C46.6836 88.1071 46.9661 88.3988 47.1348 88.7725C47.3079 89.1462 47.3945 89.6885 47.3945 90.3994V95H46.1641V90.3994C46.1641 89.7842 46.0296 89.3376 45.7607 89.0596C45.4964 88.777 45.1204 88.6357 44.6328 88.6357C44.2682 88.6357 43.9242 88.7314 43.6006 88.9229C43.2816 89.1097 43.0537 89.3649 42.917 89.6885C42.7803 90.012 42.7119 90.4587 42.7119 91.0283V95H41.4814ZM48.8164 91.3701C48.8164 90.0257 49.1901 89.0299 49.9375 88.3828C50.5618 87.8451 51.3229 87.5762 52.2207 87.5762C53.2188 87.5762 54.0345 87.9043 54.668 88.5605C55.3014 89.2122 55.6182 90.1146 55.6182 91.2676C55.6182 92.2018 55.4769 92.9378 55.1943 93.4756C54.9163 94.0088 54.5085 94.4235 53.9707 94.7197C53.4375 95.016 52.8542 95.1641 52.2207 95.1641C51.2044 95.1641 50.3818 94.8382 49.7529 94.1865C49.1286 93.5348 48.8164 92.596 48.8164 91.3701ZM50.0811 91.3701C50.0811 92.2998 50.2839 92.9971 50.6895 93.4619C51.0951 93.9222 51.6055 94.1523 52.2207 94.1523C52.8314 94.1523 53.3395 93.9199 53.7451 93.4551C54.1507 92.9902 54.3535 92.2816 54.3535 91.3291C54.3535 90.4313 54.1484 89.7523 53.7383 89.292C53.3327 88.8271 52.8268 88.5947 52.2207 88.5947C51.6055 88.5947 51.0951 88.8249 50.6895 89.2852C50.2839 89.7454 50.0811 90.4404 50.0811 91.3701ZM61.8252 95V93.9336C61.2601 94.7539 60.4922 95.1641 59.5215 95.1641C59.0931 95.1641 58.6921 95.082 58.3184 94.918C57.9492 94.7539 57.6735 94.5488 57.4912 94.3027C57.3135 94.0521 57.1882 93.7467 57.1152 93.3867C57.0651 93.1452 57.04 92.7624 57.04 92.2383V87.7402H58.2705V91.7666C58.2705 92.4092 58.2956 92.8421 58.3457 93.0654C58.4232 93.389 58.5872 93.6442 58.8379 93.8311C59.0885 94.0133 59.3984 94.1045 59.7676 94.1045C60.1367 94.1045 60.4831 94.0111 60.8066 93.8242C61.1302 93.6328 61.3581 93.3753 61.4902 93.0518C61.627 92.7236 61.6953 92.2497 61.6953 91.6299V87.7402H62.9258V95H61.8252ZM64.3682 92.833L65.585 92.6416C65.6533 93.1292 65.8424 93.5029 66.1523 93.7627C66.4668 94.0225 66.9043 94.1523 67.4648 94.1523C68.0299 94.1523 68.4492 94.0384 68.7227 93.8105C68.9961 93.5781 69.1328 93.307 69.1328 92.9971C69.1328 92.7191 69.012 92.5003 68.7705 92.3408C68.6019 92.2314 68.1826 92.0924 67.5127 91.9238C66.6104 91.696 65.9837 91.5 65.6328 91.3359C65.2865 91.1673 65.0221 90.9372 64.8398 90.6455C64.6621 90.3493 64.5732 90.0234 64.5732 89.668C64.5732 89.3444 64.6462 89.0459 64.792 88.7725C64.9424 88.4945 65.1452 88.2643 65.4004 88.082C65.5918 87.9408 65.8516 87.8223 66.1797 87.7266C66.5124 87.6263 66.8678 87.5762 67.2461 87.5762C67.8158 87.5762 68.3148 87.6582 68.7432 87.8223C69.1761 87.9863 69.4951 88.2096 69.7002 88.4922C69.9053 88.7702 70.0465 89.1439 70.124 89.6133L68.9209 89.7773C68.8662 89.4036 68.7067 89.112 68.4424 88.9023C68.1826 88.6927 67.8135 88.5879 67.335 88.5879C66.7699 88.5879 66.3665 88.6813 66.125 88.8682C65.8835 89.055 65.7627 89.2738 65.7627 89.5244C65.7627 89.6839 65.8128 89.8275 65.9131 89.9551C66.0133 90.0872 66.1706 90.1966 66.3848 90.2832C66.5078 90.3288 66.8701 90.4336 67.4717 90.5977C68.3421 90.8301 68.9482 91.0215 69.29 91.1719C69.6364 91.3177 69.9076 91.5319 70.1035 91.8145C70.2995 92.097 70.3975 92.4479 70.3975 92.8672C70.3975 93.2773 70.2767 93.6647 70.0352 94.0293C69.7982 94.3893 69.4541 94.6696 69.0029 94.8701C68.5518 95.0661 68.0413 95.1641 67.4717 95.1641C66.5283 95.1641 65.8083 94.9681 65.3115 94.5762C64.8193 94.1842 64.5049 93.6032 64.3682 92.833ZM76.5977 94.1045C76.1419 94.4919 75.7021 94.7653 75.2783 94.9248C74.859 95.0843 74.4079 95.1641 73.9248 95.1641C73.1273 95.1641 72.5143 94.9704 72.0859 94.583C71.6576 94.1911 71.4434 93.6921 71.4434 93.0859C71.4434 92.7305 71.5231 92.4069 71.6826 92.1152C71.8467 91.819 72.0586 91.582 72.3184 91.4043C72.5827 91.2266 72.8789 91.0921 73.207 91.001C73.4486 90.9372 73.8132 90.8757 74.3008 90.8164C75.2943 90.6979 76.0257 90.5566 76.4951 90.3926C76.4997 90.224 76.502 90.1169 76.502 90.0713C76.502 89.57 76.3857 89.2168 76.1533 89.0117C75.8389 88.7337 75.3717 88.5947 74.752 88.5947C74.1732 88.5947 73.7448 88.6973 73.4668 88.9023C73.1934 89.1029 72.9906 89.4606 72.8584 89.9756L71.6553 89.8115C71.7646 89.2965 71.9447 88.8818 72.1953 88.5674C72.446 88.2484 72.8083 88.0046 73.2822 87.8359C73.7562 87.6628 74.3053 87.5762 74.9297 87.5762C75.5495 87.5762 76.0531 87.6491 76.4404 87.7949C76.8278 87.9408 77.1126 88.1253 77.2949 88.3486C77.4772 88.5674 77.6048 88.8454 77.6777 89.1826C77.7188 89.3923 77.7393 89.7705 77.7393 90.3174V91.958C77.7393 93.1019 77.7643 93.8265 77.8145 94.1318C77.8691 94.4326 77.974 94.722 78.1289 95H76.8438C76.7161 94.7448 76.6341 94.4463 76.5977 94.1045ZM76.4951 91.3564C76.0485 91.5387 75.3786 91.6937 74.4854 91.8213C73.9795 91.8942 73.6217 91.9762 73.4121 92.0674C73.2025 92.1585 73.0407 92.293 72.9268 92.4707C72.8128 92.6439 72.7559 92.8376 72.7559 93.0518C72.7559 93.3799 72.8789 93.6533 73.125 93.8721C73.3757 94.0908 73.7402 94.2002 74.2188 94.2002C74.6927 94.2002 75.1143 94.0977 75.4834 93.8926C75.8525 93.6829 76.1237 93.3981 76.2969 93.0381C76.429 92.7601 76.4951 92.3499 76.4951 91.8076V91.3564ZM79.6533 95V87.7402H80.7607V88.7725C81.2939 87.9749 82.0641 87.5762 83.0713 87.5762C83.5088 87.5762 83.9098 87.6559 84.2744 87.8154C84.6436 87.9704 84.9193 88.1755 85.1016 88.4307C85.2839 88.6859 85.4115 88.9889 85.4844 89.3398C85.5299 89.5677 85.5527 89.9665 85.5527 90.5361V95H84.3223V90.584C84.3223 90.0827 84.2744 89.709 84.1787 89.4629C84.083 89.2122 83.9121 89.014 83.666 88.8682C83.4245 88.7178 83.1396 88.6426 82.8115 88.6426C82.2874 88.6426 81.834 88.8089 81.4512 89.1416C81.0729 89.4743 80.8838 90.1055 80.8838 91.0352V95H79.6533ZM92.1562 95V94.084C91.696 94.804 91.0192 95.1641 90.126 95.1641C89.5472 95.1641 89.014 95.0046 88.5264 94.6855C88.0433 94.3665 87.6673 93.9222 87.3984 93.3525C87.1341 92.7783 87.002 92.1198 87.002 91.377C87.002 90.6523 87.1227 89.9961 87.3643 89.4082C87.6058 88.8158 87.9681 88.3623 88.4512 88.0479C88.9342 87.7334 89.4743 87.5762 90.0713 87.5762C90.5088 87.5762 90.8984 87.6696 91.2402 87.8564C91.582 88.0387 91.86 88.278 92.0742 88.5742V84.9785H93.2979V95H92.1562ZM88.2666 91.377C88.2666 92.3066 88.4626 93.0016 88.8545 93.4619C89.2464 93.9222 89.709 94.1523 90.2422 94.1523C90.7799 94.1523 91.2357 93.9336 91.6094 93.4961C91.9876 93.054 92.1768 92.3818 92.1768 91.4795C92.1768 90.486 91.9854 89.7568 91.6025 89.292C91.2197 88.8271 90.748 88.5947 90.1875 88.5947C89.6406 88.5947 89.1826 88.818 88.8135 89.2646C88.4489 89.7113 88.2666 90.4154 88.2666 91.377ZM95.4238 95V84.9785H102.67V86.1611H96.75V89.2305H102.294V90.4062H96.75V93.8174H102.902V95H95.4238ZM104.522 97.7959L104.386 96.6406C104.655 96.7135 104.889 96.75 105.09 96.75C105.363 96.75 105.582 96.7044 105.746 96.6133C105.91 96.5221 106.045 96.3945 106.149 96.2305C106.227 96.1074 106.352 95.8021 106.525 95.3145C106.548 95.2461 106.585 95.1458 106.635 95.0137L103.88 87.7402H105.206L106.717 91.9443C106.913 92.4775 107.088 93.0381 107.243 93.626C107.384 93.0609 107.553 92.5094 107.749 91.9717L109.301 87.7402H110.531L107.77 95.123C107.473 95.9206 107.243 96.4697 107.079 96.7705C106.86 97.1761 106.61 97.4723 106.327 97.6592C106.045 97.8506 105.707 97.9463 105.315 97.9463C105.078 97.9463 104.814 97.8962 104.522 97.7959ZM116.547 92.6621L117.818 92.8193C117.618 93.5622 117.246 94.1387 116.704 94.5488C116.162 94.959 115.469 95.1641 114.626 95.1641C113.564 95.1641 112.721 94.8382 112.097 94.1865C111.477 93.5303 111.167 92.612 111.167 91.4316C111.167 90.2103 111.481 89.2624 112.11 88.5879C112.739 87.9134 113.555 87.5762 114.558 87.5762C115.528 87.5762 116.321 87.9066 116.937 88.5674C117.552 89.2282 117.859 90.1579 117.859 91.3564C117.859 91.4294 117.857 91.5387 117.853 91.6846H112.438C112.484 92.4821 112.71 93.0928 113.115 93.5166C113.521 93.9404 114.027 94.1523 114.633 94.1523C115.084 94.1523 115.469 94.0339 115.788 93.7969C116.107 93.5599 116.36 93.1816 116.547 92.6621ZM112.507 90.6729H116.561C116.506 90.0622 116.351 89.6042 116.096 89.2988C115.704 88.8249 115.196 88.5879 114.571 88.5879C114.006 88.5879 113.53 88.777 113.143 89.1553C112.76 89.5335 112.548 90.0394 112.507 90.6729ZM118.878 92.833L120.095 92.6416C120.163 93.1292 120.352 93.5029 120.662 93.7627C120.977 94.0225 121.414 94.1523 121.975 94.1523C122.54 94.1523 122.959 94.0384 123.232 93.8105C123.506 93.5781 123.643 93.307 123.643 92.9971C123.643 92.7191 123.522 92.5003 123.28 92.3408C123.112 92.2314 122.692 92.0924 122.022 91.9238C121.12 91.696 120.493 91.5 120.143 91.3359C119.796 91.1673 119.532 90.9372 119.35 90.6455C119.172 90.3493 119.083 90.0234 119.083 89.668C119.083 89.3444 119.156 89.0459 119.302 88.7725C119.452 88.4945 119.655 88.2643 119.91 88.082C120.102 87.9408 120.361 87.8223 120.689 87.7266C121.022 87.6263 121.378 87.5762 121.756 87.5762C122.326 87.5762 122.825 87.6582 123.253 87.8223C123.686 87.9863 124.005 88.2096 124.21 88.4922C124.415 88.7702 124.556 89.1439 124.634 89.6133L123.431 89.7773C123.376 89.4036 123.216 89.112 122.952 88.9023C122.692 88.6927 122.323 88.5879 121.845 88.5879C121.28 88.5879 120.876 88.6813 120.635 88.8682C120.393 89.055 120.272 89.2738 120.272 89.5244C120.272 89.6839 120.323 89.8275 120.423 89.9551C120.523 90.0872 120.68 90.1966 120.895 90.2832C121.018 90.3288 121.38 90.4336 121.981 90.5977C122.852 90.8301 123.458 91.0215 123.8 91.1719C124.146 91.3177 124.417 91.5319 124.613 91.8145C124.809 92.097 124.907 92.4479 124.907 92.8672C124.907 93.2773 124.786 93.6647 124.545 94.0293C124.308 94.3893 123.964 94.6696 123.513 94.8701C123.062 95.0661 122.551 95.1641 121.981 95.1641C121.038 95.1641 120.318 94.9681 119.821 94.5762C119.329 94.1842 119.015 93.6032 118.878 92.833ZM130.273 86.3936V84.9785H131.504V86.3936H130.273ZM130.273 95V87.7402H131.504V95H130.273ZM132.892 92.833L134.108 92.6416C134.177 93.1292 134.366 93.5029 134.676 93.7627C134.99 94.0225 135.428 94.1523 135.988 94.1523C136.553 94.1523 136.973 94.0384 137.246 93.8105C137.52 93.5781 137.656 93.307 137.656 92.9971C137.656 92.7191 137.535 92.5003 137.294 92.3408C137.125 92.2314 136.706 92.0924 136.036 91.9238C135.134 91.696 134.507 91.5 134.156 91.3359C133.81 91.1673 133.546 90.9372 133.363 90.6455C133.186 90.3493 133.097 90.0234 133.097 89.668C133.097 89.3444 133.17 89.0459 133.315 88.7725C133.466 88.4945 133.669 88.2643 133.924 88.082C134.115 87.9408 134.375 87.8223 134.703 87.7266C135.036 87.6263 135.391 87.5762 135.77 87.5762C136.339 87.5762 136.838 87.6582 137.267 87.8223C137.7 87.9863 138.019 88.2096 138.224 88.4922C138.429 88.7702 138.57 89.1439 138.647 89.6133L137.444 89.7773C137.39 89.4036 137.23 89.112 136.966 88.9023C136.706 88.6927 136.337 88.5879 135.858 88.5879C135.293 88.5879 134.89 88.6813 134.648 88.8682C134.407 89.055 134.286 89.2738 134.286 89.5244C134.286 89.6839 134.336 89.8275 134.437 89.9551C134.537 90.0872 134.694 90.1966 134.908 90.2832C135.031 90.3288 135.394 90.4336 135.995 90.5977C136.866 90.8301 137.472 91.0215 137.813 91.1719C138.16 91.3177 138.431 91.5319 138.627 91.8145C138.823 92.097 138.921 92.4479 138.921 92.8672C138.921 93.2773 138.8 93.6647 138.559 94.0293C138.322 94.3893 137.978 94.6696 137.526 94.8701C137.075 95.0661 136.565 95.1641 135.995 95.1641C135.052 95.1641 134.332 94.9681 133.835 94.5762C133.343 94.1842 133.028 93.6032 132.892 92.833ZM144.28 95V87.7402H145.388V88.7725C145.921 87.9749 146.691 87.5762 147.698 87.5762C148.136 87.5762 148.537 87.6559 148.901 87.8154C149.271 87.9704 149.546 88.1755 149.729 88.4307C149.911 88.6859 150.038 88.9889 150.111 89.3398C150.157 89.5677 150.18 89.9665 150.18 90.5361V95H148.949V90.584C148.949 90.0827 148.901 89.709 148.806 89.4629C148.71 89.2122 148.539 89.014 148.293 88.8682C148.051 88.7178 147.767 88.6426 147.438 88.6426C146.914 88.6426 146.461 88.8089 146.078 89.1416C145.7 89.4743 145.511 90.1055 145.511 91.0352V95H144.28ZM151.615 91.3701C151.615 90.0257 151.989 89.0299 152.736 88.3828C153.361 87.8451 154.122 87.5762 155.02 87.5762C156.018 87.5762 156.833 87.9043 157.467 88.5605C158.1 89.2122 158.417 90.1146 158.417 91.2676C158.417 92.2018 158.276 92.9378 157.993 93.4756C157.715 94.0088 157.307 94.4235 156.77 94.7197C156.236 95.016 155.653 95.1641 155.02 95.1641C154.003 95.1641 153.181 94.8382 152.552 94.1865C151.927 93.5348 151.615 92.596 151.615 91.3701ZM152.88 91.3701C152.88 92.2998 153.083 92.9971 153.488 93.4619C153.894 93.9222 154.404 94.1523 155.02 94.1523C155.63 94.1523 156.138 93.9199 156.544 93.4551C156.95 92.9902 157.152 92.2816 157.152 91.3291C157.152 90.4313 156.947 89.7523 156.537 89.292C156.132 88.8271 155.626 88.5947 155.02 88.5947C154.404 88.5947 153.894 88.8249 153.488 89.2852C153.083 89.7454 152.88 90.4404 152.88 91.3701ZM161.206 95L158.984 87.7402H160.256L161.411 91.9307L161.842 93.4893C161.86 93.4118 161.985 92.9128 162.218 91.9922L163.373 87.7402H164.638L165.725 91.9512L166.087 93.3389L166.504 91.9375L167.748 87.7402H168.944L166.675 95H165.396L164.241 90.6523L163.961 89.415L162.491 95H161.206ZM173.88 97.7822V87.7402H175.001V88.6836C175.265 88.3145 175.564 88.0387 175.896 87.8564C176.229 87.6696 176.632 87.5762 177.106 87.5762C177.726 87.5762 178.273 87.7357 178.747 88.0547C179.221 88.3737 179.579 88.8249 179.82 89.4082C180.062 89.987 180.183 90.6227 180.183 91.3154C180.183 92.0583 180.048 92.7282 179.779 93.3252C179.515 93.9176 179.128 94.3734 178.617 94.6924C178.111 95.0068 177.578 95.1641 177.018 95.1641C176.607 95.1641 176.238 95.0775 175.91 94.9043C175.587 94.7311 175.32 94.5124 175.11 94.248V97.7822H173.88ZM174.994 91.4111C174.994 92.3454 175.183 93.0358 175.562 93.4824C175.94 93.929 176.398 94.1523 176.936 94.1523C177.482 94.1523 177.95 93.9222 178.337 93.4619C178.729 92.9971 178.925 92.2793 178.925 91.3086C178.925 90.3835 178.733 89.6908 178.351 89.2305C177.972 88.7702 177.519 88.54 176.99 88.54C176.466 88.54 176.001 88.7861 175.596 89.2783C175.195 89.766 174.994 90.4769 174.994 91.4111ZM186.41 94.1045C185.954 94.4919 185.515 94.7653 185.091 94.9248C184.672 95.0843 184.22 95.1641 183.737 95.1641C182.94 95.1641 182.327 94.9704 181.898 94.583C181.47 94.1911 181.256 93.6921 181.256 93.0859C181.256 92.7305 181.336 92.4069 181.495 92.1152C181.659 91.819 181.871 91.582 182.131 91.4043C182.395 91.2266 182.691 91.0921 183.02 91.001C183.261 90.9372 183.626 90.8757 184.113 90.8164C185.107 90.6979 185.838 90.5566 186.308 90.3926C186.312 90.224 186.314 90.1169 186.314 90.0713C186.314 89.57 186.198 89.2168 185.966 89.0117C185.651 88.7337 185.184 88.5947 184.564 88.5947C183.986 88.5947 183.557 88.6973 183.279 88.9023C183.006 89.1029 182.803 89.4606 182.671 89.9756L181.468 89.8115C181.577 89.2965 181.757 88.8818 182.008 88.5674C182.258 88.2484 182.621 88.0046 183.095 87.8359C183.569 87.6628 184.118 87.5762 184.742 87.5762C185.362 87.5762 185.866 87.6491 186.253 87.7949C186.64 87.9408 186.925 88.1253 187.107 88.3486C187.29 88.5674 187.417 88.8454 187.49 89.1826C187.531 89.3923 187.552 89.7705 187.552 90.3174V91.958C187.552 93.1019 187.577 93.8265 187.627 94.1318C187.682 94.4326 187.786 94.722 187.941 95H186.656C186.529 94.7448 186.447 94.4463 186.41 94.1045ZM186.308 91.3564C185.861 91.5387 185.191 91.6937 184.298 91.8213C183.792 91.8942 183.434 91.9762 183.225 92.0674C183.015 92.1585 182.853 92.293 182.739 92.4707C182.625 92.6439 182.568 92.8376 182.568 93.0518C182.568 93.3799 182.691 93.6533 182.938 93.8721C183.188 94.0908 183.553 94.2002 184.031 94.2002C184.505 94.2002 184.927 94.0977 185.296 93.8926C185.665 93.6829 185.936 93.3981 186.109 93.0381C186.242 92.7601 186.308 92.3499 186.308 91.8076V91.3564ZM189.452 95V87.7402H190.56V88.8408C190.842 88.3258 191.102 87.9863 191.339 87.8223C191.58 87.6582 191.845 87.5762 192.132 87.5762C192.547 87.5762 192.968 87.7083 193.396 87.9727L192.973 89.1143C192.672 88.9365 192.371 88.8477 192.07 88.8477C191.801 88.8477 191.56 88.9297 191.346 89.0938C191.132 89.2533 190.979 89.4766 190.888 89.7637C190.751 90.2012 190.683 90.6797 190.683 91.1992V95H189.452ZM196.814 93.8994L196.992 94.9863C196.646 95.0592 196.336 95.0957 196.062 95.0957C195.616 95.0957 195.27 95.0251 195.023 94.8838C194.777 94.7425 194.604 94.5579 194.504 94.3301C194.404 94.0977 194.354 93.6123 194.354 92.874V88.6973H193.451V87.7402H194.354V85.9424L195.577 85.2041V87.7402H196.814V88.6973H195.577V92.9424C195.577 93.2933 195.598 93.5189 195.639 93.6191C195.684 93.7194 195.755 93.7992 195.851 93.8584C195.951 93.9176 196.092 93.9473 196.274 93.9473C196.411 93.9473 196.591 93.9313 196.814 93.8994ZM201.463 91.3701C201.463 90.0257 201.837 89.0299 202.584 88.3828C203.208 87.8451 203.969 87.5762 204.867 87.5762C205.865 87.5762 206.681 87.9043 207.314 88.5605C207.948 89.2122 208.265 90.1146 208.265 91.2676C208.265 92.2018 208.123 92.9378 207.841 93.4756C207.563 94.0088 207.155 94.4235 206.617 94.7197C206.084 95.016 205.501 95.1641 204.867 95.1641C203.851 95.1641 203.028 94.8382 202.399 94.1865C201.775 93.5348 201.463 92.596 201.463 91.3701ZM202.728 91.3701C202.728 92.2998 202.93 92.9971 203.336 93.4619C203.742 93.9222 204.252 94.1523 204.867 94.1523C205.478 94.1523 205.986 93.9199 206.392 93.4551C206.797 92.9902 207 92.2816 207 91.3291C207 90.4313 206.795 89.7523 206.385 89.292C205.979 88.8271 205.473 88.5947 204.867 88.5947C204.252 88.5947 203.742 88.8249 203.336 89.2852C202.93 89.7454 202.728 90.4404 202.728 91.3701ZM210.008 95V88.6973H208.921V87.7402H210.008V86.9678C210.008 86.4801 210.051 86.1178 210.138 85.8809C210.256 85.5618 210.464 85.3044 210.76 85.1084C211.061 84.9079 211.48 84.8076 212.018 84.8076C212.364 84.8076 212.747 84.8486 213.166 84.9307L212.981 86.0039C212.726 85.9583 212.485 85.9355 212.257 85.9355C211.883 85.9355 211.619 86.0153 211.464 86.1748C211.309 86.3343 211.231 86.6328 211.231 87.0703V87.7402H212.646V88.6973H211.231V95H210.008ZM224.814 91.4863L226.141 91.8213C225.863 92.9105 225.361 93.7422 224.637 94.3164C223.917 94.8861 223.035 95.1709 221.991 95.1709C220.911 95.1709 220.032 94.9521 219.353 94.5146C218.678 94.0726 218.163 93.4346 217.808 92.6006C217.457 91.7666 217.281 90.8711 217.281 89.9141C217.281 88.8704 217.479 87.9613 217.876 87.1865C218.277 86.4072 218.844 85.8171 219.578 85.416C220.316 85.0104 221.128 84.8076 222.012 84.8076C223.014 84.8076 223.857 85.0628 224.541 85.5732C225.225 86.0837 225.701 86.8014 225.97 87.7266L224.664 88.0342C224.432 87.305 224.094 86.7741 223.652 86.4414C223.21 86.1087 222.654 85.9424 221.984 85.9424C221.214 85.9424 220.569 86.127 220.05 86.4961C219.535 86.8652 219.173 87.362 218.963 87.9863C218.753 88.6061 218.648 89.2464 218.648 89.9072C218.648 90.7594 218.771 91.5046 219.018 92.1426C219.268 92.776 219.656 93.25 220.18 93.5645C220.704 93.8789 221.271 94.0361 221.882 94.0361C222.625 94.0361 223.254 93.8219 223.769 93.3936C224.284 92.9652 224.632 92.3294 224.814 91.4863ZM227.631 86.3936V84.9785H228.861V86.3936H227.631ZM227.631 95V87.7402H228.861V95H227.631ZM230.249 92.833L231.466 92.6416C231.534 93.1292 231.723 93.5029 232.033 93.7627C232.348 94.0225 232.785 94.1523 233.346 94.1523C233.911 94.1523 234.33 94.0384 234.604 93.8105C234.877 93.5781 235.014 93.307 235.014 92.9971C235.014 92.7191 234.893 92.5003 234.651 92.3408C234.483 92.2314 234.063 92.0924 233.394 91.9238C232.491 91.696 231.865 91.5 231.514 91.3359C231.167 91.1673 230.903 90.9372 230.721 90.6455C230.543 90.3493 230.454 90.0234 230.454 89.668C230.454 89.3444 230.527 89.0459 230.673 88.7725C230.823 88.4945 231.026 88.2643 231.281 88.082C231.473 87.9408 231.732 87.8223 232.061 87.7266C232.393 87.6263 232.749 87.5762 233.127 87.5762C233.697 87.5762 234.196 87.6582 234.624 87.8223C235.057 87.9863 235.376 88.2096 235.581 88.4922C235.786 88.7702 235.927 89.1439 236.005 89.6133L234.802 89.7773C234.747 89.4036 234.588 89.112 234.323 88.9023C234.063 88.6927 233.694 88.5879 233.216 88.5879C232.651 88.5879 232.247 88.6813 232.006 88.8682C231.764 89.055 231.644 89.2738 231.644 89.5244C231.644 89.6839 231.694 89.8275 231.794 89.9551C231.894 90.0872 232.051 90.1966 232.266 90.2832C232.389 90.3288 232.751 90.4336 233.353 90.5977C234.223 90.8301 234.829 91.0215 235.171 91.1719C235.517 91.3177 235.788 91.5319 235.984 91.8145C236.18 92.097 236.278 92.4479 236.278 92.8672C236.278 93.2773 236.158 93.6647 235.916 94.0293C235.679 94.3893 235.335 94.6696 234.884 94.8701C234.433 95.0661 233.922 95.1641 233.353 95.1641C232.409 95.1641 231.689 94.9681 231.192 94.5762C230.7 94.1842 230.386 93.6032 230.249 92.833ZM242.479 92.3408L243.688 92.498C243.556 93.332 243.217 93.986 242.67 94.46C242.128 94.9294 241.46 95.1641 240.667 95.1641C239.674 95.1641 238.874 94.8405 238.268 94.1934C237.666 93.5417 237.365 92.6097 237.365 91.3975C237.365 90.6136 237.495 89.9277 237.755 89.3398C238.015 88.752 238.409 88.3122 238.938 88.0205C239.471 87.7243 240.049 87.5762 240.674 87.5762C241.462 87.5762 242.107 87.7767 242.608 88.1777C243.11 88.5742 243.431 89.1393 243.572 89.873L242.376 90.0576C242.262 89.57 242.059 89.2031 241.768 88.957C241.48 88.7109 241.132 88.5879 240.722 88.5879C240.102 88.5879 239.598 88.8112 239.211 89.2578C238.824 89.6999 238.63 90.4017 238.63 91.3633C238.63 92.3385 238.817 93.0472 239.19 93.4893C239.564 93.9313 240.052 94.1523 240.653 94.1523C241.136 94.1523 241.54 94.0042 241.863 93.708C242.187 93.4118 242.392 92.9561 242.479 92.3408ZM244.283 91.3701C244.283 90.0257 244.657 89.0299 245.404 88.3828C246.029 87.8451 246.79 87.5762 247.688 87.5762C248.686 87.5762 249.501 87.9043 250.135 88.5605C250.768 89.2122 251.085 90.1146 251.085 91.2676C251.085 92.2018 250.944 92.9378 250.661 93.4756C250.383 94.0088 249.975 94.4235 249.438 94.7197C248.904 95.016 248.321 95.1641 247.688 95.1641C246.671 95.1641 245.849 94.8382 245.22 94.1865C244.595 93.5348 244.283 92.596 244.283 91.3701ZM245.548 91.3701C245.548 92.2998 245.751 92.9971 246.156 93.4619C246.562 93.9222 247.072 94.1523 247.688 94.1523C248.298 94.1523 248.806 93.9199 249.212 93.4551C249.618 92.9902 249.82 92.2816 249.82 91.3291C249.82 90.4313 249.615 89.7523 249.205 89.292C248.799 88.8271 248.294 88.5947 247.688 88.5947C247.072 88.5947 246.562 88.8249 246.156 89.2852C245.751 89.7454 245.548 90.4404 245.548 91.3701ZM252.883 95V93.5986H254.284V95H252.883Z" fill="white"/>
<g clip-path="url(#clip1)">
<path d="M309.795 100.855V100.983H309.423V101.944H309.27V100.983H308.898V100.855H309.795Z" fill="white"/>
<path d="M309.875 100.855H310.113L310.44 101.747H310.448L310.767 100.855H311V101.944H310.843V101.051H310.839L310.503 101.944H310.36L310.036 101.051H310.028V101.944H309.875V100.855Z" fill="white"/>
<path d="M278.68 93.6719H276.574V101.944H278.68V93.6719Z" fill="white"/>
<path d="M295.65 96.0426C295.565 95.9981 294.888 95.5992 293.879 95.5992C292.521 95.5992 291.574 96.5397 291.574 97.8064C291.574 99.0358 292.48 100.015 293.879 100.015C294.869 100.015 295.56 99.6256 295.65 99.5756V101.796C295.385 101.869 294.669 102.091 293.731 102.091C291.365 102.091 289.29 100.472 289.29 97.8064C289.29 95.3356 291.168 93.5255 293.731 93.5255C294.722 93.5255 295.452 93.7627 295.65 93.8217V96.0426Z" fill="white"/>
<path d="M273.684 96.0426C273.598 95.9981 272.922 95.5992 271.913 95.5992C270.551 95.5992 269.607 96.5397 269.607 97.8064C269.607 99.0358 270.511 100.015 271.913 100.015C272.904 100.015 273.59 99.6256 273.684 99.5756V101.796C273.42 101.869 272.702 102.091 271.761 102.091C269.397 102.091 267.322 100.472 267.322 97.8064C267.322 95.3356 269.202 93.5255 271.761 93.5255C272.752 93.5255 273.483 93.7627 273.684 93.8217V96.0426Z" fill="white"/>
<path d="M306.679 97.8064C306.679 100.173 304.837 102.091 302.274 102.091C299.705 102.091 297.868 100.173 297.868 97.8064C297.868 95.4438 299.705 93.5255 302.274 93.5255C304.838 93.5255 306.679 95.4438 306.679 97.8064ZM302.274 95.631C301.023 95.631 300.095 96.6051 300.095 97.8064C300.095 99.0086 301.023 99.9836 302.274 99.9836C303.52 99.9836 304.448 99.0095 304.448 97.8064C304.448 96.606 303.52 95.631 302.274 95.631Z" fill="white"/>
<path d="M286.663 95.551C286.632 95.5419 285.744 95.2993 285.019 95.2993C284.171 95.2993 283.714 95.5792 283.714 95.9763C283.714 96.4806 284.332 96.656 284.678 96.7659L285.26 96.9486C286.627 97.3793 287.251 98.3071 287.251 99.313C287.251 101.392 285.408 102.09 283.794 102.09C282.674 102.09 281.626 101.886 281.522 101.864V99.9609C281.71 100.006 282.593 100.267 283.512 100.267C284.557 100.267 285.041 99.9646 285.041 99.4948C285.041 99.0749 284.624 98.8351 284.1 98.6715C283.974 98.6297 283.781 98.5706 283.651 98.5261C282.477 98.159 281.5 97.4775 281.5 96.1081C281.5 94.5605 282.67 93.521 284.611 93.521C285.637 93.521 286.601 93.7682 286.663 93.7845V95.551Z" fill="white"/>
<path d="M265.089 84.7812C265.089 84.2133 264.62 83.7507 264.045 83.7507C263.47 83.7498 263 84.2124 263 84.7812V86.953C263 87.5264 263.47 87.9898 264.045 87.9898C264.62 87.9898 265.089 87.5264 265.089 86.953V84.7812Z" fill="white"/>
<path d="M270.828 81.9306C270.828 81.3627 270.357 80.8983 269.784 80.8983C269.209 80.8983 268.739 81.3627 268.739 81.9306V86.953C268.739 87.5263 269.209 87.9898 269.784 87.9898C270.358 87.9898 270.828 87.5263 270.828 86.953V81.9306Z" fill="white"/>
<path d="M276.571 78.0323C276.571 77.4625 276.1 77 275.526 77C274.948 77 274.477 77.4625 274.477 78.0323V89.0175C274.477 89.59 274.948 90.0516 275.526 90.0516C276.1 90.0516 276.571 89.59 276.571 89.0175V78.0323Z" fill="white"/>
<path d="M282.306 81.9306C282.306 81.3627 281.84 80.8983 281.262 80.8983C280.688 80.8983 280.217 81.3627 280.217 81.9306V86.953C280.217 87.5263 280.688 87.9898 281.262 87.9898C281.84 87.9898 282.306 87.5263 282.306 86.953V81.9306Z" fill="white"/>
<path d="M288.043 84.7812C288.043 84.2133 287.573 83.7507 287.004 83.7507C286.426 83.7507 285.96 84.2133 285.96 84.7812V86.953C285.96 87.5264 286.426 87.9898 287.004 87.9898C287.573 87.9898 288.043 87.5264 288.043 86.953V84.7812Z" fill="white"/>
<path d="M293.785 81.9306C293.785 81.3627 293.319 80.8983 292.74 80.8983C292.166 80.8983 291.701 81.3627 291.701 81.9306V86.953C291.701 87.5263 292.166 87.9898 292.74 87.9898C293.319 87.9898 293.785 87.5263 293.785 86.953V81.9306Z" fill="white"/>
<path d="M299.527 78.0323C299.527 77.4625 299.06 77 298.487 77C297.909 77 297.443 77.4625 297.443 78.0323V89.0175C297.443 89.59 297.908 90.0516 298.487 90.0516C299.06 90.0516 299.527 89.59 299.527 89.0175V78.0323Z" fill="white"/>
<path d="M305.268 81.9306C305.268 81.3627 304.802 80.8983 304.214 80.8983C303.641 80.8983 303.175 81.3627 303.175 81.9306V86.953C303.175 87.5263 303.641 87.9898 304.214 87.9898C304.802 87.9898 305.268 87.5263 305.268 86.953V81.9306Z" fill="white"/>
<path d="M311 84.7812C311 84.2133 310.534 83.7507 309.961 83.7507C309.383 83.7507 308.916 84.2133 308.916 84.7812V86.953C308.916 87.5264 309.382 87.9898 309.961 87.9898C310.534 87.9898 311 87.5264 311 86.953V84.7812Z" fill="white"/>
</g>
</g>
<defs>
<clipPath id="clip0">
<rect width="592" height="147" fill="white"/>
</clipPath>
<clipPath id="clip1">
<rect width="48" height="25.0909" fill="white" transform="translate(263 77)"/>
</clipPath>
</defs>
</svg>
