<svg width="592" height="130" viewBox="0 0 592 130" fill="none" xmlns="http://www.w3.org/2000/svg">
<g clip-path="url(#clip0)">
<rect width="592" height="130" fill="white"/>
<circle cx="-61.5" cy="-30.5" r="436.5" fill="#1B3051"/>
<path fill-rule="evenodd" clip-rule="evenodd" d="M230.455 53.1778C232.586 51.9963 235.133 50.424 237.214 47.7834C235.153 45.2312 232.293 43.7338 230.18 42.5782C235.284 41.4559 239.732 46.4907 239.732 46.4907L240.926 47.8021L239.747 49.1302C235.086 54.1442 230.455 53.1778 230.455 53.1778" fill="#FB7C32"/>
<path fill-rule="evenodd" clip-rule="evenodd" d="M230.849 47.8733C230.849 49.191 229.78 50.2582 228.46 50.2582C227.141 50.2582 226.072 49.191 226.072 47.8733C226.072 46.5556 227.141 45.4884 228.46 45.4884C229.78 45.4884 230.849 46.5556 230.849 47.8733" fill="white"/>
<path fill-rule="evenodd" clip-rule="evenodd" d="M220.136 47.783C221.722 49.8759 226.14 54.9439 231.75 54.9439C235.613 54.9439 239.467 52.5362 243.214 47.784C239.47 43.1493 235.617 40.8008 231.75 40.8008C226.144 40.8008 221.731 45.7306 220.136 47.783M231.75 58.2163C222.9 58.2163 216.984 49.0372 216.735 48.6455L216.176 47.7611L216.745 46.882C216.993 46.5006 222.913 37.5294 231.75 37.5294C236.963 37.5294 241.956 40.6438 246.59 46.7864L247.324 47.7601L246.601 48.7411C241.967 55.0281 236.97 58.2163 231.75 58.2163" fill="#FB7C32"/>
<path fill-rule="evenodd" clip-rule="evenodd" d="M225.009 58.2093C216.381 57.9433 210.816 48.9627 210.572 48.5772L210.113 47.6824L210.649 46.8137C210.893 46.4386 216.36 37.8435 224.939 37.537C218.276 40.5911 213.644 47.8498 213.644 47.8498C213.644 47.8498 217.529 54.3612 225.009 58.2093" fill="#FB7C32"/>
<path fill-rule="evenodd" clip-rule="evenodd" d="M201.013 54.3331C201.399 54.3331 202.53 55.1655 203.928 55.1655C205.177 55.1655 205.742 54.7196 205.742 53.828C205.742 51.2135 199.793 52.7587 199.793 47.4402C199.793 44.4682 201.905 42.6257 205.267 42.6257C206.248 42.6257 209.669 42.8336 209.669 44.4983C209.669 44.8839 208.985 46.6972 208.39 46.6972C208.092 46.6972 207.2 46.0727 205.861 46.0727C204.85 46.0727 204.256 46.4 204.256 47.142C204.256 49.3118 210.204 48.1822 210.204 53.4716C210.204 56.5922 207.974 58.6425 204.642 58.6425C202.054 58.6425 199.436 57.9588 199.436 56.532C199.436 55.9376 200.388 54.3331 201.013 54.3331" fill="#FB7C32"/>
<path fill-rule="evenodd" clip-rule="evenodd" d="M156.961 38.7927C156.961 37.9603 157.318 37.6039 158.151 37.6039H169.039C169.662 37.6039 169.931 38.0497 169.931 39.0899V40.0106C169.931 41.0508 169.662 41.4966 169.039 41.4966H161.543V45.805H168.236C168.86 45.805 169.128 46.2509 169.128 47.2911V48.2118C169.128 49.252 168.86 49.6978 168.236 49.6978H161.543V54.5113H169.068C169.694 54.5113 169.961 54.9571 169.961 55.9973V56.918C169.961 57.9582 169.694 58.404 169.068 58.404H158.151C157.318 58.404 156.961 58.0476 156.961 57.2152V38.7927Z" fill="#FB7C32"/>
<path fill-rule="evenodd" clip-rule="evenodd" d="M170.971 43.9926C170.912 43.7848 170.851 43.6061 170.851 43.4575C170.851 43.0418 171.416 42.8038 172.666 42.8038H173.619C174.481 42.8038 175.135 42.9524 175.284 43.4284L177.039 48.9256C177.247 49.6083 177.604 51.243 177.872 52.5201H177.991C178.259 51.243 178.616 49.5793 178.824 48.9256L180.578 43.4284C180.728 42.9524 181.383 42.8038 182.245 42.8038H182.959C184.208 42.8038 184.744 43.0418 184.744 43.4575C184.744 43.6061 184.714 43.7848 184.654 43.9926L177.842 63.9012C177.663 64.3771 177.039 64.5247 176.177 64.5247H175.671C174.452 64.5247 173.886 64.2877 173.886 63.9012C173.886 63.7526 173.916 63.5749 174.004 63.366L175.879 58.4039L170.971 43.9926Z" fill="#FB7C32"/>
<path fill-rule="evenodd" clip-rule="evenodd" d="M194.292 49.1038C194.292 47.3808 193.637 46.1026 192.15 46.1026C190.9 46.1026 189.83 46.8155 189.473 49.1038H194.292ZM192.15 42.6256C196.82 42.6256 198.576 46.1619 198.576 50.2926C198.576 50.7977 197.445 52.0457 197.058 52.0457H189.473C189.68 54.4223 190.961 55.1653 192.894 55.1653C194.768 55.1653 196.076 54.2446 196.493 54.2446C197.148 54.2446 198.04 55.9083 198.04 56.5027C198.04 57.9877 194.351 58.6424 192.686 58.6424C187.301 58.6424 184.921 55.5218 184.921 50.7384C184.921 44.8848 187.896 42.6256 192.15 42.6256V42.6256Z" fill="#FB7C32"/>
<path fill-rule="evenodd" clip-rule="evenodd" d="M149.258 53.2935V46.6677C148.783 46.3996 148.098 46.1024 147.175 46.1024C145.302 46.1024 144.409 47.6477 144.409 50.6197C144.409 53.5013 145.182 55.0466 146.819 55.0466C147.95 55.0466 148.722 54.2142 149.258 53.2935M139.947 50.6197C139.947 45.7761 142.208 42.6264 146.224 42.6264C147.622 42.6264 148.633 43.1013 149.258 43.5471V36.9504C149.258 36.3269 149.793 36.0006 151.042 36.0006H151.876C153.125 36.0006 153.661 36.3269 153.661 36.9504V53.174C153.661 56.2354 154.018 56.8589 154.018 57.4835C154.018 58.1963 151.429 58.4343 150.686 58.4343C149.734 58.4343 149.674 57.1863 149.495 56.4131C148.812 57.6913 147.354 58.6421 145.51 58.6421C142.297 58.6421 139.947 55.7896 139.947 50.6197" fill="white"/>
<path fill-rule="evenodd" clip-rule="evenodd" d="M125.163 48.0931C125.163 45.1221 124.806 44.4975 124.806 43.9042C124.806 43.1902 127.395 42.9523 128.138 42.9523C129.09 42.9523 129.15 44.1411 129.328 44.8841C130.191 43.7556 131.827 42.626 133.761 42.626C136.735 42.626 138.133 44.1411 138.133 47.4394V57.5132C138.133 58.1367 137.597 58.464 136.348 58.464H135.516C134.266 58.464 133.731 58.1367 133.731 57.5132V48.0931C133.731 46.9344 133.255 46.2506 131.946 46.2506C130.726 46.2506 129.923 47.2908 129.566 47.9746V57.5132C129.566 58.1367 129.03 58.464 127.781 58.464H126.949C125.699 58.464 125.163 58.1367 125.163 57.5132V48.0931Z" fill="white"/>
<path fill-rule="evenodd" clip-rule="evenodd" d="M114.812 55.1653C115.942 55.1653 117.014 54.3631 117.489 53.2938V51.6591C114.663 51.6591 113.324 52.4312 113.324 53.858C113.324 54.601 113.831 55.1653 114.812 55.1653M117.489 48.7775V47.7965C117.489 46.667 116.805 46.1027 115.169 46.1027C112.998 46.1027 111.718 47.0535 111.361 47.0535C110.737 47.0535 109.814 45.3004 109.814 44.6759C109.814 43.6658 112.195 42.6256 115.497 42.6256C120.197 42.6256 121.892 44.706 121.892 47.5887V53.1743C121.892 56.2346 122.25 56.8592 122.25 57.4827C122.25 58.1956 119.661 58.4335 118.917 58.4335C117.965 58.4335 117.906 57.1855 117.727 56.3832C117.519 56.7698 116.091 58.6424 113.355 58.6424C110.142 58.6424 108.952 56.7397 108.952 54.3039C108.952 51.867 109.934 48.7775 117.489 48.7775" fill="white"/>
<path fill-rule="evenodd" clip-rule="evenodd" d="M97.9172 54.3331C98.3042 54.3331 99.434 55.1655 100.832 55.1655C102.082 55.1655 102.647 54.7196 102.647 53.828C102.647 51.2135 96.6979 52.7587 96.6979 47.4402C96.6979 44.4682 98.8098 42.6257 102.171 42.6257C103.152 42.6257 106.574 42.8336 106.574 44.4983C106.574 44.8839 105.889 46.6972 105.294 46.6972C104.997 46.6972 104.104 46.0727 102.766 46.0727C101.754 46.0727 101.16 46.4 101.16 47.142C101.16 49.3118 107.109 48.1822 107.109 53.4716C107.109 56.5922 104.878 58.6425 101.546 58.6425C98.9586 58.6425 96.34 57.9588 96.34 56.532C96.34 55.9376 97.292 54.3331 97.9172 54.3331" fill="white"/>
<path fill-rule="evenodd" clip-rule="evenodd" d="M81.2001 43.7552C81.2001 43.1306 81.7359 42.8043 82.9854 42.8043H83.8176C85.0671 42.8043 85.6029 43.1306 85.6029 43.7552V53.1742C85.6029 54.3329 86.0783 55.0167 87.3881 55.0167C88.6074 55.0167 89.4105 53.9765 89.7674 53.2937V43.7552C89.7674 43.1306 90.3031 42.8043 91.5526 42.8043H92.3849C93.6343 42.8043 94.1701 43.1306 94.1701 43.7552V53.1742C94.1701 56.2346 94.5269 56.8592 94.5269 57.4827C94.5269 58.1955 91.9396 58.4335 91.1947 58.4335C90.2438 58.4335 90.1835 57.1855 90.0056 56.3832C89.1432 57.5128 87.5067 58.6424 85.5727 58.6424C82.5984 58.6424 81.2001 57.1262 81.2001 53.8279V43.7552Z" fill="white"/>
<path fill-rule="evenodd" clip-rule="evenodd" d="M74.3302 50.6195C74.3302 47.6485 73.4969 46.1032 71.5931 46.1032C69.6893 46.1032 68.8268 47.6485 68.8268 50.6195C68.8268 53.5905 69.6893 55.1658 71.5931 55.1658C73.4969 55.1658 74.3302 53.5905 74.3302 50.6195M71.5931 42.6261C76.3235 42.6261 78.7923 45.4485 78.7923 50.6194C78.7923 55.7893 76.3235 58.6429 71.5931 58.6429C66.8637 58.6429 64.3648 55.7893 64.3648 50.6194C64.3648 45.4485 66.8637 42.6261 71.5931 42.6261" fill="white"/>
<path fill-rule="evenodd" clip-rule="evenodd" d="M49.4626 36.9508C49.4626 36.3273 49.9983 36 51.2478 36H52.0801C53.3295 36 53.8653 36.3273 53.8653 36.9508V44.647C54.787 43.5475 56.2747 42.6258 58.06 42.6258C61.0343 42.6258 62.5511 44.1419 62.5511 47.4403V57.513C62.5511 58.1365 62.0154 58.4638 60.7669 58.4638H59.9336C58.6842 58.4638 58.1484 58.1365 58.1484 57.513V48.0929C58.1484 46.9342 57.5544 46.2515 56.2446 46.2515C55.0253 46.2515 54.2221 47.2917 53.8653 47.9744V57.513C53.8653 58.1365 53.3295 58.4638 52.0801 58.4638H51.2478C49.9983 58.4638 49.4626 58.1365 49.4626 57.513V36.9508Z" fill="white"/>
<path fill-rule="evenodd" clip-rule="evenodd" d="M37.622 41.4968H32.8926C32.2674 41.4968 32 41.0509 32 40.0107V39.09C32 38.0498 32.2674 37.604 32.8926 37.604H46.9622C47.5875 37.604 47.8548 38.0498 47.8548 39.09V40.0107C47.8548 41.0509 47.5875 41.4968 46.9622 41.4968H42.2328V57.5125C42.2328 58.136 41.6981 58.4634 40.4486 58.4634H39.4072C38.1578 58.4634 37.622 58.136 37.622 57.5125V41.4968Z" fill="white"/>
<path d="M35.6299 86V77.1611H32.3281V75.9785H40.2715V77.1611H36.9561V86H35.6299ZM41.4814 86V75.9785H42.7119V79.5742C43.2861 78.9089 44.0107 78.5762 44.8857 78.5762C45.4235 78.5762 45.8906 78.6833 46.2871 78.8975C46.6836 79.1071 46.9661 79.3988 47.1348 79.7725C47.3079 80.1462 47.3945 80.6885 47.3945 81.3994V86H46.1641V81.3994C46.1641 80.7842 46.0296 80.3376 45.7607 80.0596C45.4964 79.777 45.1204 79.6357 44.6328 79.6357C44.2682 79.6357 43.9242 79.7314 43.6006 79.9229C43.2816 80.1097 43.0537 80.3649 42.917 80.6885C42.7803 81.012 42.7119 81.4587 42.7119 82.0283V86H41.4814ZM48.8164 82.3701C48.8164 81.0257 49.1901 80.0299 49.9375 79.3828C50.5618 78.8451 51.3229 78.5762 52.2207 78.5762C53.2188 78.5762 54.0345 78.9043 54.668 79.5605C55.3014 80.2122 55.6182 81.1146 55.6182 82.2676C55.6182 83.2018 55.4769 83.9378 55.1943 84.4756C54.9163 85.0088 54.5085 85.4235 53.9707 85.7197C53.4375 86.016 52.8542 86.1641 52.2207 86.1641C51.2044 86.1641 50.3818 85.8382 49.7529 85.1865C49.1286 84.5348 48.8164 83.596 48.8164 82.3701ZM50.0811 82.3701C50.0811 83.2998 50.2839 83.9971 50.6895 84.4619C51.0951 84.9222 51.6055 85.1523 52.2207 85.1523C52.8314 85.1523 53.3395 84.9199 53.7451 84.4551C54.1507 83.9902 54.3535 83.2816 54.3535 82.3291C54.3535 81.4313 54.1484 80.7523 53.7383 80.292C53.3327 79.8271 52.8268 79.5947 52.2207 79.5947C51.6055 79.5947 51.0951 79.8249 50.6895 80.2852C50.2839 80.7454 50.0811 81.4404 50.0811 82.3701ZM61.8252 86V84.9336C61.2601 85.7539 60.4922 86.1641 59.5215 86.1641C59.0931 86.1641 58.6921 86.082 58.3184 85.918C57.9492 85.7539 57.6735 85.5488 57.4912 85.3027C57.3135 85.0521 57.1882 84.7467 57.1152 84.3867C57.0651 84.1452 57.04 83.7624 57.04 83.2383V78.7402H58.2705V82.7666C58.2705 83.4092 58.2956 83.8421 58.3457 84.0654C58.4232 84.389 58.5872 84.6442 58.8379 84.8311C59.0885 85.0133 59.3984 85.1045 59.7676 85.1045C60.1367 85.1045 60.4831 85.0111 60.8066 84.8242C61.1302 84.6328 61.3581 84.3753 61.4902 84.0518C61.627 83.7236 61.6953 83.2497 61.6953 82.6299V78.7402H62.9258V86H61.8252ZM64.3682 83.833L65.585 83.6416C65.6533 84.1292 65.8424 84.5029 66.1523 84.7627C66.4668 85.0225 66.9043 85.1523 67.4648 85.1523C68.0299 85.1523 68.4492 85.0384 68.7227 84.8105C68.9961 84.5781 69.1328 84.307 69.1328 83.9971C69.1328 83.7191 69.012 83.5003 68.7705 83.3408C68.6019 83.2314 68.1826 83.0924 67.5127 82.9238C66.6104 82.696 65.9837 82.5 65.6328 82.3359C65.2865 82.1673 65.0221 81.9372 64.8398 81.6455C64.6621 81.3493 64.5732 81.0234 64.5732 80.668C64.5732 80.3444 64.6462 80.0459 64.792 79.7725C64.9424 79.4945 65.1452 79.2643 65.4004 79.082C65.5918 78.9408 65.8516 78.8223 66.1797 78.7266C66.5124 78.6263 66.8678 78.5762 67.2461 78.5762C67.8158 78.5762 68.3148 78.6582 68.7432 78.8223C69.1761 78.9863 69.4951 79.2096 69.7002 79.4922C69.9053 79.7702 70.0465 80.1439 70.124 80.6133L68.9209 80.7773C68.8662 80.4036 68.7067 80.112 68.4424 79.9023C68.1826 79.6927 67.8135 79.5879 67.335 79.5879C66.7699 79.5879 66.3665 79.6813 66.125 79.8682C65.8835 80.055 65.7627 80.2738 65.7627 80.5244C65.7627 80.6839 65.8128 80.8275 65.9131 80.9551C66.0133 81.0872 66.1706 81.1966 66.3848 81.2832C66.5078 81.3288 66.8701 81.4336 67.4717 81.5977C68.3421 81.8301 68.9482 82.0215 69.29 82.1719C69.6364 82.3177 69.9076 82.5319 70.1035 82.8145C70.2995 83.097 70.3975 83.4479 70.3975 83.8672C70.3975 84.2773 70.2767 84.6647 70.0352 85.0293C69.7982 85.3893 69.4541 85.6696 69.0029 85.8701C68.5518 86.0661 68.0413 86.1641 67.4717 86.1641C66.5283 86.1641 65.8083 85.9681 65.3115 85.5762C64.8193 85.1842 64.5049 84.6032 64.3682 83.833ZM76.5977 85.1045C76.1419 85.4919 75.7021 85.7653 75.2783 85.9248C74.859 86.0843 74.4079 86.1641 73.9248 86.1641C73.1273 86.1641 72.5143 85.9704 72.0859 85.583C71.6576 85.1911 71.4434 84.6921 71.4434 84.0859C71.4434 83.7305 71.5231 83.4069 71.6826 83.1152C71.8467 82.819 72.0586 82.582 72.3184 82.4043C72.5827 82.2266 72.8789 82.0921 73.207 82.001C73.4486 81.9372 73.8132 81.8757 74.3008 81.8164C75.2943 81.6979 76.0257 81.5566 76.4951 81.3926C76.4997 81.224 76.502 81.1169 76.502 81.0713C76.502 80.57 76.3857 80.2168 76.1533 80.0117C75.8389 79.7337 75.3717 79.5947 74.752 79.5947C74.1732 79.5947 73.7448 79.6973 73.4668 79.9023C73.1934 80.1029 72.9906 80.4606 72.8584 80.9756L71.6553 80.8115C71.7646 80.2965 71.9447 79.8818 72.1953 79.5674C72.446 79.2484 72.8083 79.0046 73.2822 78.8359C73.7562 78.6628 74.3053 78.5762 74.9297 78.5762C75.5495 78.5762 76.0531 78.6491 76.4404 78.7949C76.8278 78.9408 77.1126 79.1253 77.2949 79.3486C77.4772 79.5674 77.6048 79.8454 77.6777 80.1826C77.7188 80.3923 77.7393 80.7705 77.7393 81.3174V82.958C77.7393 84.1019 77.7643 84.8265 77.8145 85.1318C77.8691 85.4326 77.974 85.722 78.1289 86H76.8438C76.7161 85.7448 76.6341 85.4463 76.5977 85.1045ZM76.4951 82.3564C76.0485 82.5387 75.3786 82.6937 74.4854 82.8213C73.9795 82.8942 73.6217 82.9762 73.4121 83.0674C73.2025 83.1585 73.0407 83.293 72.9268 83.4707C72.8128 83.6439 72.7559 83.8376 72.7559 84.0518C72.7559 84.3799 72.8789 84.6533 73.125 84.8721C73.3757 85.0908 73.7402 85.2002 74.2188 85.2002C74.6927 85.2002 75.1143 85.0977 75.4834 84.8926C75.8525 84.6829 76.1237 84.3981 76.2969 84.0381C76.429 83.7601 76.4951 83.3499 76.4951 82.8076V82.3564ZM79.6533 86V78.7402H80.7607V79.7725C81.2939 78.9749 82.0641 78.5762 83.0713 78.5762C83.5088 78.5762 83.9098 78.6559 84.2744 78.8154C84.6436 78.9704 84.9193 79.1755 85.1016 79.4307C85.2839 79.6859 85.4115 79.9889 85.4844 80.3398C85.5299 80.5677 85.5527 80.9665 85.5527 81.5361V86H84.3223V81.584C84.3223 81.0827 84.2744 80.709 84.1787 80.4629C84.083 80.2122 83.9121 80.014 83.666 79.8682C83.4245 79.7178 83.1396 79.6426 82.8115 79.6426C82.2874 79.6426 81.834 79.8089 81.4512 80.1416C81.0729 80.4743 80.8838 81.1055 80.8838 82.0352V86H79.6533ZM92.1562 86V85.084C91.696 85.804 91.0192 86.1641 90.126 86.1641C89.5472 86.1641 89.014 86.0046 88.5264 85.6855C88.0433 85.3665 87.6673 84.9222 87.3984 84.3525C87.1341 83.7783 87.002 83.1198 87.002 82.377C87.002 81.6523 87.1227 80.9961 87.3643 80.4082C87.6058 79.8158 87.9681 79.3623 88.4512 79.0479C88.9342 78.7334 89.4743 78.5762 90.0713 78.5762C90.5088 78.5762 90.8984 78.6696 91.2402 78.8564C91.582 79.0387 91.86 79.278 92.0742 79.5742V75.9785H93.2979V86H92.1562ZM88.2666 82.377C88.2666 83.3066 88.4626 84.0016 88.8545 84.4619C89.2464 84.9222 89.709 85.1523 90.2422 85.1523C90.7799 85.1523 91.2357 84.9336 91.6094 84.4961C91.9876 84.054 92.1768 83.3818 92.1768 82.4795C92.1768 81.486 91.9854 80.7568 91.6025 80.292C91.2197 79.8271 90.748 79.5947 90.1875 79.5947C89.6406 79.5947 89.1826 79.818 88.8135 80.2646C88.4489 80.7113 88.2666 81.4154 88.2666 82.377ZM95.4238 86V75.9785H102.67V77.1611H96.75V80.2305H102.294V81.4062H96.75V84.8174H102.902V86H95.4238ZM104.522 88.7959L104.386 87.6406C104.655 87.7135 104.889 87.75 105.09 87.75C105.363 87.75 105.582 87.7044 105.746 87.6133C105.91 87.5221 106.045 87.3945 106.149 87.2305C106.227 87.1074 106.352 86.8021 106.525 86.3145C106.548 86.2461 106.585 86.1458 106.635 86.0137L103.88 78.7402H105.206L106.717 82.9443C106.913 83.4775 107.088 84.0381 107.243 84.626C107.384 84.0609 107.553 83.5094 107.749 82.9717L109.301 78.7402H110.531L107.77 86.123C107.473 86.9206 107.243 87.4697 107.079 87.7705C106.86 88.1761 106.61 88.4723 106.327 88.6592C106.045 88.8506 105.707 88.9463 105.315 88.9463C105.078 88.9463 104.814 88.8962 104.522 88.7959ZM116.547 83.6621L117.818 83.8193C117.618 84.5622 117.246 85.1387 116.704 85.5488C116.162 85.959 115.469 86.1641 114.626 86.1641C113.564 86.1641 112.721 85.8382 112.097 85.1865C111.477 84.5303 111.167 83.612 111.167 82.4316C111.167 81.2103 111.481 80.2624 112.11 79.5879C112.739 78.9134 113.555 78.5762 114.558 78.5762C115.528 78.5762 116.321 78.9066 116.937 79.5674C117.552 80.2282 117.859 81.1579 117.859 82.3564C117.859 82.4294 117.857 82.5387 117.853 82.6846H112.438C112.484 83.4821 112.71 84.0928 113.115 84.5166C113.521 84.9404 114.027 85.1523 114.633 85.1523C115.084 85.1523 115.469 85.0339 115.788 84.7969C116.107 84.5599 116.36 84.1816 116.547 83.6621ZM112.507 81.6729H116.561C116.506 81.0622 116.351 80.6042 116.096 80.2988C115.704 79.8249 115.196 79.5879 114.571 79.5879C114.006 79.5879 113.53 79.777 113.143 80.1553C112.76 80.5335 112.548 81.0394 112.507 81.6729ZM118.878 83.833L120.095 83.6416C120.163 84.1292 120.352 84.5029 120.662 84.7627C120.977 85.0225 121.414 85.1523 121.975 85.1523C122.54 85.1523 122.959 85.0384 123.232 84.8105C123.506 84.5781 123.643 84.307 123.643 83.9971C123.643 83.7191 123.522 83.5003 123.28 83.3408C123.112 83.2314 122.692 83.0924 122.022 82.9238C121.12 82.696 120.493 82.5 120.143 82.3359C119.796 82.1673 119.532 81.9372 119.35 81.6455C119.172 81.3493 119.083 81.0234 119.083 80.668C119.083 80.3444 119.156 80.0459 119.302 79.7725C119.452 79.4945 119.655 79.2643 119.91 79.082C120.102 78.9408 120.361 78.8223 120.689 78.7266C121.022 78.6263 121.378 78.5762 121.756 78.5762C122.326 78.5762 122.825 78.6582 123.253 78.8223C123.686 78.9863 124.005 79.2096 124.21 79.4922C124.415 79.7702 124.556 80.1439 124.634 80.6133L123.431 80.7773C123.376 80.4036 123.216 80.112 122.952 79.9023C122.692 79.6927 122.323 79.5879 121.845 79.5879C121.28 79.5879 120.876 79.6813 120.635 79.8682C120.393 80.055 120.272 80.2738 120.272 80.5244C120.272 80.6839 120.323 80.8275 120.423 80.9551C120.523 81.0872 120.68 81.1966 120.895 81.2832C121.018 81.3288 121.38 81.4336 121.981 81.5977C122.852 81.8301 123.458 82.0215 123.8 82.1719C124.146 82.3177 124.417 82.5319 124.613 82.8145C124.809 83.097 124.907 83.4479 124.907 83.8672C124.907 84.2773 124.786 84.6647 124.545 85.0293C124.308 85.3893 123.964 85.6696 123.513 85.8701C123.062 86.0661 122.551 86.1641 121.981 86.1641C121.038 86.1641 120.318 85.9681 119.821 85.5762C119.329 85.1842 119.015 84.6032 118.878 83.833ZM130.273 77.3936V75.9785H131.504V77.3936H130.273ZM130.273 86V78.7402H131.504V86H130.273ZM132.892 83.833L134.108 83.6416C134.177 84.1292 134.366 84.5029 134.676 84.7627C134.99 85.0225 135.428 85.1523 135.988 85.1523C136.553 85.1523 136.973 85.0384 137.246 84.8105C137.52 84.5781 137.656 84.307 137.656 83.9971C137.656 83.7191 137.535 83.5003 137.294 83.3408C137.125 83.2314 136.706 83.0924 136.036 82.9238C135.134 82.696 134.507 82.5 134.156 82.3359C133.81 82.1673 133.546 81.9372 133.363 81.6455C133.186 81.3493 133.097 81.0234 133.097 80.668C133.097 80.3444 133.17 80.0459 133.315 79.7725C133.466 79.4945 133.669 79.2643 133.924 79.082C134.115 78.9408 134.375 78.8223 134.703 78.7266C135.036 78.6263 135.391 78.5762 135.77 78.5762C136.339 78.5762 136.838 78.6582 137.267 78.8223C137.7 78.9863 138.019 79.2096 138.224 79.4922C138.429 79.7702 138.57 80.1439 138.647 80.6133L137.444 80.7773C137.39 80.4036 137.23 80.112 136.966 79.9023C136.706 79.6927 136.337 79.5879 135.858 79.5879C135.293 79.5879 134.89 79.6813 134.648 79.8682C134.407 80.055 134.286 80.2738 134.286 80.5244C134.286 80.6839 134.336 80.8275 134.437 80.9551C134.537 81.0872 134.694 81.1966 134.908 81.2832C135.031 81.3288 135.394 81.4336 135.995 81.5977C136.866 81.8301 137.472 82.0215 137.813 82.1719C138.16 82.3177 138.431 82.5319 138.627 82.8145C138.823 83.097 138.921 83.4479 138.921 83.8672C138.921 84.2773 138.8 84.6647 138.559 85.0293C138.322 85.3893 137.978 85.6696 137.526 85.8701C137.075 86.0661 136.565 86.1641 135.995 86.1641C135.052 86.1641 134.332 85.9681 133.835 85.5762C133.343 85.1842 133.028 84.6032 132.892 83.833ZM144.28 86V78.7402H145.388V79.7725C145.921 78.9749 146.691 78.5762 147.698 78.5762C148.136 78.5762 148.537 78.6559 148.901 78.8154C149.271 78.9704 149.546 79.1755 149.729 79.4307C149.911 79.6859 150.038 79.9889 150.111 80.3398C150.157 80.5677 150.18 80.9665 150.18 81.5361V86H148.949V81.584C148.949 81.0827 148.901 80.709 148.806 80.4629C148.71 80.2122 148.539 80.014 148.293 79.8682C148.051 79.7178 147.767 79.6426 147.438 79.6426C146.914 79.6426 146.461 79.8089 146.078 80.1416C145.7 80.4743 145.511 81.1055 145.511 82.0352V86H144.28ZM151.615 82.3701C151.615 81.0257 151.989 80.0299 152.736 79.3828C153.361 78.8451 154.122 78.5762 155.02 78.5762C156.018 78.5762 156.833 78.9043 157.467 79.5605C158.1 80.2122 158.417 81.1146 158.417 82.2676C158.417 83.2018 158.276 83.9378 157.993 84.4756C157.715 85.0088 157.307 85.4235 156.77 85.7197C156.236 86.016 155.653 86.1641 155.02 86.1641C154.003 86.1641 153.181 85.8382 152.552 85.1865C151.927 84.5348 151.615 83.596 151.615 82.3701ZM152.88 82.3701C152.88 83.2998 153.083 83.9971 153.488 84.4619C153.894 84.9222 154.404 85.1523 155.02 85.1523C155.63 85.1523 156.138 84.9199 156.544 84.4551C156.95 83.9902 157.152 83.2816 157.152 82.3291C157.152 81.4313 156.947 80.7523 156.537 80.292C156.132 79.8271 155.626 79.5947 155.02 79.5947C154.404 79.5947 153.894 79.8249 153.488 80.2852C153.083 80.7454 152.88 81.4404 152.88 82.3701ZM161.206 86L158.984 78.7402H160.256L161.411 82.9307L161.842 84.4893C161.86 84.4118 161.985 83.9128 162.218 82.9922L163.373 78.7402H164.638L165.725 82.9512L166.087 84.3389L166.504 82.9375L167.748 78.7402H168.944L166.675 86H165.396L164.241 81.6523L163.961 80.415L162.491 86H161.206ZM173.88 88.7822V78.7402H175.001V79.6836C175.265 79.3145 175.564 79.0387 175.896 78.8564C176.229 78.6696 176.632 78.5762 177.106 78.5762C177.726 78.5762 178.273 78.7357 178.747 79.0547C179.221 79.3737 179.579 79.8249 179.82 80.4082C180.062 80.987 180.183 81.6227 180.183 82.3154C180.183 83.0583 180.048 83.7282 179.779 84.3252C179.515 84.9176 179.128 85.3734 178.617 85.6924C178.111 86.0068 177.578 86.1641 177.018 86.1641C176.607 86.1641 176.238 86.0775 175.91 85.9043C175.587 85.7311 175.32 85.5124 175.11 85.248V88.7822H173.88ZM174.994 82.4111C174.994 83.3454 175.183 84.0358 175.562 84.4824C175.94 84.929 176.398 85.1523 176.936 85.1523C177.482 85.1523 177.95 84.9222 178.337 84.4619C178.729 83.9971 178.925 83.2793 178.925 82.3086C178.925 81.3835 178.733 80.6908 178.351 80.2305C177.972 79.7702 177.519 79.54 176.99 79.54C176.466 79.54 176.001 79.7861 175.596 80.2783C175.195 80.766 174.994 81.4769 174.994 82.4111ZM186.41 85.1045C185.954 85.4919 185.515 85.7653 185.091 85.9248C184.672 86.0843 184.22 86.1641 183.737 86.1641C182.94 86.1641 182.327 85.9704 181.898 85.583C181.47 85.1911 181.256 84.6921 181.256 84.0859C181.256 83.7305 181.336 83.4069 181.495 83.1152C181.659 82.819 181.871 82.582 182.131 82.4043C182.395 82.2266 182.691 82.0921 183.02 82.001C183.261 81.9372 183.626 81.8757 184.113 81.8164C185.107 81.6979 185.838 81.5566 186.308 81.3926C186.312 81.224 186.314 81.1169 186.314 81.0713C186.314 80.57 186.198 80.2168 185.966 80.0117C185.651 79.7337 185.184 79.5947 184.564 79.5947C183.986 79.5947 183.557 79.6973 183.279 79.9023C183.006 80.1029 182.803 80.4606 182.671 80.9756L181.468 80.8115C181.577 80.2965 181.757 79.8818 182.008 79.5674C182.258 79.2484 182.621 79.0046 183.095 78.8359C183.569 78.6628 184.118 78.5762 184.742 78.5762C185.362 78.5762 185.866 78.6491 186.253 78.7949C186.64 78.9408 186.925 79.1253 187.107 79.3486C187.29 79.5674 187.417 79.8454 187.49 80.1826C187.531 80.3923 187.552 80.7705 187.552 81.3174V82.958C187.552 84.1019 187.577 84.8265 187.627 85.1318C187.682 85.4326 187.786 85.722 187.941 86H186.656C186.529 85.7448 186.447 85.4463 186.41 85.1045ZM186.308 82.3564C185.861 82.5387 185.191 82.6937 184.298 82.8213C183.792 82.8942 183.434 82.9762 183.225 83.0674C183.015 83.1585 182.853 83.293 182.739 83.4707C182.625 83.6439 182.568 83.8376 182.568 84.0518C182.568 84.3799 182.691 84.6533 182.938 84.8721C183.188 85.0908 183.553 85.2002 184.031 85.2002C184.505 85.2002 184.927 85.0977 185.296 84.8926C185.665 84.6829 185.936 84.3981 186.109 84.0381C186.242 83.7601 186.308 83.3499 186.308 82.8076V82.3564ZM189.452 86V78.7402H190.56V79.8408C190.842 79.3258 191.102 78.9863 191.339 78.8223C191.58 78.6582 191.845 78.5762 192.132 78.5762C192.547 78.5762 192.968 78.7083 193.396 78.9727L192.973 80.1143C192.672 79.9365 192.371 79.8477 192.07 79.8477C191.801 79.8477 191.56 79.9297 191.346 80.0938C191.132 80.2533 190.979 80.4766 190.888 80.7637C190.751 81.2012 190.683 81.6797 190.683 82.1992V86H189.452ZM196.814 84.8994L196.992 85.9863C196.646 86.0592 196.336 86.0957 196.062 86.0957C195.616 86.0957 195.27 86.0251 195.023 85.8838C194.777 85.7425 194.604 85.5579 194.504 85.3301C194.404 85.0977 194.354 84.6123 194.354 83.874V79.6973H193.451V78.7402H194.354V76.9424L195.577 76.2041V78.7402H196.814V79.6973H195.577V83.9424C195.577 84.2933 195.598 84.5189 195.639 84.6191C195.684 84.7194 195.755 84.7992 195.851 84.8584C195.951 84.9176 196.092 84.9473 196.274 84.9473C196.411 84.9473 196.591 84.9313 196.814 84.8994ZM201.463 82.3701C201.463 81.0257 201.837 80.0299 202.584 79.3828C203.208 78.8451 203.969 78.5762 204.867 78.5762C205.865 78.5762 206.681 78.9043 207.314 79.5605C207.948 80.2122 208.265 81.1146 208.265 82.2676C208.265 83.2018 208.123 83.9378 207.841 84.4756C207.563 85.0088 207.155 85.4235 206.617 85.7197C206.084 86.016 205.501 86.1641 204.867 86.1641C203.851 86.1641 203.028 85.8382 202.399 85.1865C201.775 84.5348 201.463 83.596 201.463 82.3701ZM202.728 82.3701C202.728 83.2998 202.93 83.9971 203.336 84.4619C203.742 84.9222 204.252 85.1523 204.867 85.1523C205.478 85.1523 205.986 84.9199 206.392 84.4551C206.797 83.9902 207 83.2816 207 82.3291C207 81.4313 206.795 80.7523 206.385 80.292C205.979 79.8271 205.473 79.5947 204.867 79.5947C204.252 79.5947 203.742 79.8249 203.336 80.2852C202.93 80.7454 202.728 81.4404 202.728 82.3701ZM210.008 86V79.6973H208.921V78.7402H210.008V77.9678C210.008 77.4801 210.051 77.1178 210.138 76.8809C210.256 76.5618 210.464 76.3044 210.76 76.1084C211.061 75.9079 211.48 75.8076 212.018 75.8076C212.364 75.8076 212.747 75.8486 213.166 75.9307L212.981 77.0039C212.726 76.9583 212.485 76.9355 212.257 76.9355C211.883 76.9355 211.619 77.0153 211.464 77.1748C211.309 77.3343 211.231 77.6328 211.231 78.0703V78.7402H212.646V79.6973H211.231V86H210.008ZM224.814 82.4863L226.141 82.8213C225.863 83.9105 225.361 84.7422 224.637 85.3164C223.917 85.8861 223.035 86.1709 221.991 86.1709C220.911 86.1709 220.032 85.9521 219.353 85.5146C218.678 85.0726 218.163 84.4346 217.808 83.6006C217.457 82.7666 217.281 81.8711 217.281 80.9141C217.281 79.8704 217.479 78.9613 217.876 78.1865C218.277 77.4072 218.844 76.8171 219.578 76.416C220.316 76.0104 221.128 75.8076 222.012 75.8076C223.014 75.8076 223.857 76.0628 224.541 76.5732C225.225 77.0837 225.701 77.8014 225.97 78.7266L224.664 79.0342C224.432 78.305 224.094 77.7741 223.652 77.4414C223.21 77.1087 222.654 76.9424 221.984 76.9424C221.214 76.9424 220.569 77.127 220.05 77.4961C219.535 77.8652 219.173 78.362 218.963 78.9863C218.753 79.6061 218.648 80.2464 218.648 80.9072C218.648 81.7594 218.771 82.5046 219.018 83.1426C219.268 83.776 219.656 84.25 220.18 84.5645C220.704 84.8789 221.271 85.0361 221.882 85.0361C222.625 85.0361 223.254 84.8219 223.769 84.3936C224.284 83.9652 224.632 83.3294 224.814 82.4863ZM227.631 77.3936V75.9785H228.861V77.3936H227.631ZM227.631 86V78.7402H228.861V86H227.631ZM230.249 83.833L231.466 83.6416C231.534 84.1292 231.723 84.5029 232.033 84.7627C232.348 85.0225 232.785 85.1523 233.346 85.1523C233.911 85.1523 234.33 85.0384 234.604 84.8105C234.877 84.5781 235.014 84.307 235.014 83.9971C235.014 83.7191 234.893 83.5003 234.651 83.3408C234.483 83.2314 234.063 83.0924 233.394 82.9238C232.491 82.696 231.865 82.5 231.514 82.3359C231.167 82.1673 230.903 81.9372 230.721 81.6455C230.543 81.3493 230.454 81.0234 230.454 80.668C230.454 80.3444 230.527 80.0459 230.673 79.7725C230.823 79.4945 231.026 79.2643 231.281 79.082C231.473 78.9408 231.732 78.8223 232.061 78.7266C232.393 78.6263 232.749 78.5762 233.127 78.5762C233.697 78.5762 234.196 78.6582 234.624 78.8223C235.057 78.9863 235.376 79.2096 235.581 79.4922C235.786 79.7702 235.927 80.1439 236.005 80.6133L234.802 80.7773C234.747 80.4036 234.588 80.112 234.323 79.9023C234.063 79.6927 233.694 79.5879 233.216 79.5879C232.651 79.5879 232.247 79.6813 232.006 79.8682C231.764 80.055 231.644 80.2738 231.644 80.5244C231.644 80.6839 231.694 80.8275 231.794 80.9551C231.894 81.0872 232.051 81.1966 232.266 81.2832C232.389 81.3288 232.751 81.4336 233.353 81.5977C234.223 81.8301 234.829 82.0215 235.171 82.1719C235.517 82.3177 235.788 82.5319 235.984 82.8145C236.18 83.097 236.278 83.4479 236.278 83.8672C236.278 84.2773 236.158 84.6647 235.916 85.0293C235.679 85.3893 235.335 85.6696 234.884 85.8701C234.433 86.0661 233.922 86.1641 233.353 86.1641C232.409 86.1641 231.689 85.9681 231.192 85.5762C230.7 85.1842 230.386 84.6032 230.249 83.833ZM242.479 83.3408L243.688 83.498C243.556 84.332 243.217 84.986 242.67 85.46C242.128 85.9294 241.46 86.1641 240.667 86.1641C239.674 86.1641 238.874 85.8405 238.268 85.1934C237.666 84.5417 237.365 83.6097 237.365 82.3975C237.365 81.6136 237.495 80.9277 237.755 80.3398C238.015 79.752 238.409 79.3122 238.938 79.0205C239.471 78.7243 240.049 78.5762 240.674 78.5762C241.462 78.5762 242.107 78.7767 242.608 79.1777C243.11 79.5742 243.431 80.1393 243.572 80.873L242.376 81.0576C242.262 80.57 242.059 80.2031 241.768 79.957C241.48 79.7109 241.132 79.5879 240.722 79.5879C240.102 79.5879 239.598 79.8112 239.211 80.2578C238.824 80.6999 238.63 81.4017 238.63 82.3633C238.63 83.3385 238.817 84.0472 239.19 84.4893C239.564 84.9313 240.052 85.1523 240.653 85.1523C241.136 85.1523 241.54 85.0042 241.863 84.708C242.187 84.4118 242.392 83.9561 242.479 83.3408ZM244.283 82.3701C244.283 81.0257 244.657 80.0299 245.404 79.3828C246.029 78.8451 246.79 78.5762 247.688 78.5762C248.686 78.5762 249.501 78.9043 250.135 79.5605C250.768 80.2122 251.085 81.1146 251.085 82.2676C251.085 83.2018 250.944 83.9378 250.661 84.4756C250.383 85.0088 249.975 85.4235 249.438 85.7197C248.904 86.016 248.321 86.1641 247.688 86.1641C246.671 86.1641 245.849 85.8382 245.22 85.1865C244.595 84.5348 244.283 83.596 244.283 82.3701ZM245.548 82.3701C245.548 83.2998 245.751 83.9971 246.156 84.4619C246.562 84.9222 247.072 85.1523 247.688 85.1523C248.298 85.1523 248.806 84.9199 249.212 84.4551C249.618 83.9902 249.82 83.2816 249.82 82.3291C249.82 81.4313 249.615 80.7523 249.205 80.292C248.799 79.8271 248.294 79.5947 247.688 79.5947C247.072 79.5947 246.562 79.8249 246.156 80.2852C245.751 80.7454 245.548 81.4404 245.548 82.3701ZM252.883 86V84.5986H254.284V86H252.883Z" fill="white"/>
<g clip-path="url(#clip1)">
<path d="M309.795 91.8551V91.9832H309.423V92.9437H309.27V91.9832H308.898V91.8551H309.795Z" fill="white"/>
<path d="M309.875 91.8551H310.113L310.44 92.7474H310.448L310.767 91.8551H311V92.9437H310.843V92.0514H310.839L310.502 92.9437H310.36L310.036 92.0514H310.028V92.9437H309.875V91.8551Z" fill="white"/>
<path d="M278.68 84.6719H276.574V92.9437H278.68V84.6719Z" fill="white"/>
<path d="M295.65 87.0426C295.565 86.9981 294.888 86.5992 293.879 86.5992C292.521 86.5992 291.574 87.5397 291.574 88.8064C291.574 90.0358 292.48 91.0145 293.879 91.0145C294.869 91.0145 295.56 90.6256 295.65 90.5756V92.7965C295.385 92.8692 294.669 93.0909 293.731 93.0909C291.365 93.0909 289.29 91.4716 289.29 88.8064C289.29 86.3356 291.168 84.5255 293.731 84.5255C294.722 84.5255 295.452 84.7627 295.65 84.8217V87.0426Z" fill="white"/>
<path d="M273.684 87.0426C273.598 86.9981 272.922 86.5992 271.913 86.5992C270.551 86.5992 269.607 87.5397 269.607 88.8064C269.607 90.0358 270.511 91.0145 271.913 91.0145C272.904 91.0145 273.59 90.6256 273.684 90.5756V92.7965C273.42 92.8692 272.702 93.0909 271.761 93.0909C269.397 93.0909 267.322 91.4716 267.322 88.8064C267.322 86.3356 269.202 84.5255 271.761 84.5255C272.752 84.5255 273.483 84.7627 273.684 84.8217V87.0426Z" fill="white"/>
<path d="M306.679 88.8064C306.679 91.1726 304.837 93.0909 302.274 93.0909C299.705 93.0909 297.868 91.1726 297.868 88.8064C297.868 86.4438 299.705 84.5255 302.274 84.5255C304.838 84.5255 306.679 86.4438 306.679 88.8064ZM302.274 86.631C301.023 86.631 300.095 87.6051 300.095 88.8064C300.095 90.0086 301.023 90.9836 302.274 90.9836C303.52 90.9836 304.448 90.0095 304.448 88.8064C304.448 87.606 303.52 86.631 302.274 86.631Z" fill="white"/>
<path d="M286.663 86.551C286.632 86.5419 285.744 86.2993 285.019 86.2993C284.171 86.2993 283.714 86.5792 283.714 86.9763C283.714 87.4806 284.332 87.656 284.678 87.7659L285.26 87.9486C286.628 88.3793 287.251 89.3071 287.251 90.313C287.251 92.3921 285.408 93.09 283.794 93.09C282.674 93.09 281.626 92.8864 281.522 92.8637V90.9609C281.71 91.0064 282.593 91.2672 283.512 91.2672C284.557 91.2672 285.041 90.9646 285.041 90.4948C285.041 90.0749 284.624 89.8351 284.1 89.6715C283.974 89.6297 283.781 89.5706 283.652 89.5261C282.477 89.159 281.5 88.4775 281.5 87.1081C281.5 85.5605 282.67 84.521 284.611 84.521C285.637 84.521 286.601 84.7682 286.663 84.7845V86.551Z" fill="white"/>
<path d="M265.089 75.7812C265.089 75.2133 264.62 74.7507 264.045 74.7507C263.47 74.7498 263 75.2124 263 75.7812V77.953C263 78.5264 263.47 78.9898 264.045 78.9898C264.62 78.9898 265.089 78.5264 265.089 77.953V75.7812Z" fill="white"/>
<path d="M270.829 72.9306C270.829 72.3627 270.358 71.8983 269.784 71.8983C269.209 71.8983 268.739 72.3627 268.739 72.9306V77.953C268.739 78.5263 269.209 78.9898 269.784 78.9898C270.358 78.9898 270.829 78.5263 270.829 77.953V72.9306Z" fill="white"/>
<path d="M276.571 69.0323C276.571 68.4625 276.1 68 275.526 68C274.948 68 274.477 68.4625 274.477 69.0323V80.0175C274.477 80.59 274.948 81.0516 275.526 81.0516C276.1 81.0516 276.571 80.59 276.571 80.0175V69.0323Z" fill="white"/>
<path d="M282.306 72.9306C282.306 72.3627 281.84 71.8983 281.262 71.8983C280.688 71.8983 280.217 72.3627 280.217 72.9306V77.953C280.217 78.5263 280.688 78.9898 281.262 78.9898C281.84 78.9898 282.306 78.5263 282.306 77.953V72.9306Z" fill="white"/>
<path d="M288.043 75.7812C288.043 75.2133 287.573 74.7507 287.004 74.7507C286.426 74.7507 285.96 75.2133 285.96 75.7812V77.953C285.96 78.5264 286.426 78.9898 287.004 78.9898C287.573 78.9898 288.043 78.5264 288.043 77.953V75.7812Z" fill="white"/>
<path d="M293.785 72.9306C293.785 72.3627 293.319 71.8983 292.74 71.8983C292.166 71.8983 291.701 72.3627 291.701 72.9306V77.953C291.701 78.5263 292.166 78.9898 292.74 78.9898C293.319 78.9898 293.785 78.5263 293.785 77.953V72.9306Z" fill="white"/>
<path d="M299.527 69.0323C299.527 68.4625 299.06 68 298.487 68C297.909 68 297.443 68.4625 297.443 69.0323V80.0175C297.443 80.59 297.909 81.0516 298.487 81.0516C299.06 81.0516 299.527 80.59 299.527 80.0175V69.0323Z" fill="white"/>
<path d="M305.268 72.9306C305.268 72.3627 304.802 71.8983 304.214 71.8983C303.641 71.8983 303.175 72.3627 303.175 72.9306V77.953C303.175 78.5263 303.641 78.9898 304.214 78.9898C304.802 78.9898 305.268 78.5263 305.268 77.953V72.9306Z" fill="white"/>
<path d="M311 75.7812C311 75.2133 310.534 74.7507 309.961 74.7507C309.383 74.7507 308.916 75.2133 308.916 75.7812V77.953C308.916 78.5264 309.382 78.9898 309.961 78.9898C310.534 78.9898 311 78.5264 311 77.953V75.7812Z" fill="white"/>
</g>
</g>
<defs>
<clipPath id="clip0">
<rect width="592" height="130" fill="white"/>
</clipPath>
<clipPath id="clip1">
<rect width="48" height="25.0909" fill="white" transform="translate(263 68)"/>
</clipPath>
</defs>
</svg>
